SplineFontDB: 3.0
FontName: StickNoBills-Bold
FullName: Stick No Bills
FamilyName: Stick No Bills
Weight: ExtraBold
Copyright: Copyright (c) 2015 mooniak (http://mooniak.com) (c) 2015 Tharique Azeez(zeezat@gmail.com)
UComments: "2015-2-15: Created with FontForge (http://fontforge.org) The  Free Font Editor"
Version: 1.0
ItalicAngle: 0
UnderlinePosition: -99
UnderlineWidth: 49
Ascent: 800
Descent: 200
InvalidEm: 0
UFOAscent: 800
UFODescent: -200
LayerCount: 2
Layer: 0 0 "Back" 1
Layer: 1 0 "Fore" 0
PreferredKerning: 4
StyleMap: 0x0040
FSType: 0
OS2Version: 0
OS2_WeightWidthSlopeOnly: 0
OS2_UseTypoMetrics: 0
CreationTime: 1453142469
ModificationTime: 1453387066
PfmFamily: 16
TTFWeight: 400
TTFWidth: 5
LineGap: 92
VLineGap: 0
OS2TypoAscent: 800
OS2TypoAOffset: 0
OS2TypoDescent: -200
OS2TypoDOffset: 0
OS2TypoLinegap: 92
OS2WinAscent: 896
OS2WinAOffset: 0
OS2WinDescent: 200
OS2WinDOffset: 0
HheadAscent: 896
HheadAOffset: 0
HheadDescent: -200
HheadDOffset: 0
OS2Vendor: 'PfEd'
OS2UnicodeRanges: 00000002.00000000.00000000.00000000
MarkAttachClasses: 1
DEI: 91125
LangName: 1033 "Remove All VKern Pairs" "" "" "" "" "Version 1.0.1" "" "STICK NO BILLS is a trademark of STICK NO BILLS Gallery, Sri Lanka <http://sticknobillsonline.com>" "mooniak <http://mooniak.com>" "Martyn Hodges <allroundboatbuilder@yahoo.com> , Kosala Senavirathne <kosala@mooniak.com>, mooniak <hello@mooniak.com>" "Stick No Bills - is the bespoke typeface of STICK NO BILLS+ISIA Poster Gallery in Galle, Sri Lanka. " "https://github.com/mooniak/stick-no-bills-font" "http://type.mooniak.com/" "This Font Software is licensed under the SIL Open Font License, Version 1.1. This license is available with a FAQ at: http://scripts.sil.org/OFL" "" "" "Stick No Bills" "Regular"
PickledDataWithLists: "(dp1
S'com.schriftgestaltung.glyphOrder'
p2
(lp3
S'A'
aS'Aacute'
p4
aS'Acircumflex'
p5
aS'Adieresis'
p6
aS'Agrave'
p7
aS'Aring'
p8
aS'Atilde'
p9
aS'AE'
p10
aS'B'
aS'C'
aS'Ccedilla'
p11
aS'D'
aS'Eth'
p12
aS'E'
aS'Eacute'
p13

StartChar: .notdef
Encoding: 0 -1 0
GlifName: _notdef
Width: 631
VWidth: 0
Flags: HW
LayerCount: 2
Fore
SplineSet
50 -92.66015625 m 1
 50 754.33984375 l 1
 581 754.33984375 l 1
 581 -92.66015625 l 1
 50 -92.66015625 l 1
260.653320312 154.374023438 m 0
 260.653320312 176.734375 277.787109375 194.8359375 299.592773438 194.8359375 c 0
 321.400390625 194.8359375 339.052734375 176.734375 339.052734375 154.374023438 c 0
 339.052734375 132.012695312 321.400390625 114.443359375 299.592773438 114.443359375 c 0
 277.787109375 114.443359375 260.653320312 132.012695312 260.653320312 154.374023438 c 0
157.379882812 633.33984375 m 1
 157.379882812 17.4501953125 l 1
 473.620117188 17.4501953125 l 1
 473.620117188 633.33984375 l 1
 157.379882812 633.33984375 l 1
212.88671875 451.452148438 m 1
 228.463867188 471.684570312 254.423828125 500.43359375 310.49609375 500.43359375 c 0
 376.954101562 500.43359375 418.490234375 456.244140625 420.567382812 387.564453125 c 0
 420.567382812 283.046875 333.860351562 273.099609375 333.860351562 273.099609375 c 1
 333.860351562 214.534179688 l 1
 266.883789062 214.534179688 l 1
 266.883789062 331.662109375 l 1
 327.630859375 332.727539062 354.109375 339.116210938 354.109375 388.62890625 c 0
 354.109375 416.314453125 330.745117188 432.286132812 306.34375 432.286132812 c 0
 284.017578125 432.286132812 266.365234375 421.10546875 255.461914062 406.19921875 c 1
 212.88671875 451.452148438 l 1
EndSplineSet
EndChar

StartChar: dottedcircle
Encoding: 1 9676 1
GlifName: dottedcircle
Width: 636
VWidth: 0
GlyphClass: 2
Flags: HW
LayerCount: 2
Fore
SplineSet
147.958 483.58 m 4
 147.958 513.52972956 172.008289919 537.58 201.958 537.58 c 4
 231.90772956 537.58 255.958 513.529710081 255.958 483.58 c 4
 255.958 453.63027044 231.907710081 429.58 201.958 429.58 c 4
 172.00827044 429.58 147.958 453.630289919 147.958 483.58 c 4
62.4199 398.042 m 4
 62.4199 427.991756471 86.4702352992 452.042 116.42 452.042 c 4
 146.36972956 452.042 170.42 427.991710081 170.42 398.042 c 4
 170.42 368.09227044 146.369710081 344.042 116.42 344.042 c 4
 86.4702158198 344.042 62.4199 368.092263009 62.4199 398.042 c 4
147.958 72.4199 m 4
 147.958 102.369573649 172.008210614 126.42 201.958 126.42 c 4
 231.907808865 126.42 255.958 102.369554174 255.958 72.4199 c 4
 255.958 42.4701704399 231.907710081 18.4199 201.958 18.4199 c 4
 172.00827044 18.4199 147.958 42.4701899185 147.958 72.4199 c 4
62.4199 157.958 m 4
 62.4199 187.907756471 86.4702352992 211.958 116.42 211.958 c 4
 146.36972956 211.958 170.42 187.907710081 170.42 157.958 c 4
 170.42 128.00827044 146.369710081 103.958 116.42 103.958 c 4
 86.4702158198 103.958 62.4199 128.008263009 62.4199 157.958 c 4
388.042 72.4199 m 4
 388.042 102.369573649 412.092210614 126.42 442.042 126.42 c 4
 471.991808865 126.42 496.042 102.369554174 496.042 72.4199 c 4
 496.042 42.4701704399 471.991710081 18.4199 442.042 18.4199 c 4
 412.09227044 18.4199 388.042 42.4701899185 388.042 72.4199 c 4
473.58 157.958 m 4
 473.58 187.90772956 497.630289919 211.958 527.58 211.958 c 4
 557.52972956 211.958 581.58 187.907710081 581.58 157.958 c 4
 581.58 128.00827044 557.529710081 103.958 527.58 103.958 c 4
 497.63027044 103.958 473.58 128.008289919 473.58 157.958 c 4
473.58 398.042 m 4
 473.58 427.99172956 497.630289919 452.042 527.58 452.042 c 4
 557.52972956 452.042 581.58 427.991710081 581.58 398.042 c 4
 581.58 368.09227044 557.529710081 344.042 527.58 344.042 c 4
 497.63027044 344.042 473.58 368.092289919 473.58 398.042 c 4
388.042 483.58 m 4
 388.042 513.52972956 412.092289919 537.58 442.042 537.58 c 4
 471.99172956 537.58 496.042 513.529710081 496.042 483.58 c 4
 496.042 453.63027044 471.991710081 429.58 442.042 429.58 c 4
 412.09227044 429.58 388.042 453.630289919 388.042 483.58 c 4
506 278 m 4
 506 307.94972956 530.050289919 332 560 332 c 4
 589.94972956 332 614 307.949710081 614 278 c 4
 614 248.05027044 589.949710081 224 560 224 c 4
 530.05027044 224 506 248.050289919 506 278 c 4
268 40 m 4
 268 69.9497295601 292.050289919 94 322 94 c 4
 351.94972956 94 376 69.9497100815 376 40 c 4
 376 10.0502704399 351.949710081 -14 322 -14 c 4
 292.05027044 -14 268 10.0502899185 268 40 c 4
30 278 m 4
 30 307.94972956 54.0502899185 332 84 332 c 4
 113.94972956 332 138 307.949710081 138 278 c 4
 138 248.05027044 113.949710081 224 84 224 c 4
 54.0502704399 224 30 248.050289919 30 278 c 4
268 516 m 4
 268 545.94972956 292.050289919 570 322 570 c 4
 351.94972956 570 376 545.949710081 376 516 c 4
 376 486.05027044 351.949710081 462 322 462 c 4
 292.05027044 462 268 486.050289919 268 516 c 4
EndSplineSet
EndChar

StartChar: tml_A
Encoding: 3 2949 3
GlifName: tml_A_
Width: 1036
VWidth: 0
GlyphClass: 2
Flags: W
HStem: -127 122<253 264 264 401 456 607> 110 125 205 119 373 122 562 122
VStem: 50 122<45.5 100.5 45.5 130> 236 116 509 110 692 122<67 393 262 393 393 396 262 393> 773 41<262 270> 864 122<-107 578 -107 578> 864 3
LayerCount: 2
Fore
SplineSet
398 458 m 257
 398 458 274 458 274 458 c 257
 274 458 287 289 463 289 c 256
 553 289 627 346 632 409 c 256
 548 498 l 256
 548 433 508 411 463 411 c 256
 432 411 398 430 398 458 c 257
274 515 m 257
 400 515 l 257
 400 515 423 573 529 573 c 256
 651 573 692 502 692 396 c 258
 692 262 l 257
 814 262 l 257
 814 393 l 257
 814 585 709 695 529 695 c 256
 387 695 274 615 274 515 c 257
454 150 m 257
 495 150 651 150 692 150 c 257
 692 67 l 257
 692 33 673 -4 607 -5 c 258
 456 -5 l 257
 456 -127 l 256
 618 -127 l 258
 744 -127 815 -35 815 67 c 257
 814 270 l 257
 732 270 536 270 454 270 c 257
 454 150 l 257
50 72 m 256
 50 -47 141 -127 253 -127 c 258
 401 -127 l 257
 401 -5 l 257
 264 -5 l 258
 218 -5 172 19 172 72 c 256
 172 129 222 149 246 149 c 258
 400 149 l 257
 400 271 l 257
 264 271 l 258
 134 271 50 188 50 72 c 256
773 150 m 257
 866 150 l 257
 866 270 l 257
 773 270 l 257
 773 150 l 257
864 -107 m 257
 986 -107 l 257
 986 578 l 257
 864 578 l 257
 864 -107 l 257
EndSplineSet
PickledDataWithLists: "(dp1
S'com.fontlab.hintData'
p2
(dp3
S'vhints'
p4
(lp5
(dp6
S'position'
p7
L50L
sS'width'
p8
L122L
sa(dp9
g7
L236L
sg8
L116L
sa(dp10
g7
L509L
sg8
L110L
sa(dp11
g7
L692L
sg8
L122L
sa(dp12
g7
L773L
sg8
L41L
sa(dp13
g7
L864L
sg8
L122L
sa(dp14
g7
L864L
sg8
L3L
sasS'hhints'
p15
(lp16
(dp17
g7
L-127L
sg8
L122L
sa(dp18
g7
L110L
sg8
L125L
sa(dp19
g7
L205L
sg8
L119L
sa(dp20
g7
L373L
sg8
L122L
sa(dp21
g7
L562L
sg8
L122L
sass."
EndChar

StartChar: tml_Aa
Encoding: 4 2950 4
GlifName: tml_A_a
Width: 1251
VWidth: 0
GlyphClass: 2
Flags: W
HStem: -293 122 -127 122 205 119 373 122 562 122
VStem: 39 122 225 116 498 110 681 122 762 41 853 122 853 3 1073 122<-90.5 21 -66 21>
LayerCount: 2
Fore
SplineSet
683 -136 m 257
 683 -258 l 257
 980 -258 l 258
 1154 -258 1195 -174 1195 -66 c 258
 1195 21 l 258
 1195 168 1119 190 1028 190 c 257
 1028 68 l 256
 1070 68 1073 67 1073 21 c 258
 1073 -66 l 258
 1073 -115 1069 -135 1007 -135 c 258
 683 -136 l 257
EndSplineSet
Refer: 3 2949 N 1 0 0 1 0 0 2
PickledDataWithLists: "(dp1
S'com.fontlab.hintData'
p2
(dp3
S'vhints'
p4
(lp5
(dp6
S'position'
p7
L39L
sS'width'
p8
L122L
sa(dp9
g7
L225L
sg8
L116L
sa(dp10
g7
L498L
sg8
L110L
sa(dp11
g7
L681L
sg8
L122L
sa(dp12
g7
L762L
sg8
L41L
sa(dp13
g7
L853L
sg8
L122L
sa(dp14
g7
L853L
sg8
L3L
sa(dp15
g7
L1073L
sg8
L122L
sasS'hhints'
p16
(lp17
(dp18
g7
L-293L
sg8
L122L
sa(dp19
g7
L-127L
sg8
L122L
sa(dp20
g7
L205L
sg8
L119L
sa(dp21
g7
L373L
sg8
L122L
sa(dp22
g7
L562L
sg8
L122L
sass."
EndChar

StartChar: tml_Above
Encoding: 5 3064 5
GlifName: tml_A_bove
Width: 1561
VWidth: 0
GlyphClass: 2
Flags: W
LayerCount: 2
Fore
SplineSet
208 40 m 257
 232 40 253 23 253 -6 c 256
 253 -43 228 -55 208 -55 c 256
 208 -148 l 257
 292 -148 346 -82 346 -15 c 258
 346 7 l 258
 346 59 288 134 208 134 c 256
 208 40 l 257
39 7 m 258
 39 -13 l 258
 39 -85 106 -148 176 -148 c 256
 176 -55 l 257
 158 -55 133 -39 133 -6 c 256
 133 29 159 40 176 40 c 256
 176 134 l 257
 104 134 39 69 39 7 c 258
39 -5 m 256
 133 -6 l 256
 133 141 l 258
 133 239 203 267 300 267 c 258
 514 267 l 257
 514 359 l 257
 300 359 l 258
 178 359 39 311 39 142 c 258
 39 -5 l 256
EndSplineSet
Refer: 156 2999 N 1 0 0 1 303 0 2
EndChar

StartChar: tml_Ai
Encoding: 6 2960 6
GlifName: tml_A_i
Width: 963
VWidth: 0
GlyphClass: 2
Flags: W
HStem: -180 122<247 285 247 285 339 377> 158 122<715 736.5> 307 125 569 127
VStem: 39 122 54 122<-51.5 69.5 13.5 69.5 13.5 83> 301 122 460 122<-24 118 -4 118 326 464 464 480 326 413> 783 122<-21.5 118 -3 118>
LayerCount: 2
Fore
SplineSet
285 -180 m 257
 285 -58 l 257
 209 -58 176 -19 176 46 c 256
 176 93 195 157 254 157 c 258
 286 157 l 257
 286 280 l 256
 261 280 l 258
 106 280 54 164 54 83 c 258
 54 0 l 258
 54 -103 163 -180 285 -180 c 257
339 -180 m 257
 415 -180 503 -180 526 -130 c 257
 540 -174 611 -180 663 -180 c 257
 663 -57 l 257
 613 -57 582 -47 582 -4 c 258
 582 118 l 256
 460 118 l 256
 460 -4 l 258
 460 -44 430 -58 339 -58 c 257
 339 -180 l 257
42 532 m 256
 168 532 l 256
 168 570 188 603 293 603 c 256
 415 603 460 519 460 413 c 258
 460 326 l 257
 582 326 l 257
 582 410 l 257
 582 602 477 712 297 712 c 256
 155 712 42 642 42 532 c 256
715 158 m 256
 795 158 907 203 909 387 c 258
 909 461 l 257
 909 610 819 688 717 696 c 257
 717 574 l 257
 764 567 786 525 786 461 c 257
 786 430 786 389 786 389 c 258
 786 329 758 280 715 280 c 256
 715 158 l 256
231 306 m 256
 321 306 395 363 400 426 c 257
 316 515 l 256
 316 450 276 428 231 428 c 256
 200 428 169 444 166 475 c 256
 166 475 42 475 42 475 c 257
 42 475 55 306 231 306 c 256
460 326 m 257
 582 326 l 257
 582 464 l 258
 582 530 623 565 663 573 c 257
 663 696 l 257
 570 687 460 613 460 480 c 258
 460 326 l 257
717 -180 m 257
 839 -180 905 -87 905 -3 c 258
 905 118 l 257
 783 118 l 257
 783 -3 l 258
 783 -40 756 -57 717 -57 c 257
 717 -180 l 257
335 157 m 257
 656 158 l 257
 656 158 656 280 656 280 c 256
 335 280 l 257
 335 280 335 157 335 157 c 257
EndSplineSet
PickledDataWithLists: "(dp1
S'com.fontlab.hintData'
p2
(dp3
S'vhints'
p4
(lp5
(dp6
S'position'
p7
L39L
sS'width'
p8
L122L
sa(dp9
g7
L54L
sg8
L122L
sa(dp10
g7
L301L
sg8
L122L
sa(dp11
g7
L460L
sg8
L122L
sa(dp12
g7
L783L
sg8
L122L
sasS'hhints'
p13
(lp14
(dp15
g7
L-180L
sg8
L122L
sa(dp16
g7
L158L
sg8
L122L
sa(dp17
g7
L307L
sg8
L125L
sa(dp18
g7
L569L
sg8
L127L
sass."
EndChar

StartChar: tml_Anusvara
Encoding: 7 2946 7
GlifName: tml_A_nusvara
Width: 228
VWidth: 0
GlyphClass: 2
Flags: W
LayerCount: 2
Fore
SplineSet
76 851 m 256
 76 828 95 809 118 809 c 256
 141 809 160 828 160 851 c 256
 160 874 141 893 118 893 c 256
 95 893 76 874 76 851 c 256
28 851 m 256
 28 890 79 941 118 941 c 256
 157 941 208 890 208 851 c 256
 208 812 157 761 118 761 c 256
 79 761 28 812 28 851 c 256
EndSplineSet
EndChar

StartChar: tml_CI
Encoding: 10 -1 10
GlifName: tml_C_I_
Width: 923
VWidth: 0
GlyphClass: 2
Flags: HW
LayerCount: 2
Fore
SplineSet
683 686 m 257
 730 686 759 649 759 587 c 258
 759 -2 l 257
 881 -2 l 257
 881 590 l 258
 881 691 830 808 683 808 c 257
 683 686 l 257
435 588 m 257
 558 588 l 256
 558 649 582 686 629 686 c 256
 629 808 l 256
 482 808 435 692 435 588 c 257
EndSplineSet
Refer: 16 2970 N 1 0 0 1 18 0 2
EndChar

StartChar: tml_CI.alt
Encoding: 11 -1 11
GlifName: tml_C_I_.alt
Width: 972
VWidth: 0
GlyphClass: 2
Flags: W
LayerCount: 2
Fore
SplineSet
31 527 m 257
 31 527 155 527 156 527 c 256
 168 686 314 724 445 733 c 257
 445 733 l 256
 445 855 l 257
 445 855 l 257
 237 856 46 742 31 527 c 257
499 733 m 257
 601 733 810 697 810 426 c 258
 810 1 l 257
 932 1 l 257
 932 429 l 258
 931 751 699 855 499 855 c 257
 499 733 l 257
80 258 m 257
 179 351 l 257
 168 390 160 432 157 463 c 256
 159 462 30 463 30 463 c 257
 30 463 50 331 80 258 c 257
EndSplineSet
Refer: 16 2970 N 1 0 0 1 24.328 0 2
EndChar

StartChar: tml_CIi
Encoding: 12 -1 12
GlifName: tml_C_I_i
Width: 832
VWidth: 0
GlyphClass: 2
Flags: W
LayerCount: 2
Fore
SplineSet
420 473 m 257
 544 473 l 257
 544 595 l 256
 469 753 539 828 610 828 c 257
 667 828 678 794 678 779 c 256
 678 758 667 739 644 739 c 256
 619 739 610 756 610 772 c 256
 539 689 l 257
 549 668 596 630 641 630 c 256
 840 630 848 943 620 943 c 256
 417 943 346 755 420 596 c 256
 420 473 l 257
EndSplineSet
Refer: 16 2970 N 1 0 0 1 1 0 2
EndChar

StartChar: tml_CIi.alt
Encoding: 13 -1 13
GlifName: tml_C_I_i.alt
Width: 825
VWidth: 0
GlyphClass: 2
Flags: W
LayerCount: 2
Fore
SplineSet
96 267 m 257
 195 360 l 257
 130 587 173 725 306 791 c 256
 369 822 475 859 589 828 c 256
 644 813 652 785 652 770 c 256
 652 749 641 730 618 730 c 256
 593 730 584 747 584 763 c 256
 530 665 l 257
 566 623 606 614 651 614 c 256
 736 614 787 696 785 770 c 256
 783 865 704 945 579 960 c 257
 442 976 351 957 246 900 c 256
 88 814 -37 595 96 267 c 257
EndSplineSet
Refer: 16 2970 N 1 0 0 1 31.026 0 2
EndChar

StartChar: tml_CU
Encoding: 14 -1 14
GlifName: tml_C_U_
Width: 809
VWidth: 0
GlyphClass: 2
Flags: W
HStem: -1 123<230 270 230 270 323 356 230 406.5> 249 62<624 747 624 786 624 786> 348 23<190.5 236 236 287 287 287> 470 122
VStem: 40 121 165 163<348 595 473 589 473 595 473 595> 165 122<348 348 348 589> 420 122<164 591 191 591 191 591> 596 160 606 122
LayerCount: 2
Fore
SplineSet
40 211 m 257
 40 211 162 211 162 211 c 256
 167 242 186 249 239 249 c 258
 556 249 l 257
 556 371 l 257
 236 371 l 258
 145 371 40 325 40 211 c 257
323 -1 m 257
 490 -1 542 95 542 191 c 258
 542 591 l 257
 420 591 l 257
 420 187 l 258
 420 141 389 122 323 122 c 257
 323 -1 l 257
270 -1 m 257
 270 122 l 257
 190 122 166 126 162 171 c 256
 162 171 40 171 40 171 c 257
 40 69 103 -1 270 -1 c 257
165 348 m 257
 287 348 l 257
 288 589 l 257
 165 589 l 257
 165 348 l 257
165 473 m 257
 328 473 l 257
 328 595 l 257
 165 595 l 257
 165 473 l 257
382 473 m 257
 694 473 l 257
 694 595 l 257
 382 595 l 257
 382 473 l 257
624 0 m 257
 747 0 l 257
 747 311 l 257
 624 311 l 257
 624 0 l 257
611 249 m 257
 786 249 l 257
 786 371 l 257
 611 371 l 257
 611 249 l 257
EndSplineSet
PickledDataWithLists: "(dp1
S'com.fontlab.hintData'
p2
(dp3
S'vhints'
p4
(lp5
(dp6
S'position'
p7
L40L
sS'width'
p8
L121L
sa(dp9
g7
L165L
sg8
L163L
sa(dp10
g7
L165L
sg8
L122L
sa(dp11
g7
L420L
sg8
L122L
sa(dp12
g7
L596L
sg8
L160L
sa(dp13
g7
L606L
sg8
L122L
sasS'hhints'
p14
(lp15
(dp16
g7
L-1L
sg8
L123L
sa(dp17
g7
L249L
sg8
L62L
sa(dp18
g7
L348L
sg8
L23L
sa(dp19
g7
L470L
sg8
L122L
sass."
EndChar

StartChar: tml_CUu
Encoding: 15 -1 15
GlifName: tml_C_U_u
Width: 1245
VWidth: 0
GlyphClass: 2
Flags: W
HStem: -198 122 -1 123<481 519 481 519 572 605 481 655.5> 249 62<855 978 855 1035 855 1035> 348 23 360 122<216 252 209.5 253> 470 122
VStem: 123 123 289 121 414 163<348 595 473 589 473 595 473 595> 414 122<348 348 348 589> 669 122<164 591 191 591 191 591> 855 122 1072 122<-18 6 6 47>
LayerCount: 2
Fore
SplineSet
563 -208 m 257
 563 -86 l 257
 263 -86 l 258
 199 -86 176 -36 176 28 c 258
 176 268 l 258
 176 304 179 360 253 360 c 256
 252 482 l 256
 167 482 53 435 53 272 c 258
 53 29 l 258
 53 -110 118 -207 247 -207 c 258
 563 -208 l 257
618 -208 m 257
 1008 -209 l 258
 1134 -209 1194 -112 1194 -45 c 258
 1194 65 l 258
 1194 183 1154 215 1031 215 c 257
 1031 94 l 257
 1052 94 1072 97 1072 47 c 258
 1072 6 l 258
 1072 -42 1043 -86 1007 -86 c 258
 618 -86 l 257
 618 -208 l 257
290 207 m 257
 411 207 l 256
 411 240 435 249 488 249 c 258
 1035 249 l 257
 1035 362 l 257
 506 362 l 258
 321 362 291 306 290 207 c 257
572 -1 m 257
 739 -1 791 95 791 191 c 258
 791 591 l 257
 669 591 l 257
 669 187 l 258
 669 141 638 122 572 122 c 257
 572 -1 l 257
519 -1 m 257
 519 122 l 257
 443 122 412 124 412 164 c 256
 412 164 289 164 289 164 c 257
 289 69 356 -1 519 -1 c 257
414 348 m 257
 536 348 l 257
 537 589 l 257
 414 589 l 257
 414 348 l 257
414 473 m 257
 577 473 l 257
 577 595 l 257
 414 595 l 257
 414 473 l 257
631 473 m 257
 943 473 l 257
 943 595 l 257
 631 595 l 257
 631 473 l 257
855 0 m 257
 978 0 l 257
 978 311 l 257
 855 311 l 257
 855 0 l 257
EndSplineSet
PickledDataWithLists: "(dp1
S'com.fontlab.hintData'
p2
(dp3
S'vhints'
p4
(lp5
(dp6
S'position'
p7
L123L
sS'width'
p8
L123L
sa(dp9
g7
L289L
sg8
L121L
sa(dp10
g7
L414L
sg8
L163L
sa(dp11
g7
L414L
sg8
L122L
sa(dp12
g7
L669L
sg8
L122L
sa(dp13
g7
L855L
sg8
L122L
sa(dp14
g7
L1072L
sg8
L122L
sasS'hhints'
p15
(lp16
(dp17
g7
L-198L
sg8
L122L
sa(dp18
g7
L-1L
sg8
L123L
sa(dp19
g7
L249L
sg8
L62L
sa(dp20
g7
L348L
sg8
L23L
sa(dp21
g7
L360L
sg8
L122L
sa(dp22
g7
L470L
sg8
L122L
sass."
EndChar

StartChar: tml_Ca
Encoding: 16 2970 16
GlifName: tml_C_a
Width: 744
VWidth: 0
GlyphClass: 2
Flags: W
HStem: -1 123 249 122<238 643> 348 23<190 235 235 286 286 286> 470 125 470 118<164 541 327 541 419 541 419 688>
VStem: 39 121<145.5 163 145.5 163 145.5 269> 164 163<348 589 470 586 470 589 470 589> 164 122<348 348 348 586> 419 122<164 588 191 588 191 588>
AnchorPoint: "tml_virama" 372 -1 basechar 0
LayerCount: 2
Fore
SplineSet
164 348 m 257
 286 348 l 257
 287 586 l 257
 164 586 l 257
 164 348 l 257
278 -1 m 257
 278 121 l 257
 195 121 160 128 160 163 c 256
 39 163 l 257
 39 68 94 0 278 -1 c 257
331 -1 m 257
 498 -1 541 95 541 191 c 258
 541 588 l 257
 419 588 l 257
 419 187 l 258
 419 141 397 121 331 121 c 257
 331 -1 l 257
381 470 m 257
 688 470 l 257
 688 589 l 257
 381 589 l 257
 381 470 l 257
164 470 m 257
 327 470 l 257
 327 589 l 257
 164 589 l 257
 164 470 l 257
39 213 m 257
 39 213 161 213 161 213 c 256
 161 242 180 249 238 249 c 258
 643 249 l 257
 643 371 l 257
 235 371 l 258
 145 371 39 325 39 213 c 257
EndSplineSet
PickledDataWithLists: "(dp1
S'com.fontlab.hintData'
p2
(dp3
S'vhints'
p4
(lp5
(dp6
S'position'
p7
L39L
sS'width'
p8
L121L
sa(dp9
g7
L164L
sg8
L163L
sa(dp10
g7
L164L
sg8
L122L
sa(dp11
g7
L419L
sg8
L122L
sasS'hhints'
p12
(lp13
(dp14
g7
L-1L
sg8
L123L
sa(dp15
g7
L249L
sg8
L122L
sa(dp16
g7
L348L
sg8
L23L
sa(dp17
g7
L470L
sg8
L125L
sa(dp18
g7
L470L
sg8
L118L
sass."
EndChar

StartChar: tml_Credit
Encoding: 17 3063 17
GlifName: tml_C_redit
Width: 1140
VWidth: 0
GlyphClass: 2
Flags: W
LayerCount: 2
Fore
SplineSet
835 268 m 257
 878 268 909 235 910 197 c 257
 910 81 l 258
 910 71 896 70 892 69 c 257
 892 1 l 257
 1004 1 l 257
 1004 69 l 257
 977 69 l 257
 977 197 l 257
 976 259 929 336 835 336 c 257
 835 268 l 257
39 149 m 258
 39 96 108 1 210 1 c 256
 210 123 l 257
 180 123 163 145 163 182 c 256
 163 218 181 238 210 238 c 256
 210 360 l 257
 160 360 38 325 39 221 c 258
 39 149 l 258
265 1 m 257
 364 1 439 86 439 148 c 258
 439 220 l 258
 439 281 364 360 265 360 c 256
 265 238 l 257
 305 238 316 216 317 182 c 256
 318 146 299 123 265 123 c 256
 265 1 l 257
662 84 m 258
 662 51 701 0 757 0 c 256
 757 68 l 257
 739 68 731 81 731 100 c 256
 731 120 741 132 757 132 c 256
 757 200 l 257
 729 200 662 180 662 122 c 258
 662 84 l 258
788 0 m 257
 848 0 881 50 881 85 c 258
 881 124 l 258
 881 153 841 200 788 200 c 256
 788 132 l 257
 805 132 814 121 814 100 c 256
 814 79 806 68 788 68 c 257
 788 0 l 257
39 228 m 257
 45 258 165 272 170 329 c 256
 177 406 217 472 304 472 c 257
 304 595 l 257
 101 595 39 396 39 281 c 258
 39 228 l 257
662 125 m 257
 737 197 l 256
 738 244 770 268 806 268 c 257
 806 336 l 257
 690 336 662 240 662 169 c 257
 662 125 l 257
484 0 m 257
 606 0 l 257
 606 577 l 257
 484 577 l 257
 484 0 l 257
359 472 m 257
 707 472 l 257
 707 595 l 257
 359 595 l 257
 359 472 l 257
584 132 m 257
 692 132 l 257
 692 199 l 257
 584 199 l 257
 584 132 l 257
1034 1 m 257
 1102 1 l 257
 1102 330 l 257
 1034 330 l 257
 1034 1 l 257
EndSplineSet
EndChar

StartChar: tml_Day
Encoding: 18 3059 18
GlifName: tml_D_ay
Width: 972
VWidth: 0
GlyphClass: 2
Flags: W
LayerCount: 2
Fore
SplineSet
266 0 m 257
 375 0 436 89 435 152 c 258
 435 224 l 258
 435 298 362 359 266 359 c 256
 266 237 l 257
 297 237 313 218 313 180 c 256
 313 142 298 123 266 122 c 257
 266 0 l 257
39 151 m 258
 39 72 96 0 211 0 c 256
 211 122 l 257
 178 122 164 147 164 181 c 256
 164 218 182 237 211 237 c 256
 211 359 l 257
 161 359 38 324 39 220 c 258
 39 151 l 258
39 226 m 257
 175 354 l 256
 177 439 236 483 300 483 c 257
 300 605 l 257
 90 605 39 433 39 305 c 257
 39 226 l 257
351 483 m 257
 428 483 486 423 487 354 c 257
 487 146 l 258
 487 127 461 124 454 123 c 257
 454 0 l 257
 934 0 l 257
 934 123 l 257
 608 123 l 257
 608 355 l 257
 607 466 520 605 351 605 c 257
 351 483 l 257
EndSplineSet
EndChar

StartChar: tml_Debit
Encoding: 19 3062 19
GlifName: tml_D_ebit
Width: 706
VWidth: 0
GlyphClass: 2
Flags: W
LayerCount: 2
Fore
SplineSet
255 -164 m 257
 255 -258 l 257
 419 -258 423 -159 423 -81 c 258
 423 18 l 256
 423 239 l 256
 301 239 l 257
 301 21 l 257
 301 -81 l 258
 301 -126 306 -164 255 -164 c 257
39 -126 m 258
 39 -159 l 258
 40 -254 156 -258 189 -258 c 258
 202 -258 l 257
 202 -164 l 257
 189 -164 l 258
 151 -164 150 -121 190 -121 c 258
 667 -121 l 257
 667 381 l 256
 545 381 l 256
 545 -28 l 257
 190 -28 l 258
 102 -28 39 -57 39 -126 c 258
48 146 m 258
 48 68 102 0 202 0 c 257
 202 119 l 257
 176 119 170 132 170 146 c 258
 170 595 l 257
 48 595 l 257
 48 146 l 258
256 0 m 257
 351 0 423 -10 423 145 c 258
 423 487 l 257
 301 487 l 257
 301 145 l 258
 301 126 280 119 256 119 c 257
 256 0 l 257
EndSplineSet
EndChar

StartChar: tml_E
Encoding: 20 2958 20
GlifName: tml_E_
Width: 761
VWidth: 0
GlyphClass: 2
Flags: W
HStem: 1 122<214 229 214 229 284 301 214 333.5> 238 122<214.5 229 284 304> 472 123<279.5 323 378 736> 472 105<503 625 503 736>
VStem: 58 171<1 179 1 221 238 281 1 228> 58 131 58 124<163.5 179 179 200 163.5 221 163.5 281 163.5 228> 336 122 503 122<0 577 0 577>
LayerCount: 2
Fore
SplineSet
58 179 m 258
 58 69 127 1 229 1 c 256
 229 123 l 257
 199 123 182 145 182 182 c 256
 182 218 200 238 229 238 c 256
 229 360 l 257
 179 360 57 325 58 221 c 258
 58 179 l 258
284 1 m 257
 383 1 458 86 458 148 c 258
 458 220 l 258
 458 310 399 360 284 360 c 256
 284 238 l 257
 324 238 335 216 336 182 c 256
 337 146 318 123 284 123 c 256
 284 1 l 257
58 228 m 257
 64 258 184 272 189 329 c 256
 196 406 236 472 323 472 c 257
 323 595 l 257
 120 595 58 396 58 281 c 258
 58 228 l 257
503 0 m 257
 625 0 l 257
 625 577 l 257
 503 577 l 257
 503 0 l 257
378 472 m 257
 736 472 l 257
 736 595 l 257
 378 595 l 257
 378 472 l 257
EndSplineSet
PickledDataWithLists: "(dp1
S'com.fontlab.hintData'
p2
(dp3
S'vhints'
p4
(lp5
(dp6
S'position'
p7
L58L
sS'width'
p8
L171L
sa(dp9
g7
L58L
sg8
L131L
sa(dp10
g7
L58L
sg8
L124L
sa(dp11
g7
L336L
sg8
L122L
sa(dp12
g7
L503L
sg8
L122L
sasS'hhints'
p13
(lp14
(dp15
g7
L1L
sg8
L122L
sa(dp16
g7
L238L
sg8
L122L
sa(dp17
g7
L472L
sg8
L123L
sa(dp18
g7
L472L
sg8
L105L
sass."
EndChar

StartChar: tml_Ee
Encoding: 21 2959 21
GlifName: tml_E_e
Width: 761
VWidth: 0
GlyphClass: 2
Flags: W
HStem: 1 122 238 123 472 105 472 123
VStem: 58 124 58 131 58 171 336 123 503 123<1 577 1 32> 503 123<1 577 1 32>
LayerCount: 2
Fore
SplineSet
334 -176 m 257
 478 -176 l 257
 626 1 l 256
 628 577 l 257
 503 577 l 257
 503 32 l 257
 334 -176 l 257
EndSplineSet
Refer: 20 2958 N 1 0 0 1 0 0 2
PickledDataWithLists: "(dp1
S'com.fontlab.hintData'
p2
(dp3
S'vhints'
p4
(lp5
(dp6
S'position'
p7
L58L
sS'width'
p8
L124L
sa(dp9
g7
L58L
sg8
L131L
sa(dp10
g7
L58L
sg8
L171L
sa(dp11
g7
L336L
sg8
L123L
sa(dp12
g7
L503L
sg8
L123L
sa(dp13
g7
L503L
sg8
L123L
sasS'hhints'
p14
(lp15
(dp16
g7
L1L
sg8
L122L
sa(dp17
g7
L238L
sg8
L123L
sa(dp18
g7
L472L
sg8
L105L
sa(dp19
g7
L472L
sg8
L123L
sass."
EndChar

StartChar: tml_Four
Encoding: 24 3050 24
GlifName: tml_F_our
Width: 908
VWidth: 0
GlyphClass: 2
Flags: W
LayerCount: 2
Fore
SplineSet
39 157 m 258
 39 68 112 0 269 -1 c 257
 269 122 l 257
 180 122 160 127 160 188 c 256
 160 239 174 249 238 249 c 258
 856 249 l 257
 856 371 l 257
 235 371 l 258
 149 371 39 326 39 218 c 258
 39 157 l 258
322 -1 m 257
 489 -1 541 95 541 191 c 258
 541 588 l 257
 419 588 l 257
 419 187 l 258
 419 141 388 122 322 122 c 257
 322 -1 l 257
164 348 m 257
 286 348 l 257
 287 586 l 257
 164 586 l 257
 164 348 l 257
164 470 m 257
 327 470 l 257
 327 595 l 257
 164 595 l 257
 164 470 l 257
381 470 m 257
 688 470 l 257
 688 595 l 257
 381 595 l 257
 381 470 l 257
742 249 m 257
 864 249 l 257
 865 487 l 257
 742 487 l 257
 742 249 l 257
EndSplineSet
EndChar

StartChar: tml_HI
Encoding: 25 -1 25
GlifName: tml_H_I_
Width: 1649
VWidth: 0
GlyphClass: 2
Flags: W
LayerCount: 2
Fore
SplineSet
1420 801 m 257
 1420 679 l 257
 1473 679 1468 642 1468 580 c 258
 1468 0 l 257
 1590 0 l 257
 1590 583 l 258
 1590 686 1573 801 1420 801 c 257
1317 531 m 257
 1317 581 l 257
 1317 642 1317 679 1366 679 c 256
 1366 801 l 257
 1230 801 1194 729 1194 581 c 257
 1317 531 l 257
EndSplineSet
Refer: 29 3001 N 1 0 0 1 17 0 2
EndChar

StartChar: tml_HIi
Encoding: 26 -1 26
GlifName: tml_H_I_i
Width: 1415
VWidth: 0
GlyphClass: 2
Flags: W
LayerCount: 2
Fore
SplineSet
1186 523 m 257
 1310 523 l 257
 1310 557 l 257
 1229 760 1305 834 1376 834 c 257
 1433 834 1444 800 1444 785 c 256
 1444 764 1433 745 1410 745 c 256
 1385 745 1376 762 1376 778 c 256
 1305 695 l 257
 1315 674 1362 636 1407 636 c 256
 1606 636 1614 949 1386 949 c 256
 1183 949 1107 767 1186 558 c 257
 1186 523 l 257
EndSplineSet
Refer: 29 3001 N 1 0 0 1 9 0 2
EndChar

StartChar: tml_HU
Encoding: 27 -1 27
GlifName: tml_H_U_
Width: 1766
VWidth: 0
GlyphClass: 2
Flags: W
LayerCount: 2
Fore
SplineSet
1177 482 m 257
 1521 482 l 258
 1577 481 1610 471 1610 433 c 256
 1610 415 1599 401 1576 401 c 256
 1554 401 1542 414 1542 434 c 256
 1420 434 l 257
 1420 349 1491 279 1560 279 c 258
 1589 279 l 258
 1644 279 1732 330 1732 434 c 258
 1732 444 l 258
 1732 577 1639 605 1528 606 c 258
 1177 606 l 257
 1177 482 l 257
EndSplineSet
Refer: 29 3001 N 1 0 0 1 0 0 2
EndChar

StartChar: tml_HUu
Encoding: 28 -1 28
GlifName: tml_H_U_u
Width: 1899
VWidth: 0
GlyphClass: 2
Flags: W
LayerCount: 2
Fore
SplineSet
1177 482 m 257
 1497 482 l 258
 1553 482 1586 475 1586 437 c 256
 1586 419 1575 405 1552 405 c 256
 1530 405 1518 418 1518 438 c 256
 1396 438 l 257
 1396 353 1467 283 1536 283 c 258
 1565 283 l 258
 1620 283 1708 334 1708 438 c 258
 1708 448 l 258
 1708 581 1612 604 1501 604 c 258
 1177 604 l 257
 1177 482 l 257
1397 604 m 256
 1519 604 l 257
 1519 670 1588 683 1626 683 c 256
 1665 683 1736 668 1736 608 c 258
 1736 284 l 258
 1736 249 1718 226 1680 226 c 258
 1621 226 l 256
 1621 134 l 256
 1680 134 l 258
 1785 134 1859 179 1859 284 c 258
 1859 608 l 258
 1859 713 1772 805 1626 805 c 256
 1494 805 1397 714 1397 604 c 256
EndSplineSet
Refer: 29 3001 N 1 0 0 1 0 0 2
EndChar

StartChar: tml_Ha
Encoding: 29 3001 29
GlifName: tml_H_a
Width: 1409
VWidth: 0
GlyphClass: 2
Flags: W
HStem: -210 122 0 123<618 665> 237 122<206.5 221 276 297> 474 122<274.5 307 361 399.5> 481 123<859.5 872 926 939>
VStem: 49 172<121 122 0 172 0 220 237 282 0 226> 49 125<165 172 165 195.5 165 220 165 282 165 226> 102 122<-311 -274.5 -311 -234.5> 322 123 464 201<0 123 0 123> 497 121<136.5 146 146 354> 719 124<0 456 0 456 456 462.5 0 477> 965 123<0 0 0 457 -1 0> 1220 122<2 217 70 217 70 272 272 458>
AnchorPoint: "tml_virama" 1021 0 basechar 0
LayerCount: 2
Fore
SplineSet
1220 272 m 257
 1342 272 l 257
 1342 473 l 258
 1341 528 1290 604 1177 604 c 257
 1177 482 l 257
 1199 482 1220 479 1220 458 c 258
 1220 272 l 257
361 474 m 257
 438 474 496 424 497 354 c 257
 497 146 l 258
 497 127 471 124 464 123 c 257
 464 0 l 257
 665 0 l 257
 665 123 l 257
 618 123 l 257
 618 355 l 257
 617 482 530 596 361 596 c 257
 361 474 l 257
926 481 m 257
 952 481 965 471 965 457 c 258
 965 -1 l 257
 1088 0 l 257
 1085 457 l 258
 1085 479 1107 482 1125 482 c 257
 1125 604 l 257
 1086 604 1054 597 1026 574 c 257
 1002 595 972 604 926 604 c 257
 926 481 l 257
49 151 m 256
 49 91 119 0 221 0 c 256
 221 122 l 257
 188 122 174 149 174 181 c 256
 174 210 192 237 221 237 c 256
 221 359 l 257
 171 359 48 324 49 220 c 256
 50 140 49 193 49 151 c 256
276 0 m 257
 385 0 446 89 445 152 c 258
 445 224 l 258
 445 276 372 359 276 359 c 256
 276 237 l 257
 318 237 321 208 322 181 c 256
 323 150 317 122 276 122 c 256
 276 0 l 257
719 0 m 257
 843 0 l 257
 843 456 l 258
 843 469 847 481 872 481 c 257
 872 604 l 257
 760 604 719 527 719 477 c 258
 719 0 l 257
49 226 m 257
 55 256 180 299 185 356 c 256
 192 432 242 474 307 474 c 257
 307 596 l 257
 79 596 49 375 49 282 c 258
 49 226 l 257
1342 217 m 257
 1220 217 l 257
 1220 70 l 258
 1220 -66 1194 -98 1122 -98 c 256
 960 -98 400 -98 308 -98 c 256
 152 -98 102 -158 102 -311 c 257
 224 -311 l 257
 224 -238 239 -210 282 -210 c 258
 1149 -210 l 258
 1293 -210 1342 -118 1342 70 c 258
 1342 217 l 257
EndSplineSet
PickledDataWithLists: "(dp1
S'com.fontlab.hintData'
p2
(dp3
S'vhints'
p4
(lp5
(dp6
S'position'
p7
L49L
sS'width'
p8
L172L
sa(dp9
g7
L49L
sg8
L125L
sa(dp10
g7
L102L
sg8
L122L
sa(dp11
g7
L322L
sg8
L123L
sa(dp12
g7
L464L
sg8
L201L
sa(dp13
g7
L497L
sg8
L121L
sa(dp14
g7
L719L
sg8
L124L
sa(dp15
g7
L965L
sg8
L123L
sa(dp16
g7
L1220L
sg8
L122L
sasS'hhints'
p17
(lp18
(dp19
g7
L-210L
sg8
L122L
sa(dp20
g7
L0L
sg8
L123L
sa(dp21
g7
L237L
sg8
L122L
sa(dp22
g7
L474L
sg8
L122L
sa(dp23
g7
L481L
sg8
L123L
sass."
EndChar

StartChar: tml_Hundred
Encoding: 30 3057 30
GlifName: tml_H_undred
Width: 844
VWidth: 0
GlyphClass: 2
Flags: W
LayerCount: 2
Fore
SplineSet
581 0 m 257
 703 0 l 256
 703 511 l 256
 581 511 l 257
 581 0 l 257
498 483 m 257
 806 483 l 257
 806 606 l 257
 498 606 l 257
 498 483 l 257
39 0 m 257
 163 0 l 257
 160 458 l 258
 160 471 166 483 191 483 c 257
 191 606 l 257
 79 606 39 529 39 479 c 258
 39 0 l 257
245 483 m 257
 271 483 282 472 282 458 c 258
 285 0 l 257
 407 0 l 257
 405 459 l 258
 405 481 426 484 444 484 c 257
 444 606 l 257
 405 606 373 599 345 576 c 257
 321 597 291 606 245 606 c 257
 245 483 l 257
EndSplineSet
EndChar

StartChar: tml_I
Encoding: 31 2951 31
GlifName: tml_I_
Width: 1194
VWidth: 0
GlyphClass: 2
Flags: W
HStem: -178 240 -178 122<252 264 574 724> 100 119<572 809 788.5 809 931 950.5> 238 122<565.5 603.5 565.5 626> 522 123 780 123
VStem: 61 122<-5.5 49.5 -5.5 79> 389 122 809 122<0 219 17 219> 1018 119<2 36 36 54> 1020 152
LayerCount: 2
Fore
SplineSet
518 -177 m 257
 518 -56 l 257
 275 -56 l 258
 229 -56 183 -32 183 21 c 256
 183 78 233 99 257 99 c 258
 517 99 l 257
 517 221 l 257
 275 221 l 258
 145 221 61 137 61 21 c 256
 61 -98 152 -178 264 -178 c 258
 518 -177 l 257
574 -178 m 256
 736 -178 l 258
 862 -178 932 -85 932 17 c 257
 931 219 l 257
 849 219 654 219 572 219 c 257
 572 100 l 257
 613 100 768 100 809 100 c 257
 809 17 l 257
 809 -17 790 -55 724 -56 c 258
 574 -56 l 257
 574 -178 l 256
392 464 m 256
 518 464 l 257
 518 464 541 552 647 552 c 256
 769 552 810 451 810 345 c 258
 810 261 l 257
 932 261 l 257
 932 342 l 257
 932 534 827 674 647 674 c 256
 505 674 392 564 392 464 c 256
897 -169 m 257
 1049 -188 1137 -85 1137 2 c 257
 1137 36 l 258
 1137 149 1070 219 931 219 c 257
 931 100 l 257
 970 100 1018 84 1018 24 c 256
 1018 -22 1000 -37 954 -49 c 257
 897 -169 l 257
623 779 m 257
 623 902 l 257
 350 903 178 683 176 356 c 256
 176 281 185 201 203 116 c 257
 350 134 l 257
 322 209 308 291 308 370 c 256
 308 598 410 779 623 779 c 257
392 407 m 257
 392 407 405 238 581 238 c 256
 671 238 745 295 750 358 c 256
 666 447 l 256
 666 382 626 360 581 360 c 256
 550 360 516 370 516 407 c 256
 392 407 l 257
231 61 m 257
 267 -27 304 -54 366 -119 c 256
 487 -64 l 257
 411 -30 383 13 361 63 c 257
 231 61 l 257
675 778 m 256
 954 778 1010 656 1010 286 c 257
 1136 284 l 257
 1136 750 1016 902 675 902 c 257
 675 778 l 256
EndSplineSet
PickledDataWithLists: "(dp1
S'com.fontlab.hintData'
p2
(dp3
S'vhints'
p4
(lp5
(dp6
S'position'
p7
L61L
sS'width'
p8
L122L
sa(dp9
g7
L389L
sg8
L122L
sa(dp10
g7
L809L
sg8
L122L
sa(dp11
g7
L1018L
sg8
L119L
sa(dp12
g7
L1020L
sg8
L152L
sasS'hhints'
p13
(lp14
(dp15
g7
L-178L
sg8
L240L
sa(dp16
g7
L-178L
sg8
L122L
sa(dp17
g7
L100L
sg8
L119L
sa(dp18
g7
L238L
sg8
L122L
sa(dp19
g7
L522L
sg8
L123L
sa(dp20
g7
L780L
sg8
L123L
sass."
EndChar

StartChar: tml_Ii
Encoding: 32 2952 32
GlifName: tml_I_i
Width: 629
VWidth: 0
GlyphClass: 2
Flags: W
HStem: 1 21<39 161 161 161> 187 125<223 257> 473 123
VStem: 39 178<473 592 473 595 473 595> 39 122<1 593 1 592 473 593 1 595 473 473> 178 125<232 266> 466 125<231 265>
LayerCount: 2
Fore
SplineSet
466 248 m 256
 466 214 494 186 528 186 c 256
 562 186 591 214 591 248 c 256
 591 282 562 311 528 311 c 256
 494 311 466 282 466 248 c 256
178 249 m 256
 178 215 206 187 240 187 c 256
 274 187 303 215 303 249 c 256
 303 283 274 312 240 312 c 256
 206 312 178 283 178 249 c 256
323 0 m 257
 445 0 l 257
 445 593 l 257
 323 593 l 257
 323 0 l 257
39 1 m 257
 161 1 l 257
 161 593 l 257
 39 592 l 257
 39 1 l 257
271 473 m 257
 587 473 l 257
 587 595 l 257
 271 595 l 257
 271 473 l 257
39 473 m 257
 217 473 l 257
 217 595 l 257
 39 595 l 257
 39 473 l 257
EndSplineSet
PickledDataWithLists: "(dp1
S'com.fontlab.hintData'
p2
(dp3
S'vhints'
p4
(lp5
(dp6
S'position'
p7
L39L
sS'width'
p8
L178L
sa(dp9
g7
L39L
sg8
L122L
sa(dp10
g7
L178L
sg8
L125L
sa(dp11
g7
L466L
sg8
L125L
sasS'hhints'
p12
(lp13
(dp14
g7
L1L
sg8
L21L
sa(dp15
g7
L187L
sg8
L125L
sa(dp16
g7
L473L
sg8
L123L
sass."
EndChar

StartChar: tml_JI
Encoding: 33 -1 33
GlifName: tml_J_I_
Width: 1129
VWidth: 0
GlyphClass: 2
Flags: HW
LayerCount: 2
Fore
SplineSet
286 -180 m 261
 286 -58 l 261
 210 -58 177 -19 177 46 c 260
 177 93 196 158 255 158 c 262
 736 158 l 262
 816 158 908 218 910 387 c 262
 910 448 l 261
 910 597 826 686 679 686 c 261
 560 686 461 601 461 468 c 262
 461 371 l 261
 583 371 l 261
 583 451 l 262
 583 517 618 561 679 561 c 261
 740 561 786 533 786 448 c 261
 786 409 l 262
 786 349 793 281 718 281 c 262
 262 280 l 262
 125 280 55 164 55 83 c 262
 55 11 l 262
 55 -92 164 -180 286 -180 c 261
40 471 m 262
 40 402 119 307 206 307 c 261
 206 431 l 261
 183 439 162 466 162 499 c 260
 162 538 193 569 232 569 c 260
 271 569 302 538 302 499 c 260
 302 467 282 440 260 432 c 261
 260 307 l 261
 342 307 424 410 424 471 c 262
 424 499 l 262
 424 588 342 700 229 686 c 260
 136 674 41 581 41 496 c 262
 40 471 l 262
40 472 m 261
 159 483 l 261
 159 587 263 582 304 582 c 260
 352 582 461 543 461 408 c 262
 461 320 l 261
 583 320 l 261
 583 408 l 262
 583 612 446 696 301 696 c 261
 72 696 40 537 40 482 c 262
 40 472 l 261
347 -55 m 261
 347 -178 l 261
 463 -178 528 -108 529 -59 c 260
 531 13 556 17 580 16 c 261
 664 16 l 261
 664 140 l 261
 598 140 l 261
 501 140 412 90 410 -1 c 260
 409 -50 387 -55 347 -55 c 261
620 669 m 261
 743 669 l 260
 743 730 783 767 827 767 c 269
 827 889 l 277
 678 889 620 773 620 669 c 261
619 -55 m 260
 619 -177 l 260
 774 -177 904 -151 904 -16 c 260
 904 97 805 140 718 140 c 261
 718 16 l 261
 758 15 782 7 782 -14 c 260
 782 -60 682 -55 619 -55 c 260
881 767 m 261
 928 767 967 730 967 668 c 262
 967 1 l 261
 1089 1 l 261
 1089 671 l 262
 1089 774 1032 889 881 889 c 261
 881 767 l 261
EndSplineSet
EndChar

StartChar: tml_JIi
Encoding: 34 -1 34
GlifName: tml_J_I_i
Width: 1033
VWidth: 0
GlyphClass: 2
Flags: W
LayerCount: 2
Fore
SplineSet
286 -180 m 257
 286 -58 l 257
 210 -58 177 -19 177 46 c 256
 177 93 196 158 255 158 c 258
 736 158 l 258
 816 158 908 218 910 387 c 258
 910 448 l 257
 910 597 826 686 679 686 c 257
 560 686 461 601 461 468 c 258
 461 371 l 257
 583 371 l 257
 583 451 l 258
 583 517 618 561 679 561 c 257
 740 561 786 533 786 448 c 257
 786 409 l 258
 786 349 793 281 718 281 c 258
 262 280 l 258
 125 280 55 164 55 83 c 258
 55 11 l 258
 55 -92 164 -180 286 -180 c 257
40 471 m 258
 40 402 119 307 206 307 c 257
 206 431 l 257
 183 439 162 466 162 499 c 256
 162 538 193 569 232 569 c 256
 271 569 302 538 302 499 c 256
 302 467 282 440 260 432 c 257
 260 307 l 257
 342 307 424 410 424 471 c 258
 424 499 l 258
 424 588 342 700 229 686 c 256
 136 674 41 581 41 496 c 258
 40 471 l 258
623 598 m 257
 747 598 l 257
 747 676 l 256
 672 834 742 909 813 909 c 257
 870 909 881 875 881 860 c 256
 881 839 870 820 847 820 c 256
 822 820 813 837 813 853 c 256
 742 770 l 257
 752 749 799 711 844 711 c 256
 1043 711 1051 1024 823 1024 c 256
 620 1024 549 836 623 677 c 256
 623 598 l 257
40 472 m 257
 159 483 l 257
 159 587 263 582 304 582 c 256
 352 582 461 543 461 408 c 258
 461 320 l 257
 583 320 l 257
 583 408 l 258
 583 612 446 696 301 696 c 257
 72 696 40 537 40 482 c 258
 40 472 l 257
347 -55 m 257
 347 -178 l 257
 463 -178 528 -108 529 -59 c 256
 531 13 556 17 580 16 c 257
 664 16 l 257
 664 140 l 257
 598 140 l 257
 501 140 412 90 410 -1 c 256
 409 -50 387 -55 347 -55 c 257
619 -55 m 256
 619 -177 l 256
 774 -177 904 -151 904 -16 c 256
 904 97 805 140 718 140 c 257
 718 16 l 257
 758 15 782 7 782 -14 c 256
 782 -60 682 -55 619 -55 c 256
EndSplineSet
EndChar

StartChar: tml_JU
Encoding: 35 -1 35
GlifName: tml_J_U_
Width: 1316
VWidth: 0
GlyphClass: 2
Flags: W
LayerCount: 2
Fore
SplineSet
718 560 m 257
 1065 560 l 258
 1121 559 1154 549 1154 511 c 256
 1154 493 1143 479 1120 479 c 256
 1098 479 1086 492 1086 512 c 256
 964 512 l 257
 964 427 1035 357 1104 357 c 258
 1133 357 l 258
 1188 357 1276 408 1276 512 c 258
 1276 522 l 258
 1276 655 1180 683 1069 684 c 258
 718 684 l 257
 718 560 l 257
EndSplineSet
Refer: 37 2972 N 1 0 0 1 0 0 2
EndChar

StartChar: tml_JUu
Encoding: 36 -1 36
GlifName: tml_J_U_u
Width: 1467
VWidth: 0
GlyphClass: 2
Flags: W
LayerCount: 2
Fore
SplineSet
1189 210 m 256
 1248 210 l 258
 1353 210 1427 255 1427 360 c 258
 1427 684 l 258
 1427 789 1340 881 1194 881 c 256
 1062 881 965 790 965 680 c 256
 1087 680 l 257
 1087 746 1156 759 1194 759 c 256
 1233 759 1304 744 1304 684 c 258
 1304 360 l 258
 1304 325 1286 302 1248 302 c 258
 1189 302 l 256
 1189 210 l 256
1105 363 m 258
 1134 363 l 258
 1189 363 1277 414 1277 518 c 258
 1277 528 l 258
 1277 661 1181 684 1070 684 c 258
 718 684 l 257
 718 562 l 257
 1066 562 l 258
 1122 562 1155 555 1155 517 c 256
 1155 499 1144 485 1121 485 c 256
 1099 485 1087 498 1087 518 c 256
 965 518 l 257
 965 433 1036 363 1105 363 c 258
EndSplineSet
Refer: 37 2972 N 1 0 0 1 0 0 2
EndChar

StartChar: tml_Ja
Encoding: 37 2972 37
GlifName: tml_J_a
Width: 950
VWidth: 0
GlyphClass: 2
Flags: W
HStem: -178 123<347 367 347 405> 16 124<580 598 598 664 549.5 664 549.5 718> 158 123<255 262 262 718> 307 125<162.5 260 260 301> 561 123<664 664 664 718> 569 127<212.5 251.5>
VStem: 40 122<436.5 518.5 472 518.5 472 518.5> 55 122<-40.5 69.5 13.5 69.5 13.5 83> 302 122<483 499 499 518.5> 410 119 461 122<320 408 320 408 371 408 408 451 451 468 371 371> 782 122<-37 -3.5>
AnchorPoint: "tml_virama" 511 0 basechar 0
LayerCount: 2
Fore
SplineSet
286 -180 m 257
 286 -58 l 257
 210 -58 177 -19 177 46 c 256
 177 93 196 158 255 158 c 258
 736 158 l 258
 816 158 908 218 910 387 c 258
 910 448 l 257
 910 597 820 676 718 684 c 257
 718 561 l 257
 765 554 786 512 786 448 c 257
 786 409 l 258
 786 349 793 281 718 281 c 258
 262 281 l 258
 125 281 55 164 55 83 c 258
 55 11 l 258
 55 -92 164 -180 286 -180 c 257
40 471 m 258
 40 402 119 307 206 307 c 257
 206 431 l 257
 183 439 162 466 162 499 c 256
 162 538 193 569 232 569 c 256
 271 569 302 538 302 499 c 256
 302 467 282 440 260 432 c 257
 260 307 l 257
 342 307 424 410 424 471 c 258
 424 499 l 258
 424 588 342 700 229 686 c 256
 136 674 41 581 41 496 c 258
 40 471 l 258
40 472 m 257
 159 483 l 257
 159 587 263 582 304 582 c 256
 352 582 461 543 461 408 c 258
 461 320 l 257
 583 320 l 257
 583 408 l 258
 583 612 446 696 301 696 c 257
 72 696 40 537 40 482 c 258
 40 472 l 257
347 -55 m 257
 347 -178 l 257
 463 -178 528 -108 529 -59 c 256
 531 13 556 17 580 16 c 257
 664 16 l 257
 664 140 l 257
 598 140 l 257
 501 140 412 90 410 -1 c 256
 409 -50 387 -55 347 -55 c 257
461 371 m 257
 583 371 l 257
 583 451 l 258
 583 517 624 553 664 561 c 257
 664 684 l 257
 571 675 461 601 461 468 c 258
 461 371 l 257
619 -55 m 256
 619 -177 l 256
 774 -177 904 -151 904 -16 c 256
 904 97 805 140 718 140 c 257
 718 16 l 257
 758 15 782 7 782 -14 c 256
 782 -60 682 -55 619 -55 c 256
EndSplineSet
PickledDataWithLists: "(dp1
S'com.fontlab.hintData'
p2
(dp3
S'vhints'
p4
(lp5
(dp6
S'position'
p7
L40L
sS'width'
p8
L122L
sa(dp9
g7
L55L
sg8
L122L
sa(dp10
g7
L302L
sg8
L122L
sa(dp11
g7
L410L
sg8
L119L
sa(dp12
g7
L461L
sg8
L122L
sa(dp13
g7
L782L
sg8
L122L
sasS'hhints'
p14
(lp15
(dp16
g7
L-178L
sg8
L123L
sa(dp17
g7
L16L
sg8
L124L
sa(dp18
g7
L158L
sg8
L123L
sa(dp19
g7
L307L
sg8
L125L
sa(dp20
g7
L561L
sg8
L123L
sa(dp21
g7
L569L
sg8
L127L
sass."
EndChar

StartChar: tml_KI
Encoding: 38 -1 38
GlifName: tml_K_I_
Width: 996
VWidth: 0
GlyphClass: 2
Flags: HW
LayerCount: 2
Fore
SplineSet
420 588 m 257
 543 588 l 273
 543 649 584 686 655 686 c 265
 655 808 l 273
 483 808 420 692 420 588 c 257
709 686 m 257
 791 686 834 649 834 587 c 258
 834 1 l 257
 956 1 l 257
 956 590 l 258
 956 691 896 808 709 808 c 257
 709 686 l 257
EndSplineSet
Refer: 49 2965 N 1 0 0 1 -8 0 2
EndChar

StartChar: tml_KI.alt
Encoding: 39 -1 39
GlifName: tml_K_I_.alt
Width: 1014
VWidth: 0
GlyphClass: 2
Flags: HW
LayerCount: 2
Fore
SplineSet
87 272 m 257
 186 365 l 257
 87 652 297 721 465 733 c 256
 465 855 l 257
 186 857 -67 650 87 272 c 257
519 733 m 257
 621 733 853 697 853 426 c 258
 853 1 l 257
 975 1 l 257
 975 429 l 258
 974 751 719 855 519 855 c 257
 519 733 l 257
EndSplineSet
Refer: 49 2965 N 1 0 0 1 12.702 0 2
EndChar

StartChar: tml_KIi
Encoding: 40 -1 40
GlifName: tml_K_I_i
Width: 829
VWidth: 0
GlyphClass: 2
Flags: W
LayerCount: 2
Fore
SplineSet
419 475 m 257
 544 475 l 257
 543 597 l 256
 468 755 538 830 609 830 c 257
 666 830 677 796 677 781 c 256
 677 760 666 741 643 741 c 256
 618 741 609 758 609 774 c 256
 538 691 l 257
 548 670 595 632 640 632 c 256
 839 632 847 945 619 945 c 256
 416 945 345 757 419 598 c 256
 419 475 l 257
EndSplineSet
Refer: 49 2965 N 1 0 0 1 -8 0 2
EndChar

StartChar: tml_KIi.alt
Encoding: 41 -1 41
GlifName: tml_K_I_i.alt
Width: 894
VWidth: 0
GlyphClass: 2
Flags: W
LayerCount: 2
Fore
SplineSet
90 272 m 257
 189 365 l 257
 123 592 167 730 300 796 c 256
 363 827 469 864 583 833 c 256
 638 818 646 790 646 775 c 256
 646 754 635 735 612 735 c 256
 587 735 578 752 578 768 c 256
 524 670 l 257
 560 628 600 619 645 619 c 256
 730 619 781 701 779 775 c 256
 777 870 698 950 573 965 c 257
 436 981 345 962 240 905 c 256
 82 819 -43 600 90 272 c 257
EndSplineSet
Refer: 49 2965 N 1 0 0 1 24 0 2
EndChar

StartChar: tml_KSsI
Encoding: 42 -1 42
GlifName: tml_K_S_sI_
Width: 1988
VWidth: 0
GlyphClass: 2
Flags: HW
LayerCount: 2
Fore
SplineSet
1408 158 m 257
 1408 279 l 257
 1364 279 1350 287 1350 340 c 258
 1350 424 l 258
 1350 463 1363 485 1408 485 c 257
 1461 485 l 257
 1461 485 1520 486 1520 413 c 258
 1520 158 l 257
 1642 158 l 257
 1642 413 l 258
 1642 561 1564 607 1461 607 c 257
 1408 607 l 257
 1304 607 1227 570 1227 433 c 258
 1227 334 l 258
 1227 191 1304 158 1408 158 c 257
909 412 m 257
 986 412 1044 361 1045 291 c 257
 1045 146 l 258
 1045 127 1019 124 1012 123 c 257
 1012 0 l 257
 1408 0 l 257
 1408 123 l 257
 1166 123 l 257
 1166 292 l 257
 1165 403 1078 534 909 534 c 257
 909 412 l 257
40 152 m 258
 40 63 113 -5 270 -6 c 257
 270 117 l 257
 181 117 161 122 161 183 c 256
 161 234 175 244 239 244 c 258
 700 244 l 257
 700 366 l 257
 236 366 l 258
 150 366 40 321 40 213 c 258
 40 152 l 258
598 151 m 258
 598 91 668 0 770 0 c 256
 770 122 l 257
 737 122 723 147 723 181 c 256
 723 218 741 237 770 237 c 256
 770 359 l 257
 720 359 597 324 598 220 c 258
 598 151 l 258
825 0 m 257
 934 0 995 89 994 152 c 258
 994 224 l 258
 994 276 921 359 825 359 c 256
 825 237 l 257
 856 237 872 218 872 180 c 256
 872 142 857 123 825 122 c 257
 825 0 l 257
1391 596 m 257
 1514 596 l 256
 1514 657 1538 715 1639 715 c 265
 1639 837 l 273
 1443 837 1391 700 1391 596 c 257
323 -6 m 257
 490 -6 542 90 542 186 c 258
 542 664 l 257
 420 664 l 257
 420 182 l 258
 420 136 389 117 323 117 c 257
 323 -6 l 257
1693 715 m 257
 1796 715 1826 662 1826 596 c 258
 1826 0 l 257
 1948 0 l 257
 1948 596 l 258
 1948 699 1900 837 1693 837 c 257
 1693 715 l 257
598 226 m 257
 764 357 l 256
 765 378 795 412 859 412 c 257
 859 534 l 257
 649 534 598 340 598 268 c 257
 598 226 l 257
165 343 m 257
 287 343 l 257
 288 662 l 257
 165 662 l 257
 165 343 l 257
165 546 m 257
 328 546 l 257
 328 671 l 257
 165 671 l 257
 165 546 l 257
382 546 m 257
 689 546 l 257
 689 671 l 257
 382 671 l 257
 382 546 l 257
1520 123 m 257
 1520 -178 l 257
 1642 -178 l 257
 1642 123 l 257
 1520 123 l 257
1461 1 m 257
 1778 0 l 257
 1778 123 l 257
 1461 123 l 257
 1461 1 l 257
1461 158 m 257
 1778 158 l 257
 1778 280 l 256
 1461 280 l 257
 1461 158 l 257
1678 0 m 257
 1778 0 l 257
 1778 280 l 257
 1678 280 l 257
 1678 0 l 257
EndSplineSet
EndChar

StartChar: tml_KSsIi
Encoding: 43 -1 43
GlifName: tml_K_S_sI_i
Width: 1818
VWidth: 0
GlyphClass: 2
Flags: W
LayerCount: 2
Fore
SplineSet
1408 158 m 257
 1408 279 l 257
 1364 279 1350 287 1350 340 c 258
 1350 424 l 258
 1350 463 1363 485 1408 485 c 257
 1461 485 l 257
 1500 485 1520 486 1520 413 c 258
 1520 158 l 257
 1642 158 l 257
 1642 413 l 258
 1642 561 1564 607 1461 607 c 257
 1408 607 l 257
 1304 607 1227 570 1227 433 c 258
 1227 334 l 258
 1227 191 1304 158 1408 158 c 257
1370 485 m 257
 1494 485 l 257
 1494 605 l 256
 1419 763 1489 838 1560 838 c 257
 1617 838 1628 804 1628 789 c 256
 1628 768 1617 749 1594 749 c 256
 1569 749 1560 766 1560 782 c 256
 1489 699 l 257
 1499 678 1546 640 1591 640 c 256
 1790 640 1798 953 1570 953 c 256
 1367 953 1296 765 1370 606 c 256
 1370 485 l 257
909 412 m 257
 986 412 1044 361 1045 291 c 257
 1045 146 l 258
 1045 127 1019 124 1012 123 c 257
 1012 0 l 257
 1408 0 l 257
 1408 123 l 257
 1166 123 l 257
 1166 292 l 257
 1165 403 1078 534 909 534 c 257
 909 412 l 257
40 152 m 258
 40 63 113 -5 270 -6 c 257
 270 117 l 257
 181 117 161 122 161 183 c 256
 161 234 175 244 239 244 c 258
 700 244 l 257
 700 366 l 257
 236 366 l 258
 150 366 40 321 40 213 c 258
 40 152 l 258
598 151 m 258
 598 91 668 0 770 0 c 256
 770 122 l 257
 737 122 723 147 723 181 c 256
 723 218 741 237 770 237 c 256
 770 359 l 257
 720 359 597 324 598 220 c 258
 598 151 l 258
825 0 m 257
 934 0 995 89 994 152 c 258
 994 224 l 258
 994 276 921 359 825 359 c 256
 825 237 l 257
 856 237 872 218 872 180 c 256
 872 142 857 123 825 122 c 257
 825 0 l 257
323 -6 m 257
 490 -6 542 90 542 186 c 258
 542 664 l 257
 420 664 l 257
 420 182 l 258
 420 136 389 117 323 117 c 257
 323 -6 l 257
598 226 m 257
 764 357 l 256
 765 378 795 412 859 412 c 257
 859 534 l 257
 649 534 598 340 598 268 c 257
 598 226 l 257
165 343 m 257
 287 343 l 257
 288 662 l 257
 165 662 l 257
 165 343 l 257
165 546 m 257
 328 546 l 257
 328 671 l 257
 165 671 l 257
 165 546 l 257
382 546 m 257
 689 546 l 257
 689 671 l 257
 382 671 l 257
 382 546 l 257
1520 123 m 257
 1520 -178 l 257
 1642 -178 l 257
 1642 123 l 257
 1520 123 l 257
1461 1 m 257
 1778 0 l 257
 1778 123 l 257
 1461 123 l 257
 1461 1 l 257
1461 158 m 257
 1778 158 l 257
 1778 280 l 256
 1461 280 l 257
 1461 158 l 257
1678 0 m 257
 1778 0 l 257
 1778 280 l 257
 1678 280 l 257
 1678 0 l 257
EndSplineSet
EndChar

StartChar: tml_KSsU
Encoding: 44 -1 44
GlifName: tml_K_S_sU_
Width: 2032
VWidth: 0
GlyphClass: 2
Flags: W
LayerCount: 2
Fore
SplineSet
1461 486 m 257
 1781 486 l 258
 1837 486 1870 479 1870 441 c 256
 1870 423 1859 409 1836 409 c 256
 1814 409 1802 422 1802 442 c 256
 1680 442 l 257
 1680 357 1751 287 1820 287 c 258
 1849 287 l 258
 1904 287 1992 338 1992 442 c 258
 1992 452 l 258
 1992 585 1896 608 1785 608 c 258
 1461 608 l 257
 1461 486 l 257
909 412 m 257
 986 412 1044 361 1045 291 c 257
 1045 146 l 258
 1045 127 1019 124 1012 123 c 257
 1012 0 l 257
 1408 0 l 257
 1408 123 l 257
 1166 123 l 257
 1166 292 l 257
 1165 403 1078 534 909 534 c 257
 909 412 l 257
40 152 m 258
 40 63 113 -5 270 -6 c 257
 270 117 l 257
 181 117 161 122 161 183 c 256
 161 234 175 244 239 244 c 258
 700 244 l 257
 700 366 l 257
 236 366 l 258
 150 366 40 321 40 213 c 258
 40 152 l 258
1227 334 m 258
 1227 191 1304 158 1408 158 c 257
 1408 279 l 257
 1364 279 1350 287 1350 340 c 258
 1350 424 l 258
 1350 463 1363 485 1408 485 c 257
 1408 607 l 257
 1304 607 1227 570 1227 433 c 258
 1227 334 l 258
598 151 m 258
 598 91 668 0 770 0 c 256
 770 122 l 257
 737 122 723 147 723 181 c 256
 723 218 741 237 770 237 c 256
 770 359 l 257
 720 359 597 324 598 220 c 258
 598 151 l 258
825 0 m 257
 934 0 995 89 994 152 c 258
 994 224 l 258
 994 276 921 359 825 359 c 256
 825 237 l 257
 856 237 872 218 872 180 c 256
 872 142 857 123 825 122 c 257
 825 0 l 257
323 -6 m 257
 490 -6 542 90 542 186 c 258
 542 664 l 257
 420 664 l 257
 420 182 l 258
 420 136 389 117 323 117 c 257
 323 -6 l 257
1461 485 m 257
 1500 485 1520 486 1520 413 c 258
 1520 158 l 257
 1642 158 l 257
 1642 413 l 258
 1642 561 1564 607 1461 607 c 257
 1461 485 l 257
598 226 m 257
 764 357 l 256
 765 378 795 412 859 412 c 257
 859 534 l 257
 649 534 598 340 598 268 c 257
 598 226 l 257
165 343 m 257
 287 343 l 257
 288 662 l 257
 165 662 l 257
 165 343 l 257
165 546 m 257
 328 546 l 257
 328 671 l 257
 165 671 l 257
 165 546 l 257
382 546 m 257
 689 546 l 257
 689 671 l 257
 382 671 l 257
 382 546 l 257
1520 123 m 257
 1520 -178 l 257
 1642 -178 l 257
 1642 123 l 257
 1520 123 l 257
1461 1 m 257
 1778 0 l 257
 1778 123 l 257
 1461 123 l 257
 1461 1 l 257
1461 158 m 257
 1778 158 l 257
 1778 280 l 256
 1461 280 l 257
 1461 158 l 257
1678 0 m 257
 1778 0 l 257
 1778 280 l 257
 1678 280 l 257
 1678 0 l 257
EndSplineSet
EndChar

StartChar: tml_KSsUu
Encoding: 45 -1 45
GlifName: tml_K_S_sU_u
Width: 2271
VWidth: 0
GlyphClass: 2
Flags: W
LayerCount: 2
Fore
SplineSet
1492 486 m 257
 1820 486 l 258
 1876 486 1909 479 1909 441 c 256
 1909 423 1898 409 1875 409 c 256
 1853 409 1841 422 1841 442 c 256
 1719 442 l 257
 1719 357 1790 287 1859 287 c 258
 1888 287 l 258
 1943 287 2031 338 2031 442 c 258
 2031 452 l 258
 2031 585 1935 608 1824 608 c 258
 1492 608 l 257
 1492 486 l 257
1719 604 m 256
 1841 604 l 257
 1841 670 1910 683 1948 683 c 256
 1987 683 2058 668 2058 608 c 258
 2058 284 l 258
 2058 249 2040 226 2002 226 c 258
 1943 226 l 256
 1943 134 l 256
 2002 134 l 258
 2107 134 2181 179 2181 284 c 258
 2181 608 l 258
 2181 713 2094 805 1948 805 c 256
 1816 805 1719 714 1719 604 c 256
939 412 m 257
 1016 412 1074 361 1075 291 c 257
 1075 146 l 258
 1075 127 1049 124 1042 123 c 257
 1042 0 l 257
 1438 0 l 257
 1438 123 l 257
 1196 123 l 257
 1196 292 l 257
 1195 403 1108 534 939 534 c 257
 939 412 l 257
70 152 m 258
 70 63 143 -5 300 -6 c 257
 300 117 l 257
 211 117 191 122 191 183 c 256
 191 234 205 244 269 244 c 258
 730 244 l 257
 730 366 l 257
 266 366 l 258
 180 366 70 321 70 213 c 258
 70 152 l 258
1257 334 m 258
 1257 191 1334 158 1438 158 c 257
 1438 279 l 257
 1394 279 1380 287 1380 340 c 258
 1380 424 l 258
 1380 463 1393 485 1438 485 c 257
 1438 607 l 257
 1334 607 1257 570 1257 433 c 258
 1257 334 l 258
628 151 m 258
 628 91 698 0 800 0 c 256
 800 122 l 257
 767 122 753 147 753 181 c 256
 753 218 771 237 800 237 c 256
 800 359 l 257
 750 359 627 324 628 220 c 258
 628 151 l 258
855 0 m 257
 964 0 1025 89 1024 152 c 258
 1024 224 l 258
 1024 276 951 359 855 359 c 256
 855 237 l 257
 886 237 902 218 902 180 c 256
 902 142 887 123 855 122 c 257
 855 0 l 257
353 -6 m 257
 520 -6 572 90 572 186 c 258
 572 664 l 257
 450 664 l 257
 450 182 l 258
 450 136 419 117 353 117 c 257
 353 -6 l 257
1491 485 m 257
 1530 485 1550 486 1550 413 c 258
 1550 158 l 257
 1672 158 l 257
 1672 413 l 258
 1672 561 1594 607 1491 607 c 257
 1491 485 l 257
628 226 m 257
 794 357 l 256
 795 378 825 412 889 412 c 257
 889 534 l 257
 679 534 628 340 628 268 c 257
 628 226 l 257
195 343 m 257
 317 343 l 257
 318 662 l 257
 195 662 l 257
 195 343 l 257
195 546 m 257
 358 546 l 257
 358 671 l 257
 195 671 l 257
 195 546 l 257
412 546 m 257
 719 546 l 257
 719 671 l 257
 412 671 l 257
 412 546 l 257
1550 123 m 257
 1550 -178 l 257
 1672 -178 l 257
 1672 123 l 257
 1550 123 l 257
1491 1 m 257
 1808 0 l 257
 1808 123 l 257
 1491 123 l 257
 1491 1 l 257
1491 158 m 257
 1808 158 l 257
 1808 280 l 256
 1491 280 l 257
 1491 158 l 257
1708 0 m 257
 1808 0 l 257
 1808 280 l 257
 1708 280 l 257
 1708 0 l 257
EndSplineSet
EndChar

StartChar: tml_KSsa
Encoding: 46 -1 46
GlifName: tml_K_S_sa
Width: 1818
VWidth: 0
GlyphClass: 2
Flags: W
AnchorPoint: "tml_virama" 1131 0 basechar 0
LayerCount: 2
Fore
SplineSet
909 412 m 257
 986 412 1044 361 1045 291 c 257
 1045 146 l 258
 1045 127 1019 124 1012 123 c 257
 1012 0 l 257
 1408 0 l 257
 1408 123 l 257
 1166 123 l 257
 1166 292 l 257
 1165 403 1078 534 909 534 c 257
 909 412 l 257
40 152 m 258
 40 63 113 -5 270 -6 c 257
 270 117 l 257
 181 117 161 122 161 183 c 256
 161 234 175 244 239 244 c 258
 700 244 l 257
 700 366 l 257
 236 366 l 258
 150 366 40 321 40 213 c 258
 40 152 l 258
1227 334 m 258
 1227 191 1304 158 1408 158 c 257
 1408 279 l 257
 1364 279 1350 287 1350 340 c 258
 1350 424 l 258
 1350 463 1363 485 1408 485 c 257
 1408 607 l 257
 1304 607 1227 570 1227 433 c 258
 1227 334 l 258
598 151 m 258
 598 91 668 0 770 0 c 256
 770 122 l 257
 737 122 723 147 723 181 c 256
 723 218 741 237 770 237 c 256
 770 359 l 257
 720 359 597 324 598 220 c 258
 598 151 l 258
825 0 m 257
 934 0 995 89 994 152 c 258
 994 224 l 258
 994 276 921 359 825 359 c 256
 825 237 l 257
 856 237 872 218 872 180 c 256
 872 142 857 123 825 122 c 257
 825 0 l 257
323 -6 m 257
 490 -6 542 90 542 186 c 258
 542 664 l 257
 420 664 l 257
 420 182 l 258
 420 136 389 117 323 117 c 257
 323 -6 l 257
1461 485 m 257
 1500 485 1520 486 1520 413 c 258
 1520 158 l 257
 1642 158 l 257
 1642 413 l 258
 1642 561 1564 607 1461 607 c 257
 1461 485 l 257
598 226 m 257
 764 357 l 256
 765 378 795 412 859 412 c 257
 859 534 l 257
 649 534 598 340 598 268 c 257
 598 226 l 257
165 343 m 257
 287 343 l 257
 288 662 l 257
 165 662 l 257
 165 343 l 257
165 546 m 257
 328 546 l 257
 328 671 l 257
 165 671 l 257
 165 546 l 257
382 546 m 257
 689 546 l 257
 689 671 l 257
 382 671 l 257
 382 546 l 257
1520 123 m 257
 1520 -178 l 257
 1642 -178 l 257
 1642 123 l 257
 1520 123 l 257
1461 1 m 257
 1778 0 l 257
 1778 123 l 257
 1461 123 l 257
 1461 1 l 257
1461 158 m 257
 1778 158 l 257
 1778 280 l 256
 1461 280 l 257
 1461 158 l 257
1678 0 m 257
 1778 0 l 257
 1778 280 l 257
 1678 280 l 257
 1678 0 l 257
EndSplineSet
EndChar

StartChar: tml_KU
Encoding: 47 -1 47
GlifName: tml_K_U_
Width: 1026
VWidth: 0
GlyphClass: 2
Flags: W
LayerCount: 2
Fore
SplineSet
382 156 m 256
 255 156 l 256
 255 50 333 -1 485 -1 c 257
 485 122 l 257
 406 122 382 136 382 156 c 256
377 206 m 257
 381 241 398 249 454 249 c 258
 757 249 l 257
 757 371 l 257
 654 371 555 371 452 371 c 256
 366 371 255 326 255 218 c 258
 255 206 l 257
 377 206 l 257
47 30 m 258
 47 -109 132 -210 241 -210 c 258
 435 -210 l 257
 435 -88 l 257
 257 -88 l 258
 193 -88 170 -10 170 54 c 258
 170 284 l 258
 170 320 173 377 247 377 c 256
 246 499 l 256
 161 499 47 452 47 289 c 258
 47 30 l 258
488 -88 m 257
 488 -210 l 257
 788 -210 l 258
 914 -210 975 -114 975 -47 c 258
 975 219 l 258
 975 337 873 364 811 370 c 257
 811 248 l 257
 833 247 853 235 853 185 c 258
 853 38 l 258
 853 -5 856 -88 787 -88 c 258
 488 -88 l 257
538 -1 m 257
 705 -1 757 95 757 191 c 258
 757 591 l 257
 635 591 l 257
 635 187 l 258
 635 141 604 122 538 122 c 257
 538 -1 l 257
380 348 m 257
 502 348 l 257
 503 589 l 257
 380 589 l 257
 380 348 l 257
380 473 m 257
 542 473 l 257
 542 595 l 257
 380 595 l 257
 380 473 l 257
597 473 m 257
 889 473 l 257
 889 595 l 257
 597 595 l 257
 597 473 l 257
EndSplineSet
EndChar

StartChar: tml_KUu
Encoding: 48 -1 48
GlifName: tml_K_U_u
Width: 1600
VWidth: 0
GlyphClass: 2
Flags: W
HStem: -1 123<225.5 270 225.5 270 323 356 225.5 406.5> 21 120 249 122<239 578> 348 23<193 236 236 287 287 287> 470 122
VStem: 40 121<112.5 213.5 157.5 213.5 157.5 218> 165 163<348 595 473 589 473 595 473 595> 165 122<348 348 348 589> 420 122<164 591 191 591 191 591> 627 123
LayerCount: 2
Fore
SplineSet
629 250 m 257
 819 250 l 258
 877 250 887 216 887 185 c 256
 887 134 862 93 843 93 c 256
 810 93 808 196 808 216 c 256
 706 216 l 257
 706 130 711 3 850 0 c 256
 922 -2 990 53 990 186 c 256
 990 310 913 370 823 370 c 258
 629 370 l 257
 629 250 l 257
1187 -1 m 257
 1187 102 l 256
 1122 104 1117 103 1117 144 c 258
 1117 389 l 258
 1117 531 1049 596 903 596 c 256
 771 596 715 505 715 395 c 256
 818 395 l 257
 818 461 842 491 903 491 c 256
 965 491 1014 467 1014 389 c 258
 1014 54 l 258
 1014 8 1002 0 1187 -1 c 257
270 122 m 257
 181 122 161 127 161 188 c 256
 161 239 175 249 239 249 c 258
 578 249 l 257
 578 371 l 257
 236 371 l 258
 150 371 40 326 40 218 c 258
 40 157 l 258
 40 68 112 -1 270 -1 c 257
 270 122 l 257
323 122 m 257
 323 -1 l 257
 490 -1 542 95 542 191 c 258
 542 591 l 257
 420 591 l 257
 420 187 l 258
 420 141 389 122 323 122 c 257
165 348 m 257
 287 348 l 257
 288 589 l 257
 165 589 l 257
 165 348 l 257
165 473 m 257
 328 473 l 257
 328 595 l 257
 165 595 l 257
 165 473 l 257
382 473 m 257
 654 473 l 257
 654 595 l 257
 382 595 l 257
 382 473 l 257
1236 -1 m 257
 1421 -1 1377 -4 1562 -1 c 257
 1562 102 l 257
 1236 102 l 257
 1236 -1 l 257
EndSplineSet
PickledDataWithLists: "(dp1
S'com.fontlab.hintData'
p2
(dp3
S'vhints'
p4
(lp5
(dp6
S'position'
p7
L40L
sS'width'
p8
L121L
sa(dp9
g7
L165L
sg8
L163L
sa(dp10
g7
L165L
sg8
L122L
sa(dp11
g7
L420L
sg8
L122L
sa(dp12
g7
L627L
sg8
L123L
sasS'hhints'
p13
(lp14
(dp15
g7
L-1L
sg8
L123L
sa(dp16
g7
L21L
sg8
L120L
sa(dp17
g7
L249L
sg8
L122L
sa(dp18
g7
L348L
sg8
L23L
sa(dp19
g7
L470L
sg8
L122L
sass."
EndChar

StartChar: tml_Ka
Encoding: 49 2965 49
GlifName: tml_K_a
Width: 839
VWidth: 0
GlyphClass: 2
Flags: W
HStem: -11 123<235 277 235 277 331 364 235 414.5> 2 124 249 122 348 23<178 226 226 295 295 295> 470 125<173 335 173 335 389 682> 470 71<428 550 428 682>
VStem: 48 121<125 179 179 285> 173 162<348 595 470 539 470 595 470 595> 173 122<348 348 348 539> 428 122<164 541 191 541 191 541> 664 122
AnchorPoint: "tml_virama" 431 0 basechar 0
LayerCount: 2
Fore
SplineSet
173 348 m 257
 295 348 l 257
 296 539 l 257
 173 539 l 257
 173 348 l 257
48 226 m 257
 173 226 l 257
 173 226 176 254 229 254 c 258
 611 254 l 258
 644 254 663 238 663 205 c 257
 786 205 l 257
 786 342 730 371 603 371 c 258
 226 371 l 258
 130 371 48 344 48 226 c 257
277 -11 m 257
 277 112 l 257
 193 112 171 126 169 179 c 257
 48 179 l 257
 48 71 106 -11 277 -11 c 257
331 -11 m 257
 498 -11 550 95 550 191 c 258
 550 541 l 257
 428 541 l 257
 428 187 l 258
 428 141 397 112 331 112 c 257
 331 -11 l 257
389 470 m 257
 682 470 l 257
 682 595 l 257
 389 595 l 257
 389 470 l 257
173 470 m 257
 335 470 l 257
 335 595 l 257
 173 595 l 257
 173 470 l 257
569 -11 m 257
 725 -11 786 40 786 155 c 257
 662 155 l 257
 662 155 656 103 571 103 c 256
 569 -11 l 257
EndSplineSet
PickledDataWithLists: "(dp1
S'com.fontlab.hintData'
p2
(dp3
S'vhints'
p4
(lp5
(dp6
S'position'
p7
L48L
sS'width'
p8
L121L
sa(dp9
g7
L173L
sg8
L162L
sa(dp10
g7
L173L
sg8
L122L
sa(dp11
g7
L428L
sg8
L122L
sa(dp12
g7
L664L
sg8
L122L
sasS'hhints'
p13
(lp14
(dp15
g7
L-11L
sg8
L123L
sa(dp16
g7
L2L
sg8
L124L
sa(dp17
g7
L249L
sg8
L122L
sa(dp18
g7
L348L
sg8
L23L
sa(dp19
g7
L470L
sg8
L125L
sa(dp20
g7
L470L
sg8
L71L
sass."
EndChar

StartChar: tml_LAi
Encoding: 50 -1 50
GlifName: tml_L_A_i
Width: 1223
VWidth: 0
GlyphClass: 2
Flags: W
LayerCount: 2
Fore
SplineSet
443 41 m 257
 396 172 l 257
 333 70 101 71 206 242 c 256
 428 582 l 257
 511 738 415 939 221 939 c 256
 -7 939 -26 604 200 604 c 256
 245 604 292 632 302 675 c 257
 231 758 l 256
 231 742 222 725 197 725 c 256
 174 725 163 744 163 765 c 256
 163 780 174 814 231 814 c 257
 304 814 388 739 292 581 c 256
 93 296 l 258
 -68 65 192 -132 443 41 c 257
680 484 m 257
 758 484 799 418 800 354 c 258
 801 165 l 258
 801 84 849 0 964 0 c 257
 964 123 l 257
 939 123 923 138 923 165 c 258
 923 353 l 258
 922 456 848 606 680 606 c 257
 680 484 l 257
1009 594 m 257
 1010 471 l 257
 1048 471 1060 458 1060 422 c 257
 1060 166 l 257
 1060 139 1044 123 1017 123 c 257
 1017 0 l 257
 1127 0 1183 81 1183 166 c 258
 1183 424 l 258
 1183 541 1129 595 1009 594 c 257
368 151 m 256
 368 91 437 0 539 0 c 256
 539 122 l 257
 506 122 492 149 492 181 c 256
 492 210 510 237 539 237 c 256
 539 359 l 257
 489 359 367 324 368 220 c 256
 369 140 368 193 368 151 c 256
594 0 m 257
 703 0 764 89 763 152 c 258
 763 224 l 258
 763 276 690 359 594 359 c 256
 594 237 l 257
 636 237 639 208 640 181 c 256
 641 150 635 122 594 122 c 256
 594 0 l 257
368 226 m 257
 374 256 499 270 499 327 c 256
 499 427 561 485 626 485 c 257
 626 606 l 257
 447 606 368 424 368 323 c 258
 368 226 l 257
EndSplineSet
EndChar

StartChar: tml_LI
Encoding: 51 -1 51
GlifName: tml_L_I_
Width: 1086
VWidth: 0
GlyphClass: 2
Flags: W
LayerCount: 2
Fore
SplineSet
688 0 m 257
 798 0 854 81 854 166 c 258
 854 424 l 258
 854 541 814 591 724 590 c 257
 710 590 693 688 797 688 c 257
 797 810 l 257
 535 810 570 471 681 471 c 257
 719 471 731 458 731 422 c 257
 731 166 l 257
 731 139 715 123 688 123 c 257
 688 0 l 257
351 484 m 257
 429 484 470 418 471 354 c 258
 472 165 l 258
 472 84 520 0 635 0 c 257
 635 123 l 257
 610 123 594 138 594 165 c 258
 594 353 l 258
 593 456 519 606 351 606 c 257
 351 484 l 257
210 0 m 256
 210 122 l 257
 177 122 163 149 163 181 c 256
 163 210 181 237 210 237 c 256
 210 359 l 257
 160 359 38 324 39 220 c 256
 40 140 39 193 39 151 c 256
 39 91 108 0 210 0 c 256
265 0 m 257
 374 0 435 89 434 152 c 258
 434 224 l 258
 434 276 361 359 265 359 c 256
 265 237 l 257
 307 237 310 208 311 181 c 256
 312 150 306 122 265 122 c 256
 265 0 l 257
851 688 m 257
 898 688 924 651 924 589 c 258
 924 0 l 257
 1046 0 l 257
 1046 592 l 258
 1046 693 998 810 851 810 c 257
 851 688 l 257
39 226 m 257
 45 256 170 270 170 327 c 256
 170 427 232 485 297 485 c 257
 297 606 l 257
 118 606 39 424 39 323 c 258
 39 226 l 257
EndSplineSet
EndChar

StartChar: tml_LIi
Encoding: 52 -1 52
GlifName: tml_L_I_i
Width: 1040
VWidth: 0
GlyphClass: 2
Flags: W
LayerCount: 2
Fore
SplineSet
763 582 m 257
 642 619 672 803 810 795 c 257
 867 795 883 761 883 746 c 256
 883 725 872 706 849 706 c 256
 824 706 815 723 815 739 c 256
 739 648 l 257
 751 625 801 587 846 587 c 256
 1056 587 1063 919 803 919 c 256
 614 919 537 739 572 621 c 256
 595 543 632 502 682 475 c 256
 718 455 734 446 735 423 c 258
 735 166 l 257
 735 139 716 123 689 123 c 257
 689 0 l 257
 799 0 855 81 855 166 c 258
 855 424 l 258
 855 508 852 555 763 582 c 257
266 0 m 257
 375 0 436 89 435 152 c 258
 435 224 l 258
 435 276 362 359 266 359 c 256
 266 237 l 257
 308 237 311 208 312 181 c 256
 313 150 307 122 266 122 c 256
 266 0 l 257
40 151 m 256
 40 91 109 0 211 0 c 256
 211 122 l 257
 178 122 164 149 164 181 c 256
 164 210 182 237 211 237 c 256
 211 359 l 257
 161 359 39 324 40 220 c 256
 41 140 40 193 40 151 c 256
40 226 m 257
 46 256 171 270 171 327 c 256
 171 427 233 485 298 485 c 257
 298 606 l 257
 119 606 40 424 40 323 c 258
 40 226 l 257
352 484 m 257
 430 484 471 418 472 354 c 258
 473 165 l 258
 473 84 521 0 636 0 c 257
 636 123 l 257
 611 123 595 138 595 165 c 258
 595 353 l 258
 594 456 520 606 352 606 c 257
 352 484 l 257
EndSplineSet
EndChar

StartChar: tml_LU
Encoding: 53 -1 53
GlifName: tml_L_U_
Width: 1100
VWidth: 0
GlyphClass: 2
Flags: W
HStem: -257 94<199 417 471 700> 0 122 237 123 485 121
VStem: 61 124 61 131 61 171 333 123 493 122 753 122<-95 231 -80 231>
LayerCount: 2
Fore
SplineSet
471 -257 m 257
 701 -257 l 258
 854 -257 875 -146 875 -80 c 258
 875 231 l 257
 753 231 l 257
 753 -80 l 258
 753 -110 749 -163 700 -163 c 258
 471 -163 l 257
 471 -257 l 257
49 -125 m 258
 49 -158 l 258
 50 -253 166 -257 199 -257 c 258
 417 -257 l 257
 417 -163 l 257
 199 -163 l 258
 161 -163 160 -120 200 -120 c 258
 1051 -120 l 257
 1051 583 l 256
 929 583 l 256
 929 -27 l 257
 200 -27 l 258
 112 -27 49 -57 49 -125 c 258
EndSplineSet
Refer: 55 2994 N 1 0 0 1 20 0 2
PickledDataWithLists: "(dp1
S'com.fontlab.hintData'
p2
(dp3
S'vhints'
p4
(lp5
(dp6
S'position'
p7
L61L
sS'width'
p8
L124L
sa(dp9
g7
L61L
sg8
L131L
sa(dp10
g7
L61L
sg8
L171L
sa(dp11
g7
L333L
sg8
L123L
sa(dp12
g7
L493L
sg8
L122L
sa(dp13
g7
L753L
sg8
L122L
sasS'hhints'
p14
(lp15
(dp16
g7
L-257L
sg8
L94L
sa(dp17
g7
L0L
sg8
L122L
sa(dp18
g7
L237L
sg8
L123L
sa(dp19
g7
L485L
sg8
L121L
sass."
EndChar

StartChar: tml_LUu
Encoding: 54 -1 54
GlifName: tml_L_U_u
Width: 1448
VWidth: 0
GlyphClass: 2
Flags: W
HStem: -257 94<189 407 461 690> 0 122 237 123 485 121
VStem: 51 124 51 131 51 171 323 123 483 122 743 122<-95 231 -80 231>
LayerCount: 2
Fore
SplineSet
189 -257 m 258
 407 -257 l 257
 407 -163 l 257
 189 -163 l 258
 151 -163 150 -120 190 -120 c 258
 1041 -120 l 257
 1041 583 l 256
 919 583 l 256
 919 -27 l 257
 190 -27 l 258
 102 -27 39 -57 39 -125 c 258
 39 -158 l 258
 40 -253 156 -257 189 -257 c 258
461 -257 m 257
 691 -257 l 258
 844 -257 865 -146 865 -80 c 258
 865 231 l 257
 743 231 l 257
 743 -80 l 258
 743 -110 739 -163 690 -163 c 258
 461 -163 l 257
 461 -257 l 257
919 474 m 257
 1098 474 l 257
 1098 596 l 257
 919 596 l 257
 919 474 l 257
1203 1 m 257
 1325 1 l 257
 1325 594 l 257
 1203 594 l 257
 1203 1 l 257
1151 474 m 257
 1409 474 l 257
 1409 596 l 257
 1151 596 l 257
 1151 474 l 257
EndSplineSet
Refer: 55 2994 N 1 0 0 1 10 0 2
PickledDataWithLists: "(dp1
S'com.fontlab.hintData'
p2
(dp3
S'vhints'
p4
(lp5
(dp6
S'position'
p7
L51L
sS'width'
p8
L124L
sa(dp9
g7
L51L
sg8
L131L
sa(dp10
g7
L51L
sg8
L171L
sa(dp11
g7
L323L
sg8
L123L
sa(dp12
g7
L483L
sg8
L122L
sa(dp13
g7
L743L
sg8
L122L
sasS'hhints'
p14
(lp15
(dp16
g7
L-257L
sg8
L94L
sa(dp17
g7
L0L
sg8
L122L
sa(dp18
g7
L237L
sg8
L123L
sa(dp19
g7
L485L
sg8
L121L
sass."
EndChar

StartChar: tml_La
Encoding: 55 2994 55
GlifName: tml_L_a
Width: 892
VWidth: 0
GlyphClass: 2
Flags: W
HStem: 0 122<193.5 210 193.5 210 265 285.5 193.5 319.5> 237 123 485 121<264.5 297>
VStem: 39 171<121 122 0 172 0 220 237 323 0 226> 39 131<121 377 151 377 298.5 323 226 377> 39 124<165 172 165 195.5 165 220 165 323 165 226> 311 123 472 122<124.5 353> 731 122
AnchorPoint: "tml_virama" 551 0 basechar 0
LayerCount: 2
Fore
SplineSet
265 0 m 257
 374 0 435 89 434 152 c 258
 434 224 l 258
 434 276 361 359 265 359 c 256
 265 237 l 257
 307 237 310 208 311 181 c 256
 312 150 306 122 265 122 c 256
 265 0 l 257
39 151 m 256
 39 91 108 0 210 0 c 256
 210 122 l 257
 177 122 163 149 163 181 c 256
 163 210 181 237 210 237 c 256
 210 359 l 257
 160 359 38 324 39 220 c 256
 40 140 39 193 39 151 c 256
39 226 m 257
 45 256 170 270 170 327 c 256
 170 427 232 485 297 485 c 257
 297 606 l 257
 118 606 39 424 39 323 c 258
 39 226 l 257
351 484 m 257
 429 484 470 418 471 354 c 258
 472 165 l 258
 472 84 520 0 635 0 c 257
 635 123 l 257
 610 123 594 138 594 165 c 258
 594 353 l 258
 593 456 519 606 351 606 c 257
 351 484 l 257
680 594 m 257
 681 471 l 257
 719 471 731 458 731 422 c 257
 731 166 l 257
 731 139 715 123 688 123 c 257
 688 0 l 257
 798 0 854 81 854 166 c 258
 854 424 l 258
 854 541 800 595 680 594 c 257
EndSplineSet
PickledDataWithLists: "(dp1
S'com.fontlab.hintData'
p2
(dp3
S'vhints'
p4
(lp5
(dp6
S'position'
p7
L39L
sS'width'
p8
L171L
sa(dp9
g7
L39L
sg8
L131L
sa(dp10
g7
L39L
sg8
L124L
sa(dp11
g7
L311L
sg8
L123L
sa(dp12
g7
L472L
sg8
L122L
sa(dp13
g7
L731L
sg8
L122L
sasS'hhints'
p14
(lp15
(dp16
g7
L0L
sg8
L122L
sa(dp17
g7
L237L
sg8
L123L
sa(dp18
g7
L485L
sg8
L121L
sass."
EndChar

StartChar: tml_LlAi
Encoding: 56 -1 56
GlifName: tml_L_lA_i
Width: 1304
VWidth: 0
GlyphClass: 2
Flags: W
LayerCount: 2
Fore
SplineSet
443 43 m 257
 396 174 l 257
 333 72 101 73 206 244 c 256
 428 584 l 257
 511 740 415 941 221 941 c 256
 -7 941 -26 606 200 606 c 256
 245 606 292 634 302 677 c 257
 231 760 l 256
 231 744 222 727 197 727 c 256
 174 727 163 746 163 767 c 256
 163 782 174 816 231 816 c 257
 302 816 388 741 292 583 c 256
 93 298 l 258
 -68 67 192 -130 443 43 c 257
367 151 m 256
 367 91 436 0 538 0 c 256
 538 122 l 257
 505 122 491 149 491 181 c 256
 491 210 509 237 538 237 c 256
 538 359 l 257
 488 359 366 324 367 220 c 256
 368 140 367 193 367 151 c 256
593 0 m 257
 702 0 763 89 762 152 c 258
 762 224 l 258
 762 276 689 359 593 359 c 256
 593 237 l 257
 635 237 638 208 639 181 c 256
 640 150 634 122 593 122 c 256
 593 0 l 257
679 484 m 257
 748 484 799 417 800 354 c 257
 801 0 l 257
 927 0 l 257
 923 355 l 257
 923 454 841 605 679 605 c 257
 679 484 l 257
367 226 m 257
 373 256 498 270 498 327 c 256
 498 427 560 484 625 484 c 257
 625 605 l 257
 446 605 367 427 367 326 c 258
 367 226 l 257
800 325 m 257
 923 326 l 257
 923 454 945 482 986 482 c 257
 986 605 l 257
 813 605 800 440 800 325 c 257
1068 0 m 257
 1190 0 l 257
 1190 574 l 257
 1068 574 l 257
 1068 0 l 257
1040 482 m 257
 1264 482 l 257
 1264 605 l 257
 1040 605 l 257
 1040 482 l 257
EndSplineSet
EndChar

StartChar: tml_LlI
Encoding: 57 -1 57
GlifName: tml_L_lI_
Width: 1154
VWidth: 0
GlyphClass: 2
Flags: HW
LayerCount: 2
Fore
SplineSet
40 151 m 256
 40 91 109 0 211 0 c 256
 211 122 l 257
 178 122 164 149 164 181 c 256
 164 210 182 237 211 237 c 256
 211 359 l 257
 161 359 39 324 40 220 c 256
 41 140 40 193 40 151 c 256
266 0 m 257
 375 0 436 89 435 152 c 258
 435 224 l 258
 435 276 362 359 266 359 c 256
 266 237 l 257
 308 237 311 208 312 181 c 256
 313 150 307 122 266 122 c 256
 266 0 l 257
864 578 m 256
 864 639 860 676 904 676 c 265
 904 798 l 273
 755 798 741 682 741 578 c 257
 864 578 l 256
352 484 m 257
 421 484 472 417 473 354 c 257
 474 0 l 257
 600 0 l 257
 596 355 l 257
 596 454 514 605 352 605 c 257
 352 484 l 257
958 676 m 257
 1005 676 1000 639 1000 577 c 258
 1000 0 l 257
 1122 0 l 257
 1122 580 l 258
 1122 683 1109 798 958 798 c 257
 958 676 l 257
40 226 m 257
 46 256 171 270 171 327 c 256
 171 427 233 484 298 484 c 257
 298 605 l 257
 119 605 40 427 40 326 c 258
 40 226 l 257
473 325 m 257
 596 326 l 257
 596 454 611 482 659 482 c 257
 659 605 l 257
 486 605 473 440 473 325 c 257
741 0 m 257
 863 0 l 257
 863 574 l 257
 741 574 l 257
 741 0 l 257
710 482 m 257
 937 482 l 257
 937 605 l 257
 710 605 l 257
 710 482 l 257
EndSplineSet
EndChar

StartChar: tml_LlIi
Encoding: 58 -1 58
GlifName: tml_L_lI_i
Width: 1150
VWidth: 0
GlyphClass: 2
Flags: W
LayerCount: 2
Fore
SplineSet
740 483 m 257
 864 483 l 257
 864 605 l 256
 789 763 859 838 930 838 c 257
 987 838 998 804 998 789 c 256
 998 768 987 749 964 749 c 256
 939 749 930 766 930 782 c 256
 859 699 l 257
 869 678 916 640 961 640 c 256
 1160 640 1168 953 940 953 c 256
 737 953 666 765 740 606 c 256
 740 483 l 257
EndSplineSet
Refer: 61 2995 N 1 0 0 1 -0.994 0 2
EndChar

StartChar: tml_LlU
Encoding: 59 -1 59
GlifName: tml_L_lU_
Width: 1350
VWidth: 0
GlyphClass: 2
Flags: W
LayerCount: 2
Fore
SplineSet
234 -178 m 258
 654 -178 l 257
 654 -56 l 257
 250 -56 l 258
 186 -56 163 -36 163 28 c 258
 163 287 l 258
 163 323 166 379 240 379 c 256
 239 501 l 256
 154 501 40 455 40 292 c 258
 40 29 l 258
 40 -110 125 -178 234 -178 c 258
708 -178 m 257
 1123 -178 l 258
 1249 -178 1310 -83 1310 -16 c 258
 1310 221 l 258
 1310 329 1208 366 1146 372 c 257
 1146 245 l 257
 1168 245 1188 237 1188 187 c 258
 1188 37 l 258
 1188 -6 1191 -56 1122 -56 c 258
 708 -56 l 257
 708 -178 l 257
EndSplineSet
Refer: 61 2995 N 1 0 0 1 228 -3 2
EndChar

StartChar: tml_LlUu
Encoding: 60 -1 60
GlifName: tml_L_lU_u
Width: 1461
VWidth: 0
GlyphClass: 2
Flags: W
LayerCount: 2
Fore
SplineSet
40 29 m 258
 40 -108 126 -176 235 -176 c 258
 766 -176 l 257
 766 -54 l 257
 251 -54 l 258
 187 -54 165 -34 165 28 c 258
 165 353 l 258
 165 419 170 442 208 442 c 256
 226 442 240 431 240 408 c 256
 240 386 227 374 207 374 c 256
 207 252 l 257
 292 252 362 324 362 393 c 258
 362 421 l 258
 362 476 311 564 207 564 c 258
 197 564 l 258
 64 564 39 447 40 356 c 258
 40 29 l 258
819 -54 m 257
 819 -176 l 257
 1234 -176 l 258
 1360 -176 1421 -81 1421 -14 c 258
 1421 221 l 258
 1421 329 1319 366 1257 372 c 257
 1257 245 l 257
 1279 245 1299 237 1299 187 c 258
 1299 39 l 258
 1299 -4 1302 -54 1233 -54 c 258
 819 -54 l 257
EndSplineSet
Refer: 61 2995 N 1 0 0 1 339.028 0 2
EndChar

StartChar: tml_Lla
Encoding: 61 2995 61
GlifName: tml_L_la
Width: 976
VWidth: 0
GlyphClass: 2
Flags: W
HStem: 0 122<195.5 212 195.5 212 267 287.5 195.5 321.5> 237 123 482 123<639.5 660 714 938>
VStem: 41 171<121 122 0 172 0 220 237 326 0 226> 41 131<121 377 151 377 298.5 326 226 377> 41 124<165 172 165 195.5 165 220 165 326 165 226> 313 123
AnchorPoint: "tml_virama" 531 0 basechar 0
LayerCount: 2
Fore
SplineSet
41 151 m 256
 41 91 110 0 212 0 c 256
 212 122 l 257
 179 122 165 149 165 181 c 256
 165 210 183 237 212 237 c 256
 212 359 l 257
 162 359 40 324 41 220 c 256
 42 140 41 193 41 151 c 256
267 0 m 257
 376 0 437 89 436 152 c 258
 436 224 l 258
 436 276 363 359 267 359 c 256
 267 237 l 257
 309 237 312 208 313 181 c 256
 314 150 308 122 267 122 c 256
 267 0 l 257
353 484 m 257
 422 484 473 417 474 354 c 257
 475 0 l 257
 601 0 l 257
 597 355 l 257
 597 454 515 605 353 605 c 257
 353 484 l 257
41 226 m 257
 47 256 172 270 172 327 c 256
 172 427 234 484 299 484 c 257
 299 605 l 257
 120 605 41 427 41 326 c 258
 41 226 l 257
474 325 m 257
 597 326 l 257
 597 454 619 482 660 482 c 257
 660 605 l 257
 487 605 474 440 474 325 c 257
742 0 m 257
 864 0 l 257
 864 574 l 257
 742 574 l 257
 742 0 l 257
714 482 m 257
 938 482 l 257
 938 605 l 257
 714 605 l 257
 714 482 l 257
EndSplineSet
PickledDataWithLists: "(dp1
S'com.fontlab.hintData'
p2
(dp3
S'vhints'
p4
(lp5
(dp6
S'position'
p7
L41L
sS'width'
p8
L171L
sa(dp9
g7
L41L
sg8
L131L
sa(dp10
g7
L41L
sg8
L124L
sa(dp11
g7
L313L
sg8
L123L
sasS'hhints'
p12
(lp13
(dp14
g7
L0L
sg8
L122L
sa(dp15
g7
L237L
sg8
L123L
sa(dp16
g7
L482L
sg8
L123L
sass."
EndChar

StartChar: tml_LllI
Encoding: 62 -1 62
GlifName: tml_L_llI_
Width: 844
VWidth: 0
GlyphClass: 2
Flags: HW
LayerCount: 2
Fore
SplineSet
406 483 m 257
 460 483 l 257
 501 483 503 457 503 434 c 258
 503 179 l 258
 503 157 500 123 460 123 c 257
 460 0 l 256
 541 0 625 51 625 197 c 258
 625 434 l 258
 625 564 548 605 460 605 c 257
 406 605 l 257
 325 605 243 571 244 434 c 258
 244 122 l 256
 366 122 l 257
 366 434 l 258
 366 459 372 483 406 483 c 257
363 594 m 257
 486 594 l 256
 486 655 503 692 554 692 c 265
 554 814 l 273
 405 814 363 698 363 594 c 257
682 593 m 258
 682 0 l 257
 804 0 l 257
 804 596 l 258
 804 699 759 814 608 814 c 257
 608 692 l 257
 661 692 682 655 682 593 c 258
  PathStart: -1
40 107 m 257
 162 107 l 257
 162 595 l 257
 40 595 l 257
 40 107 l 257
40 0 m 257
 162 0 284 0 406 0 c 257
 406 123 l 257
 40 123 l 257
 40 0 l 257
329 -164 m 257
 274 -158 238 -118 231 -87 c 257
 213 -103 176 -91 175 -67 c 257
 53 -67 l 257
 53 -191 185 -259 329 -164 c 257
429 -145 m 257
 559 -146 l 256
 559 -22 l 257
 401 -22 365 -29 365 1 c 257
 243 1 l 257
 243 -60 265 -146 429 -145 c 257
  PathStart: -1
EndSplineSet
EndChar

StartChar: tml_LllIi
Encoding: 63 -1 63
GlifName: tml_L_llI_i
Width: 779
VWidth: 0
GlyphClass: 2
Flags: W
LayerCount: 2
Fore
SplineSet
406 483 m 257
 460 483 l 257
 501 483 503 457 503 434 c 258
 503 179 l 258
 503 157 500 123 460 123 c 257
 460 0 l 256
 541 0 625 51 625 197 c 258
 625 434 l 258
 625 564 548 605 460 605 c 257
 406 605 l 257
 325 605 243 571 244 434 c 258
 244 122 l 256
 366 122 l 257
 366 434 l 258
 366 459 372 483 406 483 c 257
369 518 m 257
 493 518 l 257
 493 596 l 256
 418 754 488 829 559 829 c 257
 616 829 627 795 627 780 c 256
 627 759 616 740 593 740 c 256
 568 740 559 757 559 773 c 256
 488 690 l 257
 498 669 545 631 590 631 c 256
 789 631 797 944 569 944 c 256
 366 944 295 756 369 597 c 256
 369 518 l 257
40 107 m 257
 162 107 l 257
 162 595 l 257
 40 595 l 257
 40 107 l 257
40 0 m 257
 406 0 l 257
 406 123 l 257
 40 123 l 257
 40 0 l 257
329 -164 m 257
 274 -158 238 -118 231 -87 c 257
 213 -103 176 -91 175 -67 c 257
 53 -67 l 257
 53 -191 185 -259 329 -164 c 257
429 -145 m 257
 559 -146 l 256
 559 -22 l 257
 401 -22 365 -29 365 1 c 257
 243 1 l 257
 243 -60 265 -146 429 -145 c 257
  PathStart: -1
EndSplineSet
EndChar

StartChar: tml_LllU
Encoding: 64 -1 64
GlifName: tml_L_llU_
Width: 892
VWidth: 0
GlyphClass: 2
Flags: W
HStem: -258 93<246 262 262 377 431 653> -146 179 0 123 107 17 122 1 483 122
VStem: 52 123<-85 -53 -85 -52> 267 122 470 122<-146 32 -146 32> 471 122 587 5<-120 -27 -120 -120> 653 93<-165 -120 -165 -165> 730 123
LayerCount: 2
Fore
SplineSet
49 532 m 258
 52 -52 l 258
 52 -191 137 -258 246 -258 c 258
 377 -258 l 257
 377 -165 l 257
 262 -165 l 258
 198 -165 175 -117 175 -53 c 258
 176 529 l 258
 176 595 181 619 219 619 c 257
 286 619 l 256
 286 740 l 257
 208 740 l 258
 75 740 48 623 49 532 c 258
431 -165 m 256
 431 -258 l 257
 657 -258 l 258
 720 -258 746 -226 746 -174 c 258
 746 -107 l 258
 746 -57 727 -27 663 -27 c 258
 587 -27 l 257
 587 -120 l 256
 653 -120 l 256
 653 -165 l 256
 431 -165 l 256
470 32 m 257
 470 -146 l 257
 592 -146 l 257
 592 32 l 257
 470 32 l 257
EndSplineSet
Refer: 71 2990 N 1 0 0 1 228 0 2
PickledDataWithLists: "(dp1
S'com.fontlab.hintData'
p2
(dp3
S'vhints'
p4
(lp5
(dp6
S'position'
p7
L52L
sS'width'
p8
L123L
sa(dp9
g7
L267L
sg8
L122L
sa(dp10
g7
L470L
sg8
L122L
sa(dp11
g7
L471L
sg8
L122L
sa(dp12
g7
L587L
sg8
L5L
sa(dp13
g7
L653L
sg8
L93L
sa(dp14
g7
L730L
sg8
L123L
sasS'hhints'
p15
(lp16
(dp17
g7
L-258L
sg8
L93L
sa(dp18
g7
L-146L
sg8
L179L
sa(dp19
g7
L0L
sg8
L123L
sa(dp20
g7
L107L
sg8
L17L
sa(dp21
g7
L122L
sg8
L1L
sa(dp22
g7
L483L
sg8
L122L
sass."
EndChar

StartChar: tml_LllUu
Encoding: 65 -1 65
GlifName: tml_L_llU_u
Width: 1003
VWidth: 0
GlyphClass: 2
Flags: W
HStem: -258 93<234 250 250 488 542 765> -146 179 2 123 108 17 124 1 442 122<188 196 196 206 129.5 216> 485 122
VStem: 39 125<-53 -52 -52 353 353 356> 239 122<397 419.5> 378 122 581 122<-146 32 -146 32> 582 122 698 5<-120 -27 -120 -120> 765 93 842 123
LayerCount: 2
Fore
SplineSet
39 -52 m 258
 39 -191 125 -258 234 -258 c 258
 488 -258 l 257
 488 -165 l 257
 250 -165 l 258
 186 -165 164 -117 164 -53 c 258
 164 353 l 258
 164 419 169 442 207 442 c 256
 225 442 239 431 239 408 c 256
 239 386 226 374 206 374 c 256
 206 252 l 257
 291 252 361 324 361 393 c 258
 361 421 l 258
 361 476 310 564 206 564 c 258
 196 564 l 258
 63 564 38 447 39 356 c 258
 39 -52 l 258
542 -165 m 256
 542 -258 l 257
 769 -258 l 258
 832 -258 857 -226 857 -174 c 258
 857 -107 l 258
 857 -57 838 -27 774 -27 c 258
 698 -27 l 257
 698 -120 l 256
 765 -120 l 256
 765 -165 l 256
 542 -165 l 256
581 32 m 257
 581 -146 l 257
 703 -146 l 257
 703 32 l 257
 581 32 l 257
EndSplineSet
Refer: 71 2990 N 1 0 0 1 339 2 2
PickledDataWithLists: "(dp1
S'com.fontlab.hintData'
p2
(dp3
S'vhints'
p4
(lp5
(dp6
S'position'
p7
L39L
sS'width'
p8
L125L
sa(dp9
g7
L239L
sg8
L122L
sa(dp10
g7
L378L
sg8
L122L
sa(dp11
g7
L581L
sg8
L122L
sa(dp12
g7
L582L
sg8
L122L
sa(dp13
g7
L698L
sg8
L5L
sa(dp14
g7
L765L
sg8
L93L
sa(dp15
g7
L842L
sg8
L123L
sasS'hhints'
p16
(lp17
(dp18
g7
L-258L
sg8
L93L
sa(dp19
g7
L-146L
sg8
L179L
sa(dp20
g7
L2L
sg8
L123L
sa(dp21
g7
L108L
sg8
L17L
sa(dp22
g7
L124L
sg8
L1L
sa(dp23
g7
L442L
sg8
L122L
sa(dp24
g7
L485L
sg8
L122L
sass."
EndChar

StartChar: tml_Llla
Encoding: 66 2996 66
GlifName: tml_L_lla
Width: 663
VWidth: 0
GlyphClass: 2
Flags: W
HStem: -145 123<429 559> 0 123 107 17 122 1 483 122
VStem: 39 122 243 122<-14 1 -14 1> 503 123
AnchorPoint: "tml_virama" 441 0 basechar 0
LayerCount: 2
Fore
SplineSet
53 -67 m 257
 53 -191 185 -259 329 -164 c 257
 274 -158 238 -118 231 -87 c 257
 213 -103 176 -91 175 -67 c 257
 53 -67 l 257
243 1 m 257
 243 -60 265 -146 429 -145 c 257
 559 -146 l 256
 559 -22 l 257
 401 -22 365 -29 365 1 c 257
 243 1 l 257
EndSplineSet
Refer: 71 2990 N 1 0 0 1 0 0 2
PickledDataWithLists: "(dp1
S'com.fontlab.hintData'
p2
(dp3
S'vhints'
p4
(lp5
(dp6
S'position'
p7
L39L
sS'width'
p8
L122L
sa(dp9
g7
L243L
sg8
L122L
sa(dp10
g7
L503L
sg8
L123L
sasS'hhints'
p11
(lp12
(dp13
g7
L-145L
sg8
L123L
sa(dp14
g7
L0L
sg8
L123L
sa(dp15
g7
L107L
sg8
L17L
sa(dp16
g7
L122L
sg8
L1L
sa(dp17
g7
L483L
sg8
L122L
sass."
EndChar

StartChar: tml_MI
Encoding: 67 -1 67
GlifName: tml_M_I_
Width: 844
VWidth: 0
GlyphClass: 2
Flags: HW
LayerCount: 2
Fore
SplineSet
608 692 m 257
 661 692 682 655 682 593 c 258
 682 0 l 257
 804 0 l 257
 804 596 l 258
 804 699 759 814 608 814 c 257
 608 692 l 257
363 594 m 257
 486 594 l 256
 486 655 503 692 554 692 c 265
 554 814 l 273
 405 814 363 698 363 594 c 257
406 483 m 257
 460 483 l 257
 501 483 503 457 503 434 c 258
 503 179 l 258
 503 157 500 123 460 123 c 257
 460 0 l 256
 541 0 625 51 625 197 c 258
 625 434 l 258
 625 564 548 605 460 605 c 257
 406 605 l 257
 325 605 243 571 244 434 c 258
 244 122 l 256
 366 122 l 257
 366 434 l 258
 366 459 372 483 406 483 c 257
40 107 m 257
 162 107 l 257
 162 595 l 257
 40 595 l 257
 40 107 l 257
40 0 m 257
 406 0 l 257
 406 123 l 257
 40 123 l 257
 40 0 l 257
EndSplineSet
EndChar

StartChar: tml_MIi
Encoding: 68 -1 68
GlifName: tml_M_I_i
Width: 783
VWidth: 0
GlyphClass: 2
Flags: W
LayerCount: 2
Fore
SplineSet
406 483 m 257
 460 483 l 257
 501 483 503 457 503 434 c 258
 503 179 l 258
 503 157 500 123 460 123 c 257
 460 0 l 256
 541 0 625 51 625 197 c 258
 625 434 l 258
 625 564 548 605 460 605 c 257
 406 605 l 257
 325 605 243 571 244 434 c 258
 244 122 l 256
 366 122 l 257
 366 434 l 258
 366 459 372 483 406 483 c 257
373 498 m 257
 497 498 l 257
 497 594 l 256
 422 752 492 827 563 827 c 257
 620 827 631 793 631 778 c 256
 631 757 620 738 597 738 c 256
 572 738 563 755 563 771 c 256
 492 688 l 257
 502 667 549 629 594 629 c 256
 793 629 801 942 573 942 c 256
 370 942 299 754 373 595 c 256
 373 498 l 257
40 107 m 257
 162 107 l 257
 162 595 l 257
 40 595 l 257
 40 107 l 257
40 0 m 257
 406 0 l 257
 406 123 l 257
 40 123 l 257
 40 0 l 257
EndSplineSet
EndChar

StartChar: tml_MU
Encoding: 69 -1 69
GlifName: tml_M_U_
Width: 915
VWidth: 0
GlyphClass: 2
Flags: W
HStem: -151 122 0 123 107 17 122 1 483 122 634 122<201 238>
VStem: 39 123 289 122 493 122<-56 15 -56 -56> 753 123
LayerCount: 2
Fore
SplineSet
233 -178 m 258
 340 -178 l 257
 340 -56 l 257
 249 -56 l 258
 185 -56 161 -37 161 27 c 258
 161 541 l 258
 161 577 164 634 238 634 c 256
 238 756 l 256
 153 756 39 709 39 546 c 258
 39 28 l 258
 39 -111 124 -178 233 -178 c 258
394 -56 m 256
 394 -178 l 257
 494 -178 l 258
 575 -178 615 -126 615 -57 c 258
 615 15 l 257
 493 15 l 257
 493 -56 l 256
 394 -56 l 256
EndSplineSet
Refer: 71 2990 N 1 0 0 1 250 0 2
PickledDataWithLists: "(dp1
S'com.fontlab.hintData'
p2
(dp3
S'vhints'
p4
(lp5
(dp6
S'position'
p7
L39L
sS'width'
p8
L123L
sa(dp9
g7
L289L
sg8
L122L
sa(dp10
g7
L493L
sg8
L122L
sa(dp11
g7
L753L
sg8
L123L
sasS'hhints'
p12
(lp13
(dp14
g7
L-151L
sg8
L122L
sa(dp15
g7
L0L
sg8
L123L
sa(dp16
g7
L107L
sg8
L17L
sa(dp17
g7
L122L
sg8
L1L
sa(dp18
g7
L483L
sg8
L122L
sa(dp19
g7
L634L
sg8
L122L
sass."
EndChar

StartChar: tml_MUu
Encoding: 70 -1 70
GlifName: tml_M_U_u
Width: 1016
VWidth: 0
GlyphClass: 2
Flags: W
HStem: -151 122 0 123 107 17 122 1 442 122<188 196 196 206 129.5 216> 483 122
VStem: 39 125<26 27 27 353 353 356> 239 122<397 419.5> 391 122 595 122<-56 15 -56 -56> 854 123
LayerCount: 2
Fore
SplineSet
39 27 m 258
 39 -111 125 -178 234 -178 c 258
 441 -178 l 257
 441 -56 l 257
 250 -56 l 258
 186 -56 164 -37 164 26 c 258
 164 353 l 258
 164 419 169 442 207 442 c 256
 225 442 239 431 239 408 c 256
 239 386 226 374 206 374 c 256
 206 252 l 257
 291 252 361 324 361 393 c 258
 361 421 l 258
 361 476 310 564 206 564 c 258
 196 564 l 258
 63 564 38 447 39 356 c 258
 39 27 l 258
495 -56 m 256
 495 -178 l 257
 596 -178 l 258
 677 -178 717 -126 717 -57 c 258
 717 15 l 257
 595 15 l 257
 595 -56 l 256
 495 -56 l 256
EndSplineSet
Refer: 71 2990 N 1 0 0 1 352 0 2
PickledDataWithLists: "(dp1
S'com.fontlab.hintData'
p2
(dp3
S'vhints'
p4
(lp5
(dp6
S'position'
p7
L39L
sS'width'
p8
L125L
sa(dp9
g7
L239L
sg8
L122L
sa(dp10
g7
L391L
sg8
L122L
sa(dp11
g7
L595L
sg8
L122L
sa(dp12
g7
L854L
sg8
L123L
sasS'hhints'
p13
(lp14
(dp15
g7
L-151L
sg8
L122L
sa(dp16
g7
L0L
sg8
L123L
sa(dp17
g7
L107L
sg8
L17L
sa(dp18
g7
L122L
sg8
L1L
sa(dp19
g7
L442L
sg8
L122L
sa(dp20
g7
L483L
sg8
L122L
sass."
EndChar

StartChar: tml_Ma
Encoding: 71 2990 71
GlifName: tml_M_a
Width: 663
VWidth: 0
GlyphClass: 2
Flags: W
HStem: 0 123<39 405 39 405 459 479 39 499.5> 107 17 122 1<243 365 365 365> 483 122<388 405 459 479.5>
VStem: 39 122<0 595 107 123 107 595 107 595> 243 122<122 434 122 434> 503 123
AnchorPoint: "tml_virama" 411 0 basechar 0
LayerCount: 2
Fore
SplineSet
459 0 m 260
 540 0 624 51 624 197 c 262
 624 434 l 262
 624 564 547 605 459 605 c 261
 459 483 l 261
 500 483 502 457 502 434 c 262
 502 179 l 262
 502 157 499 123 459 123 c 261
 459 0 l 260
243 122 m 260
 365 122 l 261
 365 434 l 262
 365 459 371 483 405 483 c 261
 405 605 l 261
 324 605 242 571 243 434 c 262
 243 122 l 260
39 107 m 261
 161 107 l 261
 161 595 l 261
 39 595 l 261
 39 107 l 261
39 0 m 261
 405 0 l 261
 405 123 l 261
 39 123 l 261
 39 0 l 261
EndSplineSet
PickledDataWithLists: "(dp1
S'com.fontlab.hintData'
p2
(dp3
S'vhints'
p4
(lp5
(dp6
S'position'
p7
L39L
sS'width'
p8
L122L
sa(dp9
g7
L243L
sg8
L122L
sa(dp10
g7
L503L
sg8
L123L
sasS'hhints'
p11
(lp12
(dp13
g7
L0L
sg8
L123L
sa(dp14
g7
L107L
sg8
L17L
sa(dp15
g7
L122L
sg8
L1L
sa(dp16
g7
L483L
sg8
L122L
sass."
EndChar

StartChar: tml_MatraAa
Encoding: 72 3006 72
GlifName: tml_M_atraA_a
Width: 568
VWidth: 0
GlyphClass: 2
Flags: W
HStem: 0 21<39 161 161 161 323 445 445 445> 473 122<39 218 39 218 271 529>
VStem: 39 179<473 592 473 595 473 595> 39 122<0 593 0 592 473 593 0 595 473 473>
LayerCount: 2
Fore
SplineSet
323 0 m 257
 445 0 l 257
 445 593 l 257
 323 593 l 257
 323 0 l 257
39 0 m 257
 161 0 l 257
 161 593 l 257
 39 592 l 257
 39 0 l 257
271 473 m 257
 529 473 l 257
 529 595 l 257
 271 595 l 257
 271 473 l 257
39 473 m 257
 218 473 l 257
 218 595 l 257
 39 595 l 257
 39 473 l 257
EndSplineSet
PickledDataWithLists: "(dp1
S'com.fontlab.hintData'
p2
(dp3
S'vhints'
p4
(lp5
(dp6
S'position'
p7
L39L
sS'width'
p8
L179L
sa(dp9
g7
L39L
sg8
L122L
sasS'hhints'
p10
(lp11
(dp12
g7
L0L
sg8
L21L
sa(dp13
g7
L473L
sg8
L122L
sass."
EndChar

StartChar: tml_MatraAi
Encoding: 73 3016 73
GlifName: tml_M_atraA_i
Width: 1043
VWidth: 0
GlyphClass: 2
Flags: W
LayerCount: 2
Fore
SplineSet
423 157 m 257
 423 72 473 -11 568 -11 c 256
 568 112 l 257
 543 112 545 146 545 158 c 258
 545 290 l 258
 545 477 667 484 748 484 c 257
 748 606 l 257
 689 606 423 591 423 288 c 258
 423 157 l 257
389 483 m 257
 522 482 646 476 646 290 c 258
 646 157 l 258
 646 146 650 112 622 112 c 256
 622 -11 l 257
 719 -11 768 65 768 157 c 258
 768 301 l 258
 768 586 531 605 389 605 c 257
 389 483 l 257
40 156 m 257
 40 71 91 -11 186 -11 c 256
 186 111 l 257
 161 111 162 145 162 157 c 258
 162 290 l 258
 162 476 255 483 335 483 c 257
 335 605 l 257
 266 605 40 596 40 290 c 258
 40 156 l 257
210 342 m 257
 231 342 263 342 263 290 c 258
 263 156 l 258
 263 145 267 112 239 112 c 256
 239 -11 l 257
 336 -11 385 64 385 156 c 258
 385 290 l 258
 385 378 362 437 295 437 c 257
 238 432 207 376 210 342 c 257
802 474 m 257
 841 453 872 395 872 303 c 258
 872 162 l 258
 872 151 877 117 841 117 c 256
 841 -5 l 257
 945 -5 995 70 995 162 c 258
 995 303 l 258
 995 483 898 590 802 596 c 257
 802 474 l 257
EndSplineSet
EndChar

StartChar: tml_MatraE
Encoding: 75 3014 75
GlifName: tml_M_atraE_
Width: 633
VWidth: 0
GlyphClass: 2
Flags: W
LayerCount: 2
Fore
SplineSet
265 0 m 257
 374 0 435 89 434 152 c 258
 434 224 l 258
 434 276 361 359 265 359 c 256
 265 237 l 257
 307 237 310 208 311 181 c 256
 312 150 306 122 265 122 c 256
 265 0 l 257
39 151 m 256
 39 91 108 0 210 0 c 256
 210 122 l 257
 177 122 163 149 163 181 c 256
 163 210 181 237 210 237 c 256
 210 359 l 257
 160 359 38 324 39 220 c 256
 40 140 39 193 39 151 c 256
350 596 m 257
 461 596 473 514 473 451 c 258
 473 -10 l 257
 595 -10 l 257
 595 451 l 258
 595 592 522 718 350 718 c 257
 350 596 l 257
39 214 m 257
 45 244 163 258 162 315 c 258
 162 451 l 258
 162 543 200 596 296 596 c 256
 296 596 l 256
 296 718 l 257
 296 718 l 256
 116 718 39 591 39 451 c 258
 39 268 l 257
 39 214 l 257
EndSplineSet
EndChar

StartChar: tml_MatraEe
Encoding: 76 3015 76
GlifName: tml_M_atraE_e
Width: 621
VWidth: 0
GlyphClass: 2
Flags: W
HStem: -42 121 194 123 346 122 582 123
VStem: 39 121<125 492 238 492 492 496> 187 125 459 123
LayerCount: 2
Fore
SplineSet
413 376 m 257
 522 376 583 465 582 528 c 258
 582 599 l 258
 582 651 509 735 413 735 c 256
 413 612 l 257
 455 612 458 583 459 556 c 256
 460 525 454 498 413 498 c 256
 413 376 l 257
187 527 m 256
 187 467 256 376 358 376 c 256
 358 498 l 257
 325 498 311 524 311 556 c 256
 311 585 329 612 358 612 c 256
 358 735 l 257
 308 735 186 700 187 596 c 256
 188 516 187 569 187 527 c 256
413 -12 m 257
 522 -12 583 77 582 140 c 258
 582 211 l 258
 582 263 509 347 413 347 c 256
 413 224 l 257
 455 224 458 195 459 168 c 256
 460 137 454 110 413 110 c 256
 413 -12 l 257
187 139 m 256
 187 79 256 -12 358 -12 c 256
 358 110 l 257
 325 110 311 136 311 168 c 256
 311 197 329 224 358 224 c 256
 358 347 l 257
 308 347 186 312 187 208 c 256
 188 128 187 181 187 139 c 256
39 225 m 257
 39 25 255 -12 351 -12 c 258
 356 -12 l 256
 356 109 l 257
 306 109 160 143 160 238 c 258
 160 492 l 258
 160 601 299 612 354 614 c 257
 354 735 l 256
 281 735 39 706 39 496 c 257
 39 225 l 257
EndSplineSet
PickledDataWithLists: "(dp1
S'com.fontlab.hintData'
p2
(dp3
S'vhints'
p4
(lp5
(dp6
S'position'
p7
L39L
sS'width'
p8
L121L
sa(dp9
g7
L187L
sg8
L125L
sa(dp10
g7
L459L
sg8
L123L
sasS'hhints'
p11
(lp12
(dp13
g7
L-42L
sg8
L121L
sa(dp14
g7
L194L
sg8
L123L
sa(dp15
g7
L346L
sg8
L122L
sa(dp16
g7
L582L
sg8
L123L
sass."
EndChar

StartChar: tml_MatraI
Encoding: 77 3007 77
GlifName: tml_M_atraI_
Width: 359
VWidth: 0
GlyphClass: 2
Flags: HW
LayerCount: 2
Fore
SplineSet
85 678 m 257
 151 678 178 641 178 579 c 258
 178 69 l 257
 300 69 l 257
 300 582 l 258
 300 684 267 800 85 800 c 257
 85 678 l 257
-176 580 m 257
 -53 580 l 257
 -53 641 -30 678 31 678 c 256
 31 800 l 256
 -137 800 -176 684 -176 580 c 257
EndSplineSet
EndChar

StartChar: tml_MatraIi
Encoding: 78 3008 78
GlifName: tml_M_atraI_i
Width: 513
VWidth: 0
GlyphClass: 2
Flags: W
LayerCount: 2
Fore
SplineSet
165 410 m 257
 319 423 l 257
 152 547 126 785 259 796 c 257
 282 796 315 793 315 755 c 256
 315 741 304 723 281 723 c 256
 256 723 247 740 247 756 c 256
 176 673 l 257
 180 652 231 601 294 601 c 256
 360 601 437 662 437 756 c 256
 437 885 334 917 259 918 c 256
 24 918 -23 564 165 410 c 257
EndSplineSet
EndChar

StartChar: tml_MatraU
Encoding: 81 3009 81
GlifName: tml_M_atraU_
Width: 569
VWidth: 0
GlyphClass: 2
Flags: W
LayerCount: 2
Fore
SplineSet
39 574 m 257
 319 574 l 258
 375 574 408 567 408 529 c 256
 408 511 397 497 374 497 c 256
 352 497 340 510 340 530 c 256
 218 530 l 257
 218 445 289 375 358 375 c 258
 387 375 l 258
 442 375 530 426 530 530 c 258
 530 540 l 258
 530 673 434 696 323 696 c 258
 39 696 l 257
 39 574 l 257
EndSplineSet
EndChar

StartChar: tml_MatraUu
Encoding: 82 3010 82
GlifName: tml_M_atraU_u
Width: 768
VWidth: 0
GlyphClass: 2
Flags: W
LayerCount: 2
Fore
SplineSet
57 574 m 257
 337 574 l 258
 393 574 426 567 426 529 c 256
 426 511 415 497 392 497 c 256
 370 497 358 510 358 530 c 256
 236 530 l 257
 236 445 307 375 376 375 c 258
 405 375 l 258
 460 375 548 426 548 530 c 258
 548 540 l 258
 548 673 452 696 341 696 c 258
 57 696 l 257
 57 574 l 257
236 692 m 256
 358 692 l 257
 358 758 427 771 465 771 c 256
 504 771 575 756 575 696 c 258
 575 372 l 258
 575 337 557 314 519 314 c 258
 460 314 l 256
 460 222 l 256
 519 222 l 258
 624 222 698 267 698 372 c 258
 698 696 l 258
 698 801 611 893 465 893 c 256
 333 893 236 802 236 692 c 256
EndSplineSet
EndChar

StartChar: tml_Month
Encoding: 83 3060 83
GlifName: tml_M_onth
Width: 1072
VWidth: 0
GlyphClass: 2
Flags: W
LayerCount: 2
Fore
SplineSet
1045 630 m 257
 1045 733 l 256
 980 735 975 734 975 775 c 258
 975 860 l 258
 975 1002 907 1067 761 1067 c 256
 629 1067 573 966 573 856 c 256
 676 856 l 257
 676 922 700 962 761 962 c 256
 823 962 872 938 872 860 c 258
 872 775 l 258
 872 665 952 630 1045 630 c 257
848 684 m 256
 848 808 771 838 681 838 c 258
 457 838 l 257
 457 718 l 257
 677 718 l 258
 720 718 745 714 745 683 c 256
 745 669 731 651 712 651 c 256
 694 651 676 664 676 684 c 256
 574 684 l 257
 574 598 649 558 708 558 c 256
 780 558 848 606 848 684 c 256
346 620 m 258
 334 670 356 718 407 718 c 256
 407 718 407 840 407 840 c 257
 176 840 184 514 371 514 c 257
 346 620 l 258
243 122 m 256
 365 122 l 257
 365 434 l 258
 365 459 371 483 405 483 c 257
 405 605 l 257
 324 605 242 571 243 434 c 258
 243 122 l 256
459 0 m 256
 540 0 624 51 624 197 c 258
 624 434 l 258
 624 564 547 605 459 605 c 257
 459 483 l 257
 500 483 502 457 502 434 c 258
 502 179 l 258
 502 157 499 123 459 123 c 257
 459 0 l 256
39 0 m 257
 405 0 l 257
 405 123 l 257
 39 123 l 257
 39 0 l 257
39 107 m 257
 161 107 l 257
 161 595 l 257
 39 595 l 257
 39 107 l 257
EndSplineSet
EndChar

StartChar: tml_NI
Encoding: 84 -1 84
GlifName: tml_N_I_
Width: 861
VWidth: 0
GlyphClass: 2
Flags: HW
LayerCount: 2
Fore
SplineSet
591 690 m 257
 665 690 699 653 699 591 c 258
 699 -1 l 257
 821 -1 l 257
 821 594 l 258
 821 697 766 812 591 812 c 257
 591 690 l 257
314 592 m 257
 437 592 l 256
 437 653 465 690 537 690 c 265
 537 812 l 273
 364 812 314 696 314 592 c 257
EndSplineSet
Refer: 88 2984 N 1 0 0 1 1 0 2
EndChar

StartChar: tml_NIi
Encoding: 85 -1 85
GlifName: tml_N_I_i
Width: 723
VWidth: 0
GlyphClass: 2
Flags: W
LayerCount: 2
Fore
SplineSet
313 477 m 257
 437 477 l 257
 437 595 l 256
 362 753 432 828 503 828 c 257
 560 828 571 794 571 779 c 256
 571 758 560 739 537 739 c 256
 512 739 503 756 503 772 c 256
 432 689 l 257
 442 668 489 630 534 630 c 256
 733 630 741 943 513 943 c 256
 310 943 239 755 313 596 c 256
 313 477 l 257
EndSplineSet
Refer: 88 2984 N 1 0 0 1 1 0 2
EndChar

StartChar: tml_NU
Encoding: 86 -1 86
GlifName: tml_N_U_
Width: 871
VWidth: 0
GlyphClass: 2
Flags: W
HStem: -256 94 -119 93 3 122 489 123 489 32
VStem: 264 122 424 122 647 122 803 139 819 122 995 122
LayerCount: 2
Fore
SplineSet
50 -126 m 258
 50 -159 l 258
 51 -254 167 -257 200 -257 c 258
 314 -258 l 257
 314 -164 l 257
 200 -164 l 258
 162 -164 161 -121 201 -121 c 258
 821 -121 l 257
 821 582 l 256
 699 582 l 256
 699 -28 l 257
 201 -28 l 258
 113 -28 50 -58 50 -126 c 258
367 -258 m 257
 471 -258 l 258
 624 -258 645 -147 645 -81 c 258
 645 151 l 257
 523 151 l 257
 522 -81 l 258
 522 -111 519 -164 470 -164 c 258
 367 -164 l 257
 367 -258 l 257
72 1 m 257
 194 1 l 257
 194 590 l 257
 72 590 l 257
 72 1 l 257
312 1 m 257
 437 1 l 257
 436 588 l 257
 314 588 l 257
 312 1 l 257
72 595 m 257
 73 473 l 257
 580 473 l 257
 580 595 l 257
 72 595 l 257
476 252 m 256
 518 252 523 251 523 205 c 256
 645 205 l 257
 645 352 567 374 476 374 c 257
 476 252 l 256
EndSplineSet
PickledDataWithLists: "(dp1
S'com.fontlab.hintData'
p2
(dp3
S'vhints'
p4
(lp5
(dp6
S'position'
p7
L264L
sS'width'
p8
L122L
sa(dp9
g7
L424L
sg8
L122L
sa(dp10
g7
L647L
sg8
L122L
sa(dp11
g7
L803L
sg8
L139L
sa(dp12
g7
L819L
sg8
L122L
sa(dp13
g7
L995L
sg8
L122L
sasS'hhints'
p14
(lp15
(dp16
g7
L-256L
sg8
L94L
sa(dp17
g7
L-119L
sg8
L93L
sa(dp18
g7
L3L
sg8
L122L
sa(dp19
g7
L489L
sg8
L123L
sa(dp20
g7
L489L
sg8
L32L
sass."
EndChar

StartChar: tml_NUu
Encoding: 87 -1 87
GlifName: tml_N_U_u
Width: 1583
VWidth: 0
GlyphClass: 2
Flags: W
HStem: -256 94 -119 93 3 122 473 122<700 879 700 879 933 1190> 473 111 489 123 489 32
VStem: 263 122 423 122 646 122 802 139 818 122 994 179 994 122
LayerCount: 2
Fore
SplineSet
700 473 m 257
 879 473 l 257
 879 595 l 257
 700 595 l 257
 700 473 l 257
984 -113 m 257
 1106 -113 l 257
 1106 593 l 257
 984 593 l 257
 984 -113 l 257
933 473 m 257
 1190 473 l 257
 1190 595 l 257
 933 595 l 257
 933 473 l 257
EndSplineSet
Refer: 86 -1 N 1 0 0 1 0 0 2
PickledDataWithLists: "(dp1
S'com.fontlab.hintData'
p2
(dp3
S'vhints'
p4
(lp5
(dp6
S'position'
p7
L263L
sS'width'
p8
L122L
sa(dp9
g7
L423L
sg8
L122L
sa(dp10
g7
L646L
sg8
L122L
sa(dp11
g7
L802L
sg8
L139L
sa(dp12
g7
L818L
sg8
L122L
sa(dp13
g7
L994L
sg8
L179L
sa(dp14
g7
L994L
sg8
L122L
sasS'hhints'
p15
(lp16
(dp17
g7
L-256L
sg8
L94L
sa(dp18
g7
L-119L
sg8
L93L
sa(dp19
g7
L3L
sg8
L122L
sa(dp20
g7
L473L
sg8
L122L
sa(dp21
g7
L473L
sg8
L111L
sa(dp22
g7
L489L
sg8
L123L
sa(dp23
g7
L489L
sg8
L32L
sass."
EndChar

StartChar: tml_Na
Encoding: 88 2984 88
GlifName: tml_N_a
Width: 696
VWidth: 0
GlyphClass: 2
Flags: W
HStem: -157 122
VStem: 39 128<-308 -270.5 -308 -233> 520 123<10 206>
AnchorPoint: "tml_virama" 331 0 basechar 0
LayerCount: 2
Fore
SplineSet
489 253 m 256
 516 253 521 252 521 206 c 258
 520 25 l 258
 520 -5 517 -86 468 -86 c 258
 247 -86 l 258
 110 -86 39 -158 39 -308 c 257
 167 -308 l 257
 167 -233 184 -208 226 -208 c 258
 469 -208 l 258
 622 -208 643 -41 643 25 c 258
 643 206 l 258
 643 353 565 375 489 375 c 257
 489 253 l 256
71 0 m 257
 193 0 l 257
 193 590 l 257
 71 590 l 257
 71 0 l 257
71 474 m 257
 221 474 l 257
 221 595 l 257
 71 595 l 257
 71 474 l 257
312 0 m 257
 437 0 l 257
 436 588 l 257
 313 588 l 257
 312 0 l 257
286 474 m 257
 575 474 l 257
 575 595 l 257
 286 595 l 257
 286 474 l 257
EndSplineSet
PickledDataWithLists: "(dp1
S'com.fontlab.hintData'
p2
(dp3
S'vhints'
p4
(lp5
(dp6
S'position'
p7
L39L
sS'width'
p8
L128L
sa(dp9
g7
L520L
sg8
L123L
sasS'hhints'
p10
(lp11
(dp12
g7
L-157L
sg8
L122L
sass."
EndChar

StartChar: tml_NgI
Encoding: 89 -1 89
GlifName: tml_N_gI_
Width: 1098
VWidth: 0
GlyphClass: 2
Flags: W
LayerCount: 2
Fore
SplineSet
863 681 m 257
 910 681 936 644 936 582 c 258
 936 0 l 257
 1058 0 l 257
 1058 585 l 258
 1058 686 1010 803 863 803 c 257
 863 681 l 257
735 0 m 257
 857 0 l 257
 857 595 l 257
 736 595 l 257
 722 595 705 688 809 688 c 257
 809 810 l 257
 547 810 554 466 735 466 c 257
 735 0 l 257
EndSplineSet
Refer: 93 2969 N 1 0 0 1 1 0 2
EndChar

StartChar: tml_NgIi
Encoding: 90 -1 90
GlifName: tml_N_gI_i
Width: 1092
VWidth: 0
GlyphClass: 2
Flags: W
LayerCount: 2
Fore
SplineSet
862 826 m 257
 919 826 935 792 935 777 c 256
 935 756 924 737 901 737 c 256
 876 737 867 754 867 770 c 256
 791 679 l 257
 803 656 853 618 898 618 c 256
 1108 618 1115 950 855 950 c 257
 594 950 542 610 735 502 c 257
 842 595 l 257
 695 629 711 826 862 826 c 257
EndSplineSet
Refer: 93 2969 N 1 0 0 1 1 0 2
EndChar

StartChar: tml_NgU
Encoding: 91 -1 91
GlifName: tml_N_gU_
Width: 827
VWidth: 0
GlyphClass: 2
Flags: W
LayerCount: 2
Fore
SplineSet
665 -257 m 257
 787 -257 l 257
 787 595 l 257
 665 595 l 257
 665 -257 l 257
319 0 m 257
 667 0 l 257
 667 122 l 257
 319 122 l 257
 319 0 l 257
276 0 m 257
 457 0 l 258
 551 0 612 43 612 111 c 258
 612 229 l 258
 612 322 528 354 458 354 c 257
 458 231 l 256
 493 230 489 232 489 211 c 258
 489 145 l 258
 489 126 493 122 435 122 c 258
 276 122 l 257
 276 0 l 257
282 176 m 257
 404 176 l 257
 404 589 l 257
 282 589 l 257
 282 176 l 257
40 0 m 257
 162 0 l 257
 162 591 l 257
 40 591 l 257
 40 0 l 257
40 595 m 257
 41 473 l 257
 513 473 l 257
 513 595 l 257
 40 595 l 257
EndSplineSet
EndChar

StartChar: tml_NgUu
Encoding: 92 -1 92
GlifName: tml_N_gU_u
Width: 1067
VWidth: 0
GlyphClass: 2
Flags: W
HStem: -321 113 -106 92<155 166> -2 92 0 122<101 495 223 495 337 495 495 518 380 495 495 728 518 565> 473 122<102 573>
VStem: 30 94 101 122<0 591 0 591 0 595> 200 88<-142 -134 -134 -131> 343 122<176 589 176 589> 550 123<135.5 145 145 211> 726 2<0 122 0 595> 845 3<-2 120 -2 -2> 911 109
LayerCount: 2
Fore
SplineSet
164 -331 m 258
 492 -331 l 257
 492 -208 l 257
 162 -208 l 258
 144 -208 124 -188 124 -154 c 256
 124 -122 144 -106 166 -106 c 257
 188 -107 200 -120 200 -142 c 256
 288 -142 l 256
 288 -134 l 258
 288 -61 241 -14 166 -14 c 257
 95 -14 20 -54 20 -128 c 258
 20 -204 l 258
 20 -288 70 -331 164 -331 c 258
546 -208 m 256
 546 -331 l 257
 911 -331 l 258
 974 -331 1030 -279 1030 -227 c 258
 1030 40 l 258
 1030 90 981 120 917 120 c 258
 845 120 l 257
 845 -2 l 256
 911 -2 l 256
 911 -208 l 256
 546 -208 l 256
726 -153 m 257
 848 -153 l 257
 848 595 l 257
 726 595 l 257
 726 -153 l 257
380 0 m 257
 728 0 l 257
 728 122 l 257
 380 122 l 257
 380 0 l 257
337 0 m 257
 518 0 l 258
 612 0 673 43 673 111 c 258
 673 229 l 258
 673 322 589 354 519 354 c 257
 519 231 l 256
 554 230 550 232 550 211 c 258
 550 145 l 258
 550 126 553 122 495 122 c 258
 337 122 l 257
 337 0 l 257
343 176 m 257
 465 176 l 257
 465 589 l 257
 343 589 l 257
 343 176 l 257
101 0 m 257
 223 0 l 257
 223 591 l 257
 101 591 l 257
 101 0 l 257
101 595 m 257
 102 473 l 257
 573 473 l 257
 573 595 l 257
 101 595 l 257
EndSplineSet
PickledDataWithLists: "(dp1
S'com.fontlab.hintData'
p2
(dp3
S'vhints'
p4
(lp5
(dp6
S'position'
p7
L30L
sS'width'
p8
L94L
sa(dp9
g7
L101L
sg8
L122L
sa(dp10
g7
L200L
sg8
L88L
sa(dp11
g7
L343L
sg8
L122L
sa(dp12
g7
L550L
sg8
L123L
sa(dp13
g7
L726L
sg8
L2L
sa(dp14
g7
L845L
sg8
L3L
sa(dp15
g7
L911L
sg8
L109L
sasS'hhints'
p16
(lp17
(dp18
g7
L-321L
sg8
L113L
sa(dp19
g7
L-106L
sg8
L92L
sa(dp20
g7
L-2L
sg8
L92L
sa(dp21
g7
L0L
sg8
L122L
sa(dp22
g7
L473L
sg8
L122L
sass."
EndChar

StartChar: tml_Nga
Encoding: 93 2969 93
GlifName: tml_N_ga
Width: 895
VWidth: 0
GlyphClass: 2
Flags: W
HStem: 0 122<39 448 161 448 275 448 448 471 333 448 448 681 471 518>
VStem: 503 123<135.5 145 145 211> 734 122<0 595 0 595>
AnchorPoint: "tml_virama" 301 0 basechar 0
LayerCount: 2
Fore
SplineSet
734 0 m 257
 856 0 l 257
 856 595 l 257
 734 595 l 257
 734 0 l 257
333 0 m 257
 681 0 l 257
 681 122 l 257
 333 122 l 257
 333 0 l 257
275 0 m 257
 471 0 l 258
 565 0 626 43 626 111 c 258
 626 229 l 258
 626 322 543 354 457 354 c 257
 457 231 l 256
 507 231 503 232 503 211 c 258
 503 145 l 258
 503 126 506 122 448 122 c 256
 381 122 308 122 275 122 c 257
 275 0 l 257
281 162 m 257
 403 162 l 257
 403 589 l 257
 281 589 l 257
 281 162 l 257
39 0 m 257
 161 0 l 257
 161 591 l 257
 39 591 l 257
 39 0 l 257
39 595 m 257
 40 473 l 257
 512 473 l 257
 512 595 l 257
 39 595 l 257
EndSplineSet
PickledDataWithLists: "(dp1
S'com.fontlab.hintData'
p2
(dp3
S'vhints'
p4
(lp5
(dp6
S'position'
p7
L503L
sS'width'
p8
L123L
sa(dp9
g7
L734L
sg8
L122L
sasS'hhints'
p10
(lp11
(dp12
g7
L0L
sg8
L122L
sass."
EndChar

StartChar: tml_Nine
Encoding: 94 3055 94
GlifName: tml_N_ine
Width: 977
VWidth: 0
GlyphClass: 2
Flags: W
LayerCount: 2
Fore
SplineSet
555 249 m 257
 728 249 l 258
 784 249 816 242 816 204 c 256
 816 186 805 172 782 172 c 256
 760 172 748 185 748 205 c 256
 626 205 l 257
 626 120 698 50 767 50 c 258
 795 50 l 258
 850 50 938 101 938 205 c 258
 938 215 l 258
 938 348 842 371 731 371 c 258
 555 371 l 257
 555 249 l 257
39 157 m 258
 39 68 112 0 269 -1 c 257
 269 122 l 257
 180 122 160 127 160 188 c 256
 160 239 174 249 238 249 c 258
 643 249 l 257
 643 371 l 257
 235 371 l 258
 149 371 39 326 39 218 c 258
 39 157 l 258
322 -1 m 257
 489 -1 541 95 541 191 c 258
 541 588 l 257
 419 588 l 257
 419 187 l 258
 419 141 388 122 322 122 c 257
 322 -1 l 257
164 348 m 257
 286 348 l 257
 287 586 l 257
 164 586 l 257
 164 348 l 257
164 470 m 257
 327 470 l 257
 327 595 l 257
 164 595 l 257
 164 470 l 257
381 470 m 257
 688 470 l 257
 688 595 l 257
 381 595 l 257
 381 470 l 257
EndSplineSet
EndChar

StartChar: tml_NnAa.alt
Encoding: 95 -1 95
GlifName: tml_N_nA_a.alt
Width: 1616
VWidth: 0
GlyphClass: 2
Flags: W
LayerCount: 2
Fore
SplineSet
40 6 m 258
 40 -133 125 -200 234 -200 c 258
 797 -200 l 257
 797 -78 l 257
 250 -78 l 258
 186 -78 163 -58 163 6 c 258
 163 513 l 258
 163 549 166 603 240 603 c 257
 292 603 l 257
 328 726 l 257
 239 726 l 257
 154 726 40 676 40 513 c 258
 40 6 l 258
852 -78 m 257
 852 -200 l 257
 1389 -200 l 258
 1515 -200 1576 -105 1576 -38 c 258
 1576 141 l 258
 1576 249 1474 286 1412 292 c 257
 1412 165 l 257
 1434 165 1454 157 1454 107 c 258
 1454 6 l 258
 1454 -37 1457 -78 1388 -78 c 258
 852 -78 l 257
218 166 m 257
 218 81 268 -1 363 -1 c 256
 363 121 l 257
 338 121 340 155 340 167 c 258
 340 289 l 258
 340 475 433 472 513 472 c 257
 513 595 l 257
 444 595 218 595 218 289 c 258
 218 166 l 257
388 341 m 257
 409 341 441 341 441 289 c 258
 441 166 l 258
 441 155 445 121 417 121 c 256
 417 -1 l 257
 514 -1 563 74 563 166 c 258
 563 289 l 258
 563 377 540 436 473 436 c 257
 416 431 385 375 388 341 c 257
601 167 m 257
 601 82 651 0 746 0 c 256
 746 122 l 257
 721 122 723 156 723 168 c 258
 723 289 l 258
 723 475 845 472 934 472 c 257
 934 595 l 257
 869 595 601 590 601 287 c 258
 601 167 l 257
567 472 m 257
 700 471 824 475 824 289 c 258
 824 167 l 258
 824 156 827 122 799 122 c 256
 799 0 l 257
 896 0 946 75 946 167 c 258
 946 300 l 258
 946 585 709 595 567 595 c 257
 567 472 l 257
986 168 m 257
 986 83 1036 1 1131 1 c 256
 1131 123 l 257
 1106 123 1108 157 1108 169 c 258
 1108 290 l 258
 1108 476 1230 473 1318 473 c 257
 1318 595 l 257
 1254 595 986 591 986 288 c 258
 986 168 l 257
988 473 m 257
 1111 473 1208 476 1208 290 c 258
 1208 168 l 258
 1208 157 1213 123 1185 123 c 256
 1185 1 l 257
 1282 1 1331 76 1331 168 c 258
 1331 301 l 258
 1331 586 1120 595 988 595 c 257
 988 473 l 257
1412 169 m 257
 1516 169 1566 244 1566 336 c 258
 1566 413 l 258
 1566 555 1469 584 1373 590 c 257
 1373 468 l 257
 1434 464 1443 432 1443 413 c 258
 1443 336 l 258
 1443 325 1448 291 1412 291 c 256
 1412 169 l 257
EndSplineSet
EndChar

StartChar: tml_NnAi
Encoding: 96 -1 96
GlifName: tml_N_nA_i
Width: 1795
VWidth: 0
GlyphClass: 2
Flags: W
LayerCount: 2
Fore
SplineSet
443 43 m 257
 396 174 l 257
 333 72 101 73 206 244 c 256
 428 584 l 257
 511 740 415 941 221 941 c 256
 -7 941 -26 606 200 606 c 256
 245 606 292 634 302 677 c 257
 231 760 l 256
 231 744 222 727 197 727 c 256
 174 727 163 746 163 767 c 256
 163 782 174 816 231 816 c 257
 302 816 388 741 292 583 c 256
 93 298 l 258
 -68 67 192 -130 443 43 c 257
372 166 m 257
 372 81 422 -1 517 -1 c 256
 517 121 l 257
 492 121 494 155 494 167 c 258
 494 289 l 258
 494 475 587 472 667 472 c 257
 667 595 l 257
 598 595 372 595 372 289 c 258
 372 166 l 257
542 341 m 257
 563 341 595 341 595 289 c 258
 595 166 l 258
 595 155 599 121 571 121 c 256
 571 -1 l 257
 668 -1 717 74 717 166 c 258
 717 289 l 258
 717 377 694 436 627 436 c 257
 570 431 539 375 542 341 c 257
721 472 m 257
 854 471 978 475 978 289 c 258
 978 167 l 258
 978 156 981 122 953 122 c 256
 953 0 l 257
 1050 0 1100 75 1100 167 c 258
 1100 300 l 258
 1100 585 863 595 721 595 c 257
 721 472 l 257
755 167 m 257
 755 82 805 0 900 0 c 256
 900 122 l 257
 875 122 877 156 877 168 c 258
 877 289 l 258
 877 475 999 472 1088 472 c 257
 1088 595 l 257
 1023 595 755 590 755 287 c 258
 755 167 l 257
1140 168 m 257
 1140 83 1190 1 1285 1 c 256
 1285 123 l 257
 1260 123 1262 157 1262 169 c 258
 1262 290 l 258
 1262 476 1384 473 1472 473 c 257
 1472 595 l 257
 1408 595 1140 591 1140 288 c 258
 1140 168 l 257
1142 473 m 257
 1265 473 1362 476 1362 290 c 258
 1362 168 l 258
 1362 157 1367 123 1339 123 c 256
 1339 1 l 257
 1436 1 1485 76 1485 168 c 258
 1485 301 l 258
 1485 586 1274 595 1142 595 c 257
 1142 473 l 257
1536 1 m 257
 1658 1 l 257
 1658 563 l 257
 1536 563 l 257
 1536 1 l 257
1527 473 m 257
 1755 472 l 257
 1755 595 l 257
 1527 595 l 257
 1527 473 l 257
EndSplineSet
EndChar

StartChar: tml_NnI
Encoding: 97 -1 97
GlifName: tml_N_nI_
Width: 1660
VWidth: 0
GlyphClass: 2
Flags: HW
LayerCount: 2
Fore
SplineSet
1140 473 m 257
 1423 472 l 257
 1423 595 l 257
 1140 595 l 257
 1076 595 808 591 808 288 c 258
 808 168 l 257
 808 83 858 1 953 1 c 256
 953 123 l 257
 928 123 930 157 930 169 c 258
 930 290 l 258
 930 476 1052 473 1140 473 c 257
40 166 m 257
 40 81 90 -1 185 -1 c 256
 185 121 l 257
 160 121 162 155 162 167 c 258
 162 289 l 258
 162 475 255 472 335 472 c 257
 335 595 l 257
 266 595 40 595 40 289 c 258
 40 166 l 257
210 341 m 257
 231 341 263 341 263 289 c 258
 263 166 l 258
 263 155 267 121 239 121 c 256
 239 -1 l 257
 336 -1 385 74 385 166 c 258
 385 289 l 258
 385 377 362 436 295 436 c 257
 238 431 207 375 210 341 c 257
423 167 m 257
 423 82 473 0 568 0 c 256
 568 122 l 257
 543 122 545 156 545 168 c 258
 545 289 l 258
 545 475 667 472 756 472 c 257
 756 595 l 257
 691 595 423 590 423 287 c 258
 423 167 l 257
389 472 m 257
 522 471 646 475 646 289 c 258
 646 167 l 258
 646 156 649 122 621 122 c 256
 621 0 l 257
 718 0 768 75 768 167 c 258
 768 300 l 258
 768 585 531 595 389 595 c 257
 389 472 l 257
810 473 m 257
 933 473 1030 476 1030 290 c 258
 1030 168 l 258
 1030 157 1035 123 1007 123 c 256
 1007 1 l 257
 1104 1 1153 76 1153 168 c 258
 1153 301 l 258
 1153 586 942 595 810 595 c 257
 810 473 l 257
1204 583 m 257
 1327 583 l 256
 1327 644 1327 681 1376 681 c 265
 1376 803 l 273
 1225 803 1204 687 1204 583 c 257
1430 681 m 257
 1483 681 1478 644 1478 582 c 258
 1478 0 l 257
 1600 0 l 257
 1600 585 l 258
 1600 688 1583 803 1430 803 c 257
 1430 681 l 257
1204 1 m 257
 1326 1 l 257
 1326 563 l 257
 1204 563 l 257
 1204 1 l 257
EndSplineSet
EndChar

StartChar: tml_NnIi
Encoding: 98 -1 98
GlifName: tml_N_nI_i
Width: 1678
VWidth: 0
GlyphClass: 2
Flags: W
LayerCount: 2
Fore
SplineSet
1251 477 m 257
 1375 477 l 257
 1375 595 l 256
 1300 753 1370 828 1441 828 c 257
 1498 828 1509 794 1509 779 c 256
 1509 758 1498 739 1475 739 c 256
 1450 739 1441 756 1441 772 c 256
 1370 689 l 257
 1380 668 1427 630 1472 630 c 256
 1671 630 1679 943 1451 943 c 256
 1248 943 1177 755 1251 596 c 256
 1251 477 l 257
1188 473 m 257
 1471 473 l 257
 1471 595 l 257
 1188 595 l 257
 1124 595 856 591 856 288 c 258
 856 168 l 257
 856 83 906 1 1001 1 c 256
 1001 123 l 257
 976 123 978 157 978 169 c 258
 978 290 l 258
 978 476 1100 473 1188 473 c 257
88 166 m 257
 88 81 138 -1 233 -1 c 256
 233 121 l 257
 208 121 210 155 210 167 c 258
 210 289 l 258
 210 475 303 472 383 472 c 257
 383 595 l 257
 314 595 88 595 88 289 c 258
 88 166 l 257
258 341 m 257
 279 341 311 341 311 289 c 258
 311 166 l 258
 311 155 315 121 287 121 c 256
 287 -1 l 257
 384 -1 433 74 433 166 c 258
 433 289 l 258
 433 377 410 436 343 436 c 257
 286 431 255 375 258 341 c 257
471 167 m 257
 471 82 521 0 616 0 c 256
 616 122 l 257
 591 122 593 156 593 168 c 258
 593 289 l 258
 593 475 715 472 804 472 c 257
 804 595 l 257
 739 595 471 590 471 287 c 258
 471 167 l 257
437 472 m 257
 570 471 694 475 694 289 c 258
 694 167 l 258
 694 156 697 122 669 122 c 256
 669 0 l 257
 766 0 816 75 816 167 c 258
 816 300 l 258
 816 585 579 595 437 595 c 257
 437 472 l 257
858 473 m 257
 981 473 1078 476 1078 290 c 258
 1078 168 l 258
 1078 157 1083 123 1055 123 c 256
 1055 1 l 257
 1152 1 1201 76 1201 168 c 258
 1201 301 l 258
 1201 586 990 595 858 595 c 257
 858 473 l 257
1252 1 m 257
 1374 1 l 257
 1374 563 l 257
 1252 563 l 257
 1252 1 l 257
EndSplineSet
EndChar

StartChar: tml_NnU
Encoding: 99 -1 99
GlifName: tml_N_nU_
Width: 1596
VWidth: 0
GlyphClass: 2
Flags: W
HStem: -256 94<204 679 734 1192> -119 93<205 1434> 0 122<555.5 568 555.5 568 621 635 555.5 669.5> 470 52 472 122
VStem: 40 122<123.5 289 167 289 167 289> 263 122<160.5 289 166 289> 423 122<124.5 289 168 287> 646 122<161.5 300 167 289> 808 122<125.5 290 169 288> 1030 122 1193 133 1204 122 1380 122
LayerCount: 2
Fore
SplineSet
54 -124 m 258
 54 -157 l 258
 55 -252 171 -256 204 -256 c 258
 679 -256 l 257
 679 -162 l 257
 204 -162 l 258
 166 -162 165 -119 205 -119 c 258
 1556 -119 l 257
 1556 584 l 256
 1434 584 l 256
 1434 -26 l 257
 205 -26 l 258
 117 -26 54 -56 54 -124 c 258
734 -256 m 257
 1193 -256 l 258
 1349 -256 1369 -145 1369 -79 c 257
 1369 389 l 257
 1369 589 1259 595 1193 595 c 257
 1193 473 l 257
 1219 473 1244 472 1244 382 c 258
 1244 -79 l 257
 1244 -109 1241 -162 1192 -162 c 258
 734 -162 l 257
 734 -256 l 257
40 166 m 257
 40 81 90 -1 185 -1 c 256
 185 121 l 257
 160 121 162 155 162 167 c 258
 162 289 l 258
 162 475 255 472 335 472 c 257
 335 595 l 257
 266 595 40 595 40 289 c 258
 40 166 l 257
224 361 m 257
 251 361 263 338 263 289 c 258
 263 166 l 258
 263 155 267 121 239 121 c 256
 239 -1 l 257
 336 -1 385 74 385 166 c 258
 385 289 l 258
 385 376 355 434 309 434 c 257
 224 361 l 257
423 167 m 257
 423 82 473 0 568 0 c 256
 568 122 l 257
 543 122 545 156 545 168 c 258
 545 289 l 258
 545 475 667 472 756 472 c 257
 756 595 l 257
 691 595 423 590 423 287 c 258
 423 167 l 257
389 472 m 257
 522 471 646 475 646 289 c 258
 646 167 l 258
 646 156 649 122 621 122 c 256
 621 0 l 257
 718 0 768 75 768 167 c 258
 768 300 l 258
 768 585 531 595 389 595 c 257
 389 472 l 257
953 1 m 256
 953 123 l 257
 928 123 930 157 930 169 c 258
 930 290 l 258
 930 476 1052 473 1140 473 c 257
 1140 595 l 257
 1076 595 808 591 808 288 c 258
 808 168 l 257
 808 83 858 1 953 1 c 256
810 473 m 257
 933 473 1030 476 1030 290 c 258
 1030 168 l 258
 1030 157 1035 123 1007 123 c 256
 1007 1 l 257
 1104 1 1153 76 1153 168 c 258
 1153 301 l 258
 1153 586 942 595 810 595 c 257
 810 473 l 257
EndSplineSet
PickledDataWithLists: "(dp1
S'com.fontlab.hintData'
p2
(dp3
S'vhints'
p4
(lp5
(dp6
S'position'
p7
L40L
sS'width'
p8
L122L
sa(dp9
g7
L263L
sg8
L122L
sa(dp10
g7
L423L
sg8
L122L
sa(dp11
g7
L646L
sg8
L122L
sa(dp12
g7
L808L
sg8
L122L
sa(dp13
g7
L1030L
sg8
L122L
sa(dp14
g7
L1193L
sg8
L133L
sa(dp15
g7
L1204L
sg8
L122L
sa(dp16
g7
L1380L
sg8
L122L
sasS'hhints'
p17
(lp18
(dp19
g7
L-256L
sg8
L94L
sa(dp20
g7
L-119L
sg8
L93L
sa(dp21
g7
L0L
sg8
L122L
sa(dp22
g7
L470L
sg8
L52L
sa(dp23
g7
L472L
sg8
L122L
sass."
EndChar

StartChar: tml_NnUu
Encoding: 100 -1 100
GlifName: tml_N_nU_u
Width: 1959
VWidth: 0
GlyphClass: 2
Flags: W
LayerCount: 2
Fore
SplineSet
1434 473 m 257
 1613 473 l 257
 1613 595 l 257
 1434 595 l 257
 1434 473 l 257
1718 -113 m 257
 1840 -113 l 257
 1840 593 l 257
 1718 593 l 257
 1718 -113 l 257
1667 473 m 257
 1924 473 l 257
 1924 595 l 257
 1667 595 l 257
 1667 473 l 257
EndSplineSet
Refer: 99 -1 N 1 0 0 1 0 0 2
EndChar

StartChar: tml_Nna
Encoding: 101 2979 101
GlifName: tml_N_na
Width: 1460
VWidth: 0
GlyphClass: 2
Flags: W
HStem: -12 122 1 21<904.5 952 1006 1054.5 1203 1325 1325 1325> 484 122 484 90
VStem: 39 122<123.5 289 167 289 167 289> 262 122<160.5 289 166 289> 422 122<124.5 289 168 287> 645 122<161.5 300 167 289> 807 122<125.5 290 169 288> 1029 122 1203 122<1 563 1 563>
AnchorPoint: "tml_virama" 781 0 basechar 0
LayerCount: 2
Fore
SplineSet
39 166 m 257
 39 81 89 -1 184 -1 c 256
 184 121 l 257
 159 121 161 155 161 167 c 258
 161 289 l 258
 161 475 254 472 334 472 c 257
 334 595 l 257
 265 595 39 595 39 289 c 258
 39 166 l 257
209 341 m 257
 230 341 262 341 262 289 c 258
 262 166 l 258
 262 155 266 121 238 121 c 256
 238 -1 l 257
 335 -1 384 74 384 166 c 258
 384 289 l 258
 384 377 361 436 294 436 c 257
 237 431 206 375 209 341 c 257
422 167 m 257
 422 82 472 0 567 0 c 256
 567 122 l 257
 542 122 544 156 544 168 c 258
 544 289 l 258
 544 475 666 472 755 472 c 257
 755 595 l 257
 690 595 422 590 422 287 c 258
 422 167 l 257
388 472 m 257
 521 471 645 475 645 289 c 258
 645 167 l 258
 645 156 648 122 620 122 c 256
 620 0 l 257
 717 0 767 75 767 167 c 258
 767 300 l 258
 767 585 530 595 388 595 c 257
 388 472 l 257
809 473 m 257
 932 473 1029 476 1029 290 c 258
 1029 168 l 258
 1029 157 1034 123 1006 123 c 256
 1006 1 l 257
 1103 1 1152 76 1152 168 c 258
 1152 301 l 258
 1152 586 941 595 809 595 c 257
 809 473 l 257
807 168 m 257
 807 83 857 1 952 1 c 256
 952 123 l 257
 927 123 929 157 929 169 c 258
 929 290 l 258
 929 476 1051 473 1139 473 c 257
 1139 595 l 257
 1075 595 807 591 807 288 c 258
 807 168 l 257
1203 1 m 257
 1325 1 l 257
 1325 563 l 257
 1203 563 l 257
 1203 1 l 257
1194 473 m 257
 1422 472 l 257
 1422 595 l 257
 1194 595 l 257
 1194 473 l 257
EndSplineSet
PickledDataWithLists: "(dp1
S'com.fontlab.hintData'
p2
(dp3
S'vhints'
p4
(lp5
(dp6
S'position'
p7
L39L
sS'width'
p8
L122L
sa(dp9
g7
L262L
sg8
L122L
sa(dp10
g7
L422L
sg8
L122L
sa(dp11
g7
L645L
sg8
L122L
sa(dp12
g7
L807L
sg8
L122L
sa(dp13
g7
L1029L
sg8
L122L
sa(dp14
g7
L1203L
sg8
L122L
sasS'hhints'
p15
(lp16
(dp17
g7
L-12L
sg8
L122L
sa(dp18
g7
L1L
sg8
L21L
sa(dp19
g7
L484L
sg8
L122L
sa(dp20
g7
L484L
sg8
L90L
sass."
EndChar

StartChar: tml_NnnAa.alt
Encoding: 102 -1 102
GlifName: tml_N_nnA_a.alt
Width: 1616
VWidth: 0
GlyphClass: 2
Flags: W
LayerCount: 2
Fore
SplineSet
40 6 m 258
 40 -133 125 -200 234 -200 c 258
 632 -200 l 257
 632 -78 l 257
 250 -78 l 258
 186 -78 163 -58 163 6 c 258
 163 519 l 258
 163 555 166 609 240 609 c 257
 292 609 l 257
 328 732 l 257
 239 732 l 257
 154 732 40 682 40 519 c 258
 40 6 l 258
701 -78 m 257
 701 -200 l 257
 993 -200 l 258
 1119 -200 1180 -105 1180 -38 c 258
 1180 147 l 258
 1180 255 1078 292 1016 298 c 257
 1016 171 l 257
 1038 171 1058 163 1058 113 c 258
 1058 6 l 258
 1058 -37 1061 -78 992 -78 c 258
 701 -78 l 257
215 156 m 257
 215 71 266 -11 361 -11 c 256
 361 111 l 257
 336 111 337 145 337 157 c 258
 337 290 l 258
 337 476 430 483 510 483 c 257
 510 605 l 257
 441 605 215 596 215 290 c 258
 215 156 l 257
385 342 m 257
 406 342 438 342 438 290 c 258
 438 156 l 258
 438 145 442 112 414 112 c 256
 414 -11 l 257
 511 -11 560 64 560 156 c 258
 560 290 l 258
 560 378 537 437 470 437 c 257
 413 432 382 376 385 342 c 257
564 483 m 257
 697 482 821 476 821 290 c 258
 821 157 l 258
 821 146 825 112 797 112 c 256
 797 -11 l 257
 894 -11 943 65 943 157 c 258
 943 301 l 258
 943 586 706 605 564 605 c 257
 564 483 l 257
598 157 m 257
 598 72 648 -11 743 -11 c 256
 743 112 l 257
 718 112 720 146 720 158 c 258
 720 290 l 258
 720 477 842 484 923 484 c 257
 923 606 l 257
 864 606 598 591 598 288 c 258
 598 157 l 257
1016 175 m 257
 1120 175 1170 250 1170 342 c 258
 1170 419 l 258
 1170 561 1073 590 977 596 c 257
 977 474 l 257
 1038 470 1047 438 1047 419 c 258
 1047 342 l 258
 1047 331 1052 297 1016 297 c 256
 1016 175 l 257
EndSplineSet
EndChar

StartChar: tml_NnnAi
Encoding: 103 -1 103
GlifName: tml_N_nnA_i
Width: 1795
VWidth: 0
GlyphClass: 2
Flags: W
LayerCount: 2
Fore
SplineSet
443 43 m 257
 396 174 l 257
 333 72 101 73 206 244 c 256
 428 584 l 257
 511 740 415 941 221 941 c 256
 -7 941 -26 606 200 606 c 256
 245 606 292 634 302 677 c 257
 231 760 l 256
 231 744 222 727 197 727 c 256
 174 727 163 746 163 767 c 256
 163 782 174 816 231 816 c 257
 302 816 388 741 292 583 c 256
 93 298 l 258
 -68 67 192 -130 443 43 c 257
369 153 m 257
 369 68 420 -14 515 -14 c 256
 515 108 l 257
 490 108 491 142 491 154 c 258
 491 290 l 258
 491 476 584 483 664 483 c 257
 664 605 l 257
 595 605 369 596 369 290 c 258
 369 153 l 257
539 342 m 257
 560 342 592 342 592 290 c 258
 592 154 l 258
 592 143 596 109 568 109 c 256
 568 -14 l 257
 665 -14 714 62 714 154 c 258
 714 290 l 258
 714 378 691 437 624 437 c 257
 567 432 536 376 539 342 c 257
718 483 m 257
 851 482 975 476 975 290 c 258
 975 154 l 258
 975 143 979 109 951 109 c 256
 951 -13 l 257
 1048 -13 1097 62 1097 154 c 258
 1097 301 l 258
 1097 586 860 605 718 605 c 257
 718 483 l 257
752 154 m 257
 752 69 802 -13 897 -13 c 256
 897 109 l 257
 872 109 874 143 874 155 c 258
 874 290 l 258
 874 477 996 484 1077 484 c 257
 1077 606 l 257
 1018 606 752 591 752 288 c 258
 752 154 l 257
1148 0 m 257
 1270 0 l 257
 1270 573 l 257
 1148 573 l 257
 1148 0 l 257
1130 483 m 257
 1366 482 l 257
 1366 605 l 257
 1130 605 l 257
 1130 483 l 257
EndSplineSet
EndChar

StartChar: tml_NnnI
Encoding: 104 -1 104
GlifName: tml_N_nnI_
Width: 1268
VWidth: 0
GlyphClass: 2
Flags: HW
LayerCount: 2
Fore
SplineSet
1045 679 m 257
 1098 679 1093 642 1093 580 c 258
 1093 0 l 257
 1215 0 l 257
 1215 583 l 258
 1215 686 1198 801 1045 801 c 257
 1045 679 l 257
819 581 m 257
 942 581 l 256
 942 642 942 679 991 679 c 265
 991 801 l 273
 840 801 819 685 819 581 c 257
EndSplineSet
Refer: 108 2985 N 1 0 0 1 0 0 2
EndChar

StartChar: tml_NnnIi
Encoding: 105 -1 105
GlifName: tml_N_nnI_i
Width: 1225
VWidth: 0
GlyphClass: 2
Flags: W
LayerCount: 2
Fore
SplineSet
818 488 m 257
 942 488 l 257
 942 606 l 256
 867 764 937 839 1008 839 c 257
 1065 839 1076 805 1076 790 c 256
 1076 769 1065 750 1042 750 c 256
 1017 750 1008 767 1008 783 c 256
 937 700 l 257
 947 679 994 641 1039 641 c 256
 1238 641 1246 954 1018 954 c 256
 815 954 744 766 818 607 c 256
 818 488 l 257
EndSplineSet
Refer: 108 2985 N 1 0 0 1 0 0 2
EndChar

StartChar: tml_NnnU
Encoding: 106 -1 106
GlifName: tml_N_nnU_
Width: 1239
VWidth: 0
GlyphClass: 2
Flags: W
HStem: -256 94<190 453 507 812> -119 93<191 1053> 0 122<556.5 569 556.5 569 623 637 556.5 671.5> 470 52 472 122
VStem: 40 122 263 122 423 122 646 122 808 122 1030 122 1193 133 1204 122 1380 122
LayerCount: 2
Fore
SplineSet
40 -124 m 258
 40 -157 l 258
 41 -252 157 -256 190 -256 c 258
 453 -256 l 257
 453 -162 l 257
 190 -162 l 258
 152 -162 151 -119 191 -119 c 258
 1175 -119 l 257
 1175 584 l 256
 1053 584 l 256
 1053 -26 l 257
 191 -26 l 258
 103 -26 40 -56 40 -124 c 258
507 -256 m 257
 813 -256 l 258
 969 -256 989 -145 989 -79 c 257
 989 389 l 257
 989 588 879 595 813 595 c 257
 813 473 l 257
 839 472 864 472 864 382 c 258
 864 -79 l 257
 864 -109 861 -162 812 -162 c 258
 507 -162 l 257
 507 -256 l 257
41 166 m 257
 41 81 92 -1 187 -1 c 256
 187 121 l 257
 162 121 163 155 163 167 c 258
 163 300 l 258
 163 486 256 483 336 483 c 257
 336 605 l 257
 267 605 41 606 41 300 c 258
 41 166 l 257
211 352 m 257
 232 352 264 352 264 300 c 258
 264 166 l 258
 264 155 268 121 240 121 c 256
 240 -1 l 257
 337 -1 386 74 386 166 c 258
 386 300 l 258
 386 388 363 446 296 446 c 257
 239 441 208 386 211 352 c 257
569 0 m 256
 569 122 l 257
 544 122 546 156 546 168 c 258
 546 300 l 258
 546 486 670 483 753 483 c 257
 753 605 l 257
 693 605 424 601 424 298 c 258
 424 167 l 257
 424 82 474 0 569 0 c 256
390 483 m 257
 523 482 647 486 647 300 c 258
 647 167 l 258
 647 156 651 122 623 122 c 256
 623 0 l 257
 720 0 769 75 769 167 c 258
 769 311 l 258
 769 596 532 605 390 605 c 257
 390 483 l 257
EndSplineSet
PickledDataWithLists: "(dp1
S'com.fontlab.hintData'
p2
(dp3
S'vhints'
p4
(lp5
(dp6
S'position'
p7
L40L
sS'width'
p8
L122L
sa(dp9
g7
L263L
sg8
L122L
sa(dp10
g7
L423L
sg8
L122L
sa(dp11
g7
L646L
sg8
L122L
sa(dp12
g7
L808L
sg8
L122L
sa(dp13
g7
L1030L
sg8
L122L
sa(dp14
g7
L1193L
sg8
L133L
sa(dp15
g7
L1204L
sg8
L122L
sa(dp16
g7
L1380L
sg8
L122L
sasS'hhints'
p17
(lp18
(dp19
g7
L-256L
sg8
L94L
sa(dp20
g7
L-119L
sg8
L93L
sa(dp21
g7
L0L
sg8
L122L
sa(dp22
g7
L470L
sg8
L52L
sa(dp23
g7
L472L
sg8
L122L
sass."
EndChar

StartChar: tml_NnnUu
Encoding: 107 -1 107
GlifName: tml_N_nnU_u
Width: 1580
VWidth: 0
GlyphClass: 2
Flags: W
HStem: -256 94 -119 93 0 122 470 52 473 122<1053 1232 1053 1232 1285 1543> 473 111
VStem: 39 122 262 122 422 122 645 122 807 122 1029 122 1192 133 1203 122 1379 179 1379 122
LayerCount: 2
Fore
SplineSet
1337 -117 m 257
 1459 -117 l 257
 1459 593 l 257
 1337 593 l 257
 1337 -117 l 257
1285 473 m 257
 1543 473 l 257
 1543 595 l 257
 1285 595 l 257
 1285 473 l 257
1053 473 m 257
 1232 473 l 257
 1232 595 l 257
 1053 595 l 257
 1053 473 l 257
EndSplineSet
Refer: 106 -1 N 1 0 0 1 0 0 2
PickledDataWithLists: "(dp1
S'com.fontlab.hintData'
p2
(dp3
S'vhints'
p4
(lp5
(dp6
S'position'
p7
L39L
sS'width'
p8
L122L
sa(dp9
g7
L262L
sg8
L122L
sa(dp10
g7
L422L
sg8
L122L
sa(dp11
g7
L645L
sg8
L122L
sa(dp12
g7
L807L
sg8
L122L
sa(dp13
g7
L1029L
sg8
L122L
sa(dp14
g7
L1192L
sg8
L133L
sa(dp15
g7
L1203L
sg8
L122L
sa(dp16
g7
L1379L
sg8
L179L
sa(dp17
g7
L1379L
sg8
L122L
sasS'hhints'
p18
(lp19
(dp20
g7
L-256L
sg8
L94L
sa(dp21
g7
L-119L
sg8
L93L
sa(dp22
g7
L0L
sg8
L122L
sa(dp23
g7
L470L
sg8
L52L
sa(dp24
g7
L473L
sg8
L122L
sa(dp25
g7
L473L
sg8
L111L
sass."
EndChar

StartChar: tml_Nnna
Encoding: 108 2985 108
GlifName: tml_N_nna
Width: 1078
VWidth: 0
GlyphClass: 2
Flags: W
HStem: -14 122<173.5 186 173.5 186 173.5 287.5> 0 21<819 941 941 941> 483 90<801 941> 483 122<300.5 335 300.5 335 300.5 389>
VStem: 40 122<110.5 290 154 290 154 290> 263 122<148.5 290 154 290> 423 122<111.5 290 155 288> 646 122<148.5 301 154 290> 819 122<0 573 0 573>
AnchorPoint: "tml_virama" 581 0 basechar 0
LayerCount: 2
Fore
SplineSet
423 154 m 257
 423 69 473 -13 568 -13 c 256
 568 109 l 257
 543 109 545 143 545 155 c 258
 545 290 l 258
 545 477 667 484 748 484 c 257
 748 606 l 257
 689 606 423 591 423 288 c 258
 423 154 l 257
389 483 m 257
 522 482 646 476 646 290 c 258
 646 154 l 258
 646 143 650 109 622 109 c 256
 622 -13 l 257
 719 -13 768 62 768 154 c 258
 768 301 l 258
 768 586 531 605 389 605 c 257
 389 483 l 257
40 153 m 257
 40 68 91 -14 186 -14 c 256
 186 108 l 257
 161 108 162 142 162 154 c 258
 162 290 l 258
 162 476 255 483 335 483 c 257
 335 605 l 257
 266 605 40 596 40 290 c 258
 40 153 l 257
210 342 m 257
 231 342 263 342 263 290 c 258
 263 154 l 258
 263 143 267 109 239 109 c 256
 239 -14 l 257
 336 -14 385 62 385 154 c 258
 385 290 l 258
 385 378 362 437 295 437 c 257
 238 432 207 376 210 342 c 257
801 483 m 257
 1037 482 l 257
 1037 605 l 257
 801 605 l 257
 801 483 l 257
819 0 m 257
 941 0 l 257
 941 573 l 257
 819 573 l 257
 819 0 l 257
EndSplineSet
PickledDataWithLists: "(dp1
S'com.fontlab.hintData'
p2
(dp3
S'vhints'
p4
(lp5
(dp6
S'position'
p7
L40L
sS'width'
p8
L122L
sa(dp9
g7
L263L
sg8
L122L
sa(dp10
g7
L423L
sg8
L122L
sa(dp11
g7
L646L
sg8
L122L
sa(dp12
g7
L819L
sg8
L122L
sasS'hhints'
p13
(lp14
(dp15
g7
L-14L
sg8
L122L
sa(dp16
g7
L0L
sg8
L21L
sa(dp17
g7
L483L
sg8
L90L
sa(dp18
g7
L483L
sg8
L122L
sass."
EndChar

StartChar: tml_Number
Encoding: 109 3066 109
GlifName: tml_N_umber
Width: 1134
VWidth: 0
GlyphClass: 2
Flags: W
LayerCount: 2
Fore
SplineSet
419 590 m 258
 407 640 429 688 480 688 c 256
 480 688 480 810 480 810 c 257
 249 810 257 484 444 484 c 257
 419 590 l 258
921 654 m 256
 921 778 844 808 754 808 c 258
 530 808 l 257
 530 688 l 257
 750 688 l 258
 793 688 818 684 818 653 c 256
 818 639 804 621 785 621 c 256
 767 621 749 634 749 654 c 256
 647 654 l 257
 647 568 722 528 781 528 c 256
 853 528 921 576 921 654 c 256
1118 600 m 257
 1118 703 l 256
 1053 705 1048 704 1048 745 c 258
 1048 830 l 258
 1048 972 980 1037 834 1037 c 256
 702 1037 646 936 646 826 c 256
 749 826 l 257
 749 892 773 932 834 932 c 256
 896 932 945 908 945 830 c 258
 945 745 l 258
 945 635 1025 600 1118 600 c 257
EndSplineSet
Refer: 88 2984 N 1 0 0 1 6 0 2
EndChar

StartChar: tml_NyI
Encoding: 110 -1 110
GlifName: tml_N_yI_
Width: 1341
VWidth: 0
GlyphClass: 2
Flags: HW
LayerCount: 2
Fore
SplineSet
1016 680 m 257
 1082 679 1119 648 1119 581 c 258
 1119 0 l 257
 1241 0 l 257
 1241 584 l 258
 1241 685 1188 802 1016 802 c 257
 1016 680 l 257
734 582 m 257
 857 582 l 256
 857 643 896 680 962 680 c 265
 962 802 l 273
 794 802 734 686 734 582 c 257
EndSplineSet
Refer: 114 2974 N 1 0 0 1 10.006 0 2
EndChar

StartChar: tml_NyIi
Encoding: 111 -1 111
GlifName: tml_N_yI_i
Width: 1088
VWidth: 0
GlyphClass: 2
Flags: W
LayerCount: 2
Fore
SplineSet
720 473 m 257
 845 473 l 257
 844 595 l 256
 769 753 839 828 910 828 c 257
 967 828 978 794 978 779 c 256
 978 758 967 739 944 739 c 256
 919 739 910 756 910 772 c 256
 839 689 l 257
 849 668 896 630 941 630 c 256
 1140 630 1148 943 920 943 c 256
 717 943 646 755 720 596 c 256
 720 473 l 257
EndSplineSet
Refer: 114 2974 N 1 0 0 1 0 0 2
EndChar

StartChar: tml_NyU
Encoding: 112 -1 112
GlifName: tml_N_yU_
Width: 1034
VWidth: 0
GlyphClass: 2
Flags: W
HStem: -257 94<190 396 449 644> 1 122 238 123 472 105 472 123
VStem: 40 124 40 131 40 171 318 123 485 123 696 122<-95 157>
LayerCount: 2
Fore
SplineSet
449 -163 m 257
 449 -257 l 257
 645 -257 l 258
 798 -257 818 -146 818 -80 c 258
 818 157 l 257
 818 299 734 323 664 323 c 257
 664 201 l 256
 691 201 697 200 697 154 c 257
 696 -80 l 258
 696 -110 693 -163 644 -163 c 258
 449 -163 l 257
40 -125 m 258
 40 -158 l 258
 41 -253 157 -257 190 -257 c 258
 396 -257 l 257
 396 -163 l 257
 190 -163 l 258
 152 -163 151 -120 191 -120 c 258
 994 -120 l 257
 994 583 l 256
 872 583 l 256
 872 -27 l 257
 191 -27 l 258
 103 -27 40 -57 40 -125 c 258
EndSplineSet
Refer: 20 2958 N 1 0 0 1 1.006 0 2
Refer: 20 2958 N 1 0 0 1 1.006 0 2
PickledDataWithLists: "(dp1
S'com.fontlab.hintData'
p2
(dp3
S'vhints'
p4
(lp5
(dp6
S'position'
p7
L40L
sS'width'
p8
L124L
sa(dp9
g7
L40L
sg8
L131L
sa(dp10
g7
L40L
sg8
L171L
sa(dp11
g7
L318L
sg8
L123L
sa(dp12
g7
L485L
sg8
L123L
sa(dp13
g7
L696L
sg8
L122L
sasS'hhints'
p14
(lp15
(dp16
g7
L-257L
sg8
L94L
sa(dp17
g7
L1L
sg8
L122L
sa(dp18
g7
L238L
sg8
L123L
sa(dp19
g7
L472L
sg8
L105L
sa(dp20
g7
L472L
sg8
L123L
sass."
EndChar

StartChar: tml_NyUu
Encoding: 113 -1 113
GlifName: tml_N_yU_u
Width: 1400
VWidth: 0
GlyphClass: 2
Flags: W
HStem: -257 94<189 395 448 643> 1 122 238 123 472 105 472 123
VStem: 39 124 39 131 39 171 317 123 484 123 695 122<-95 157>
LayerCount: 2
Fore
SplineSet
1155 -110 m 257
 1277 -110 l 257
 1277 593 l 257
 1155 593 l 257
 1155 -110 l 257
1104 473 m 257
 1361 473 l 257
 1361 595 l 257
 1104 595 l 257
 1104 473 l 257
871 473 m 257
 1050 473 l 257
 1050 595 l 257
 871 595 l 257
 871 473 l 257
448 -163 m 257
 448 -257 l 257
 644 -257 l 258
 797 -257 817 -146 817 -80 c 258
 817 157 l 257
 817 299 733 323 663 323 c 257
 663 201 l 256
 690 201 696 200 696 154 c 257
 695 -80 l 258
 695 -110 692 -163 643 -163 c 258
 448 -163 l 257
39 -125 m 258
 39 -158 l 258
 40 -253 156 -257 189 -257 c 258
 395 -257 l 257
 395 -163 l 257
 189 -163 l 258
 151 -163 150 -120 190 -120 c 258
 993 -120 l 257
 993 583 l 256
 871 583 l 256
 871 -27 l 257
 190 -27 l 258
 102 -27 39 -57 39 -125 c 258
EndSplineSet
Refer: 20 2958 N 1 0 0 1 0 0 2
PickledDataWithLists: "(dp1
S'com.fontlab.hintData'
p2
(dp3
S'vhints'
p4
(lp5
(dp6
S'position'
p7
L39L
sS'width'
p8
L124L
sa(dp9
g7
L39L
sg8
L131L
sa(dp10
g7
L39L
sg8
L171L
sa(dp11
g7
L317L
sg8
L123L
sa(dp12
g7
L484L
sg8
L123L
sa(dp13
g7
L695L
sg8
L122L
sasS'hhints'
p14
(lp15
(dp16
g7
L-257L
sg8
L94L
sa(dp17
g7
L1L
sg8
L122L
sa(dp18
g7
L238L
sg8
L123L
sa(dp19
g7
L472L
sg8
L105L
sa(dp20
g7
L472L
sg8
L123L
sass."
EndChar

StartChar: tml_Nya
Encoding: 114 2974 114
GlifName: tml_N_ya
Width: 1088
VWidth: 0
GlyphClass: 2
Flags: W
HStem: -208 122<243 259 259 543 598 836 836 863> 1 122 238 122 472 105 472 123 475 122<211 248>
VStem: 9 122 278 124 278 131 278 171 556 122 723 122 926 123<-41.5 154>
AnchorPoint: "tml_virama" 631 0 basechar 0
LayerCount: 2
Fore
SplineSet
243 -208 m 262
 543 -208 l 261
 543 -86 l 261
 259 -86 l 262
 195 -86 171 -67 171 -3 c 262
 171 382 l 262
 171 418 174 475 248 475 c 260
 248 597 l 260
 163 597 49 550 49 387 c 262
 49 -2 l 262
 49 -141 134 -208 243 -208 c 262
598 -86 m 261
 598 -208 l 261
 836 -208 l 262
 1010 -208 1049 -125 1049 -17 c 262
 1049 154 l 262
 1049 296 965 323 880 323 c 261
 880 201 l 260
 922 201 927 200 927 154 c 262
 926 -17 l 262
 926 -66 925 -86 863 -86 c 262
 598 -86 l 261
EndSplineSet
Refer: 20 2958 N 1 0 0 1 220 0 2
PickledDataWithLists: "(dp1
S'com.fontlab.hintData'
p2
(dp3
S'vhints'
p4
(lp5
(dp6
S'position'
p7
L9L
sS'width'
p8
L122L
sa(dp9
g7
L278L
sg8
L124L
sa(dp10
g7
L278L
sg8
L131L
sa(dp11
g7
L278L
sg8
L171L
sa(dp12
g7
L556L
sg8
L122L
sa(dp13
g7
L723L
sg8
L122L
sa(dp14
g7
L926L
sg8
L123L
sasS'hhints'
p15
(lp16
(dp17
g7
L-208L
sg8
L122L
sa(dp18
g7
L1L
sg8
L122L
sa(dp19
g7
L238L
sg8
L122L
sa(dp20
g7
L472L
sg8
L105L
sa(dp21
g7
L472L
sg8
L123L
sa(dp22
g7
L475L
sg8
L122L
sass."
EndChar

StartChar: tml_O
Encoding: 115 2962 115
GlifName: tml_O_
Width: 895
VWidth: 0
GlyphClass: 2
Flags: W
LayerCount: 2
Fore
SplineSet
479 573 m 257
 641 573 733 458 733 398 c 258
 733 196 l 258
 732 136 606 137 606 196 c 257
 606 350 l 257
 483 350 l 256
 483 166 l 258
 483 -16 857 -17 857 165 c 258
 857 398 l 258
 857 494 745 695 479 695 c 257
 479 573 l 257
39 177 m 258
 39 124 108 29 210 29 c 256
 210 152 l 257
 180 152 163 173 163 210 c 256
 163 246 181 266 210 266 c 256
 210 389 l 257
 160 389 38 354 39 250 c 258
 39 177 l 258
265 29 m 257
 364 29 439 115 439 177 c 258
 439 248 l 258
 439 309 364 389 265 389 c 256
 265 266 l 257
 305 266 316 244 317 210 c 256
 318 174 299 152 265 152 c 256
 265 29 l 257
39 256 m 257
 45 286 179 300 179 357 c 256
 179 456 243 573 426 573 c 257
 426 695 l 257
 426 695 l 256
 121 695 39 452 39 310 c 257
 39 256 l 257
483 25 m 258
 483 -66 589 -132 752 -132 c 257
 752 -9 l 256
 678 -9 604 3 604 52 c 258
 604 171 l 256
 483 276 l 257
 483 25 l 258
189 -124 m 257
 244 -298 501 -297 567 -155 c 257
 462 -94 l 256
 430 -156 336 -151 308 -94 c 257
 189 -124 l 257
EndSplineSet
EndChar

StartChar: tml_Om
Encoding: 116 3024 116
GlifName: tml_O_m
Width: 1219
VWidth: 0
GlyphClass: 2
Flags: HWO
LayerCount: 2
Fore
SplineSet
275 -623 m 258
 595 -623 l 257
 595 -501 l 257
 291 -501 l 258
 227 -501 203 -482 203 -418 c 258
 203 -303 l 258
 203 -235 218 -210 260 -210 c 256
 260 -88 l 256
 175 -88 81 -135 81 -298 c 258
 81 -417 l 258
 81 -556 166 -623 275 -623 c 258
662 -501 m 257
 662 -623 l 257
 868 -623 l 258
 1042 -623 1081 -540 1081 -432 c 258
 1081 -321 l 258
 1081 -179 1020 -152 912 -152 c 257
 912 -274 l 256
 954 -274 959 -275 959 -321 c 258
 958 -432 l 258
 958 -481 957 -501 895 -501 c 258
 662 -501 l 257
586 90 m 0
 586 116 608 138 634 138 c 0
 660 138 682 116 682 90 c 0
 682 64 660 42 634 42 c 0
 608 42 586 64 586 90 c 0
662 -440 m 256
 743 -440 817 -419 817 -273 c 258
 817 -186 l 258
 817 -56 750 -45 662 -45 c 257
 662 -117 l 257
 703 -117 735 -140 735 -186 c 258
 735 -291 l 258
 735 -354 702 -377 662 -377 c 257
 662 -440 l 256
466 -378 m 256
 548 -378 l 257
 548 -186 l 258
 548 -133 573 -117 618 -117 c 257
 618 -45 l 257
 485 -45 466 -86 466 -186 c 258
 466 -378 l 256
312 -393 m 257
 394 -393 l 257
 394 -55 l 257
 312 -55 l 257
 312 -393 l 257
312 -440 m 257
 618 -440 l 257
 618 -377 l 257
 312 -377 l 257
 312 -440 l 257
285 389 m 256
 285 266 l 257
 325 266 336 244 337 210 c 256
 338 174 319 152 285 152 c 256
 285 29 l 257
 384 29 459 115 459 177 c 258
 459 248 l 258
 459 309 384 389 285 389 c 256
230 389 m 257
 180 389 58 354 59 250 c 258
 59 177 l 258
 59 124 128 29 230 29 c 256
 230 152 l 257
 200 152 183 173 183 210 c 256
 183 246 201 266 230 266 c 256
 230 389 l 257
59 256 m 257
 65 286 199 300 199 357 c 256
 199 513 284 573 596 573 c 257
 596 695 l 257
 596 695 l 256
 136 695 59 528 59 310 c 257
 59 256 l 257
1157 165 m 258
 1157 398 l 258
 1157 584 1015 695 669 695 c 257
 669 573 l 257
 968 573 1033 492 1033 398 c 258
 1033 196 l 258
 1032 136 906 137 906 196 c 257
 906 350 l 257
 783 350 l 256
 783 166 l 258
 783 -16 1157 -17 1157 165 c 258
1052 -132 m 257
 1052 -9 l 256
 978 -9 904 3 904 52 c 258
 904 171 l 256
 783 276 l 257
 783 25 l 258
 783 -66 889 -132 1052 -132 c 257
EndSplineSet
EndChar

StartChar: tml_Oo
Encoding: 118 2963 118
GlifName: tml_O_o
Width: 895
VWidth: 0
GlyphClass: 2
Flags: W
HStem: -132 123<715 752 715 752> 29 122 266 123<195.5 210 265 285> 573 122<334.5 426 479 560>
VStem: 39 171<150.5 152 29 177 29 250 266 310 29 256> 39 124<150.5 228 191.5 228 191.5 250 191.5 310 191.5 256> 216 123<-158.5 -128 -158.5 -102.5> 317 123 483 123<196 276 75 350 196 350 196 350> 733 123
LayerCount: 2
Fore
SplineSet
479 573 m 257
 641 573 733 458 733 398 c 258
 733 196 l 258
 732 136 606 137 606 196 c 257
 606 350 l 257
 483 350 l 256
 483 166 l 258
 483 -16 857 -17 857 165 c 258
 857 398 l 258
 857 494 745 695 479 695 c 257
 479 573 l 257
216 -141 m 256
 216 -226 279 -300 382 -301 c 256
 488 -302 563 -206 586 -163 c 257
 474 -98 l 257
 462 -121 459 -127 451 -138 c 256
 404 -203 339 -176 339 -141 c 256
 339 -115 361 -104 386 -104 c 257
 386 19 l 257
 256 19 216 -64 216 -141 c 256
39 177 m 258
 39 124 108 29 210 29 c 256
 210 152 l 257
 180 152 163 173 163 210 c 256
 163 246 181 266 210 266 c 256
 210 389 l 257
 160 389 38 354 39 250 c 258
 39 177 l 258
265 29 m 257
 364 29 439 115 439 177 c 258
 439 248 l 258
 439 309 364 389 265 389 c 256
 265 266 l 257
 305 266 316 244 317 210 c 256
 318 174 299 152 265 152 c 256
 265 29 l 257
483 25 m 258
 483 -66 589 -132 752 -132 c 257
 752 -9 l 256
 678 -9 604 3 604 52 c 258
 604 171 l 256
 483 276 l 257
 483 25 l 258
39 256 m 257
 45 286 179 300 179 357 c 256
 179 456 243 573 426 573 c 257
 426 695 l 256
 121 695 39 452 39 310 c 257
 39 256 l 257
EndSplineSet
PickledDataWithLists: "(dp1
S'com.fontlab.hintData'
p2
(dp3
S'vhints'
p4
(lp5
(dp6
S'position'
p7
L39L
sS'width'
p8
L171L
sa(dp9
g7
L39L
sg8
L124L
sa(dp10
g7
L216L
sg8
L123L
sa(dp11
g7
L317L
sg8
L123L
sa(dp12
g7
L483L
sg8
L123L
sa(dp13
g7
L733L
sg8
L123L
sasS'hhints'
p14
(lp15
(dp16
g7
L-132L
sg8
L123L
sa(dp17
g7
L29L
sg8
L122L
sa(dp18
g7
L266L
sg8
L123L
sa(dp19
g7
L573L
sg8
L122L
sass."
EndChar

StartChar: tml_PI
Encoding: 119 -1 119
GlifName: tml_P_I_
Width: 716
VWidth: 0
GlyphClass: 2
Flags: W
LayerCount: 2
Fore
SplineSet
494 688 m 257
 541 688 554 651 554 589 c 258
 554 1 l 257
 676 1 l 257
 676 592 l 258
 676 693 641 810 494 810 c 257
 494 688 l 257
379 461 m 257
 379 590 l 257
 379 653 395 688 440 688 c 257
 440 810 l 257
 209 810 192 461 379 461 c 257
EndSplineSet
Refer: 123 2986 N 1 0 0 1 1 0 2
EndChar

StartChar: tml_PIi
Encoding: 120 -1 120
GlifName: tml_P_I_i
Width: 735
VWidth: 0
GlyphClass: 2
Flags: W
LayerCount: 2
Fore
SplineSet
505 825 m 257
 562 825 578 791 578 776 c 256
 578 755 567 736 544 736 c 256
 519 736 510 753 510 769 c 256
 434 678 l 257
 446 655 496 617 541 617 c 256
 751 617 758 949 498 949 c 257
 237 949 185 609 378 501 c 257
 485 594 l 257
 338 628 354 825 505 825 c 257
EndSplineSet
Refer: 123 2986 N 1 0 0 1 1 0 2
EndChar

StartChar: tml_PU
Encoding: 121 -1 121
GlifName: tml_P_U_
Width: 552
VWidth: 0
GlyphClass: 2
Flags: W
LayerCount: 2
Fore
SplineSet
40 106 m 257
 162 106 l 257
 162 597 l 257
 40 597 l 257
 40 106 l 257
303 0 m 257
 390 0 l 257
 390 -258 l 257
 512 -258 l 257
 512 596 l 257
 390 596 l 257
 390 122 l 257
 303 122 l 257
 303 0 l 257
40 0 m 257
 249 0 l 257
 249 122 l 257
 40 122 l 257
 40 0 l 257
EndSplineSet
EndChar

StartChar: tml_PUu
Encoding: 122 -1 122
GlifName: tml_P_U_u
Width: 756
VWidth: 0
GlyphClass: 2
Flags: W
HStem: -258 93 -106 93 1 122 107 17
VStem: 26 88 95 122 95 202 187 88 550 4
LayerCount: 2
Fore
SplineSet
342 -208 m 257
 162 -208 l 258
 144 -208 124 -188 124 -154 c 256
 124 -122 144 -106 166 -106 c 257
 188 -107 200 -120 200 -142 c 256
 288 -142 l 256
 288 -134 l 258
 288 -61 241 -14 166 -14 c 257
 95 -14 20 -54 20 -128 c 258
 20 -204 l 258
 20 -288 70 -331 164 -331 c 258
 342 -331 l 257
 342 -208 l 257
396 -208 m 256
 396 -331 l 257
 601 -331 l 258
 664 -331 720 -279 720 -227 c 258
 720 40 l 258
 720 90 671 120 607 120 c 258
 535 120 l 257
 535 -2 l 256
 601 -2 l 256
 601 -208 l 256
 396 -208 l 256
432 7 m 257
 432 -143 l 257
 554 -143 l 257
 554 7 l 257
 432 7 l 257
EndSplineSet
Refer: 123 2986 N 1 0 0 1 56 0 2
PickledDataWithLists: "(dp1
S'com.fontlab.hintData'
p2
(dp3
S'vhints'
p4
(lp5
(dp6
S'position'
p7
L26L
sS'width'
p8
L88L
sa(dp9
g7
L95L
sg8
L122L
sa(dp10
g7
L95L
sg8
L202L
sa(dp11
g7
L187L
sg8
L88L
sa(dp12
g7
L550L
sg8
L4L
sasS'hhints'
p13
(lp14
(dp15
g7
L-258L
sg8
L93L
sa(dp16
g7
L-106L
sg8
L93L
sa(dp17
g7
L1L
sg8
L122L
sa(dp18
g7
L107L
sg8
L17L
sass."
EndChar

StartChar: tml_Pa
Encoding: 123 2986 123
GlifName: tml_P_a
Width: 537
VWidth: 0
GlyphClass: 2
Flags: W
HStem: 1 122<39 241 39 241 297 498> 107 17
VStem: 39 202<1 123 1 123 107 107 107 123 1 595> 39 122<1 595 107 123 107 595 107 595>
AnchorPoint: "tml_virama" 271 0 basechar 0
LayerCount: 2
Fore
SplineSet
39 107 m 257
 161 107 l 257
 161 595 l 257
 39 595 l 257
 39 107 l 257
376 104 m 257
 498 104 l 257
 498 595 l 257
 376 595 l 257
 376 104 l 257
297 1 m 257
 498 1 l 257
 498 123 l 257
 297 123 l 257
 297 1 l 257
39 1 m 257
 241 1 l 257
 241 123 l 257
 39 123 l 257
 39 1 l 257
EndSplineSet
PickledDataWithLists: "(dp1
S'com.fontlab.hintData'
p2
(dp3
S'vhints'
p4
(lp5
(dp6
S'position'
p7
L39L
sS'width'
p8
L202L
sa(dp9
g7
L39L
sg8
L122L
sasS'hhints'
p10
(lp11
(dp12
g7
L1L
sg8
L122L
sa(dp13
g7
L107L
sg8
L17L
sass."
EndChar

StartChar: tml_RI
Encoding: 124 -1 124
GlifName: tml_R_I_
Width: 776
VWidth: 0
GlyphClass: 2
Flags: HW
LayerCount: 2
Fore
SplineSet
556 690 m 257
 603 690 614 653 614 591 c 258
 614 0 l 257
 736 0 l 257
 736 594 l 258
 736 697 707 812 556 812 c 257
 556 690 l 257
321 592 m 257
 444 592 l 256
 444 653 455 690 502 690 c 265
 502 812 l 273
 353 812 321 696 321 592 c 257
EndSplineSet
Refer: 131 2992 N 1 0 0 1 1 0 2
EndChar

StartChar: tml_RI.alt
Encoding: 125 -1 125
GlifName: tml_R_I_.alt
Width: 777
VWidth: 0
GlyphClass: 2
Flags: HW
LayerCount: 2
Fore
SplineSet
557 690 m 257
 604 690 615 653 615 591 c 258
 615 0 l 257
 737 0 l 257
 737 594 l 258
 737 697 708 812 557 812 c 257
 557 690 l 257
322 592 m 257
 445 592 l 256
 445 653 456 690 503 690 c 265
 503 812 l 273
 354 812 322 696 322 592 c 257
324 0 m 257
 446 0 l 257
 446 593 l 257
 324 593 l 257
 324 0 l 257
40 0 m 257
 162 0 l 257
 162 593 l 257
 40 592 l 257
 40 0 l 257
272 473 m 257
 567 473 l 257
 567 595 l 257
 272 595 l 257
 272 473 l 257
40 473 m 257
 219 473 l 257
 219 595 l 257
 40 595 l 257
 40 473 l 257
EndSplineSet
EndChar

StartChar: tml_RIi
Encoding: 126 -1 126
GlifName: tml_R_I_i
Width: 731
VWidth: 0
GlyphClass: 2
Flags: W
LayerCount: 2
Fore
SplineSet
321 474 m 257
 445 474 l 257
 445 596 l 256
 370 754 440 829 511 829 c 257
 568 829 579 795 579 780 c 256
 579 759 568 740 545 740 c 256
 520 740 511 757 511 773 c 256
 440 690 l 257
 450 669 497 631 542 631 c 256
 741 631 749 944 521 944 c 256
 318 944 247 756 321 597 c 256
 321 474 l 257
EndSplineSet
Refer: 131 2992 N 1 0 0 1 1 0 2
EndChar

StartChar: tml_RIi.alt
Encoding: 127 -1 127
GlifName: tml_R_I_i.alt
Width: 733
VWidth: 0
GlyphClass: 2
Flags: W
LayerCount: 2
Fore
SplineSet
323 477 m 257
 447 477 l 257
 447 595 l 256
 372 753 442 828 513 828 c 257
 570 828 581 794 581 779 c 256
 581 758 570 739 547 739 c 256
 522 739 513 756 513 772 c 256
 442 689 l 257
 452 668 499 630 544 630 c 256
 743 630 751 943 523 943 c 256
 320 943 249 755 323 596 c 256
 323 477 l 257
324 0 m 257
 446 0 l 257
 446 593 l 257
 324 593 l 257
 324 0 l 257
40 0 m 257
 162 0 l 257
 162 593 l 257
 40 592 l 257
 40 0 l 257
272 473 m 257
 567 473 l 257
 567 595 l 257
 272 595 l 257
 272 473 l 257
40 473 m 257
 219 473 l 257
 219 595 l 257
 40 595 l 257
 40 473 l 257
EndSplineSet
EndChar

StartChar: tml_RU
Encoding: 128 -1 128
GlifName: tml_R_U_
Width: 1012
VWidth: 0
GlyphClass: 2
Flags: W
HStem: -150 122 1 21<330 452 452 452 611 734 734 734> 379 122<208 244 201.5 245> 473 122<332 452 452 524 330 524 578 848>
VStem: 75 123 330 194<473 595 473 595> 330 122<1 595 1 595> 831 122<15.5 37 37 187>
LayerCount: 2
Fore
SplineSet
45 29 m 258
 45 -110 130 -208 239 -208 c 258
 523 -209 l 257
 523 -87 l 257
 255 -87 l 258
 191 -87 168 -36 168 28 c 258
 168 287 l 258
 168 323 171 379 245 379 c 256
 244 501 l 256
 159 501 45 455 45 292 c 258
 45 29 l 258
578 -87 m 257
 578 -209 l 257
 766 -210 l 258
 892 -210 953 -114 953 -47 c 258
 953 221 l 258
 953 339 898 372 790 372 c 257
 790 251 l 257
 828 251 831 237 831 187 c 258
 831 37 l 258
 831 -6 834 -87 765 -87 c 258
 578 -87 l 257
330 1 m 257
 452 1 l 257
 452 595 l 257
 330 595 l 257
 330 1 l 257
332 473 m 257
 524 473 l 257
 524 595 l 257
 332 595 l 257
 332 473 l 257
611 1 m 257
 734 1 l 257
 736 591 l 257
 611 591 l 257
 611 1 l 257
578 473 m 257
 848 473 l 257
 848 595 l 257
 578 595 l 257
 578 473 l 257
EndSplineSet
PickledDataWithLists: "(dp1
S'com.fontlab.hintData'
p2
(dp3
S'vhints'
p4
(lp5
(dp6
S'position'
p7
L75L
sS'width'
p8
L123L
sa(dp9
g7
L330L
sg8
L194L
sa(dp10
g7
L330L
sg8
L122L
sa(dp11
g7
L831L
sg8
L122L
sasS'hhints'
p12
(lp13
(dp14
g7
L-150L
sg8
L122L
sa(dp15
g7
L1L
sg8
L21L
sa(dp16
g7
L379L
sg8
L122L
sa(dp17
g7
L473L
sg8
L122L
sass."
EndChar

StartChar: tml_RUu
Encoding: 129 -1 129
GlifName: tml_R_U_u
Width: 1129
VWidth: 0
GlyphClass: 2
Flags: W
HStem: -150 122 1 21<461 583 583 583 742 865 865 865> 321 122<202 210 210 220 143.5 230> 473 122<463 583 583 655 461 655 709 979>
VStem: 125 123 323 122 461 194<473 595 473 595> 461 122<1 595 1 595> 962 122<15.5 37 37 187>
LayerCount: 2
Fore
SplineSet
55 29 m 258
 55 -110 140 -210 249 -210 c 258
 654 -210 l 257
 654 -88 l 257
 265 -88 l 258
 201 -88 178 -36 178 28 c 258
 178 232 l 258
 178 298 183 321 221 321 c 256
 239 321 253 310 253 287 c 256
 253 265 240 253 220 253 c 256
 220 131 l 257
 305 131 375 202 375 271 c 258
 375 300 l 258
 375 355 324 443 220 443 c 258
 210 443 l 258
 77 443 55 352 55 220 c 258
 55 29 l 258
709 -88 m 257
 709 -210 l 257
 898 -210 l 258
 1024 -210 1084 -115 1084 -48 c 258
 1084 221 l 258
 1084 339 1028 372 921 372 c 257
 921 251 l 257
 952 251 962 237 962 187 c 258
 962 37 l 258
 962 -6 966 -88 897 -88 c 258
 709 -88 l 257
461 1 m 257
 583 1 l 257
 583 595 l 257
 461 595 l 257
 461 1 l 257
463 473 m 257
 655 473 l 257
 655 595 l 257
 463 595 l 257
 463 473 l 257
742 1 m 257
 865 1 l 257
 867 591 l 257
 742 591 l 257
 742 1 l 257
709 473 m 257
 979 473 l 257
 979 595 l 257
 709 595 l 257
 709 473 l 257
EndSplineSet
PickledDataWithLists: "(dp1
S'com.fontlab.hintData'
p2
(dp3
S'vhints'
p4
(lp5
(dp6
S'position'
p7
L125L
sS'width'
p8
L123L
sa(dp9
g7
L323L
sg8
L122L
sa(dp10
g7
L461L
sg8
L194L
sa(dp11
g7
L461L
sg8
L122L
sa(dp12
g7
L962L
sg8
L122L
sasS'hhints'
p13
(lp14
(dp15
g7
L-150L
sg8
L122L
sa(dp16
g7
L1L
sg8
L21L
sa(dp17
g7
L321L
sg8
L122L
sa(dp18
g7
L473L
sg8
L122L
sass."
EndChar

StartChar: tml_RVirama.alt
Encoding: 130 -1 130
GlifName: tml_R_V_irama.alt
Width: 606
VWidth: 0
GlyphClass: 2
Flags: W
LayerCount: 2
Fore
SplineSet
40 0 m 257
 162 0 l 257
 162 593 l 257
 40 592 l 257
 40 0 l 257
40 473 m 257
 219 473 l 257
 219 595 l 257
 40 595 l 257
 40 473 l 257
195 728 m 256
 195 685 229 650 271 650 c 256
 313 650 347 685 347 728 c 256
 347 771 313 806 271 806 c 256
 229 806 195 771 195 728 c 256
324 0 m 257
 446 0 l 257
 446 593 l 257
 324 593 l 257
 324 0 l 257
272 473 m 257
 566 473 l 257
 566 595 l 257
 272 595 l 257
 272 473 l 257
EndSplineSet
EndChar

StartChar: tml_Ra
Encoding: 131 2992 131
GlifName: tml_R_a
Width: 595
VWidth: 0
GlyphClass: 2
Flags: W
HStem: 0 21<39 161 161 161 443 443> 473 122<41 161 161 217 39 217 271 557>
VStem: 39 178<473 595 473 595> 39 122<0 595 0 595>
AnchorPoint: "tml_virama" 271 0 basechar 0
LayerCount: 2
Fore
SplineSet
151 -177 m 257
 294 -177 l 257
 443 0 l 256
 445 591 l 257
 320 591 l 257
 320 33 l 257
 151 -177 l 257
39 0 m 257
 161 0 l 257
 161 595 l 257
 39 595 l 257
 39 0 l 257
271 473 m 257
 557 473 l 257
 557 595 l 257
 271 595 l 257
 271 473 l 257
41 473 m 257
 217 473 l 257
 217 595 l 257
 41 595 l 257
 41 473 l 257
EndSplineSet
PickledDataWithLists: "(dp1
S'com.fontlab.hintData'
p2
(dp3
S'vhints'
p4
(lp5
(dp6
S'position'
p7
L39L
sS'width'
p8
L178L
sa(dp9
g7
L39L
sg8
L122L
sasS'hhints'
p10
(lp11
(dp12
g7
L0L
sg8
L21L
sa(dp13
g7
L473L
sg8
L122L
sass."
EndChar

StartChar: tml_RrAa.alt
Encoding: 132 -1 132
GlifName: tml_R_rA_a.alt
Width: 1005
VWidth: 0
GlyphClass: 2
Flags: W
LayerCount: 2
Fore
SplineSet
487 -210 m 257
 487 -88 l 257
 270 -88 l 258
 206 -88 183 -58 183 6 c 258
 183 519 l 256
 60 519 l 257
 60 6 l 258
 60 -133 145 -210 254 -210 c 258
 487 -210 l 257
539 -210 m 257
 768 -210 l 258
 894 -210 956 -115 956 -48 c 258
 956 136 l 258
 956 268 823 281 761 287 c 257
 761 160 l 257
 783 160 834 169 834 102 c 258
 834 6 l 258
 834 -37 836 -88 767 -88 c 258
 539 -88 l 257
 539 -210 l 257
761 287 m 257
 761 165 l 256
 777 165 l 258
 941 167 954 279 954 384 c 258
 954 475 l 258
 954 559 876 606 763 606 c 257
 763 484 l 257
 785 484 832 487 832 433 c 258
 832 367 l 258
 832 336 839 287 773 287 c 258
 761 287 l 257
486 483 m 257
 512 483 524 472 524 458 c 258
 526 1 l 257
 648 2 l 257
 646 459 l 258
 646 491 694 484 712 484 c 257
 712 606 l 257
 673 606 614 599 586 576 c 257
 562 597 532 606 486 606 c 257
 486 483 l 257
280 0 m 257
 404 1 l 257
 402 458 l 258
 402 471 408 483 433 483 c 257
 433 606 l 257
 321 606 280 529 280 479 c 258
 280 0 l 257
EndSplineSet
EndChar

StartChar: tml_RrI
Encoding: 133 -1 133
GlifName: tml_R_rI_
Width: 910
VWidth: 0
GlyphClass: 2
Flags: HW
LayerCount: 2
Fore
SplineSet
527 595 m 261
 650 503 l 257
 650 595 l 258
 650 659 664 693 709 693 c 256
 709 815 l 256
 560 815 527 699 527 595 c 261
763 693 m 257
 816 693 826 656 826 594 c 258
 826 0 l 257
 948 0 l 257
 948 597 l 258
 948 700 914 815 763 815 c 257
 763 693 l 257
EndSplineSet
Refer: 137 2993 N 1 0 0 1 0 0 2
EndChar

StartChar: tml_RrIi
Encoding: 134 -1 134
GlifName: tml_R_rI_i
Width: 851
VWidth: 0
GlyphClass: 2
Flags: W
LayerCount: 2
Fore
SplineSet
527 523 m 257
 651 523 l 257
 651 557 l 257
 570 760 646 834 717 834 c 257
 774 834 785 800 785 785 c 256
 785 764 774 745 751 745 c 256
 726 745 717 762 717 778 c 256
 646 695 l 257
 656 674 703 636 748 636 c 256
 947 636 955 949 727 949 c 256
 524 949 448 767 527 558 c 257
 527 523 l 257
EndSplineSet
Refer: 137 2993 N 1 0 0 1 0 0 2
EndChar

StartChar: tml_RrU
Encoding: 135 -1 135
GlifName: tml_R_rU_
Width: 901
VWidth: 0
GlyphClass: 2
Flags: W
HStem: -257 94<190 330 384 512> -120 93<191 286.5 286.5 739> -1 21 494 117
VStem: 37 129 288 122 564 122 739 122<-27 583 -27 -27>
LayerCount: 2
Fore
SplineSet
40 -125 m 258
 40 -158 l 258
 41 -253 157 -257 190 -257 c 258
 330 -257 l 257
 330 -163 l 257
 190 -163 l 258
 152 -163 151 -120 191 -120 c 258
 861 -120 l 257
 861 583 l 256
 739 583 l 256
 739 -27 l 257
 548 -27 382 -27 191 -27 c 256
 103 -27 40 -57 40 -125 c 258
384 -257 m 257
 513 -257 l 258
 666 -257 687 -146 687 -80 c 258
 687 18 l 256
 687 487 l 258
 687 542 635 606 522 606 c 257
 522 484 l 257
 544 484 564 481 564 460 c 258
 564 21 l 257
 564 -80 l 258
 564 -110 561 -163 512 -163 c 258
 384 -163 l 257
 384 -257 l 257
272 483 m 257
 298 483 309 472 309 458 c 258
 312 1 l 257
 434 2 l 257
 431 459 l 258
 431 481 453 484 471 484 c 257
 471 606 l 257
 432 606 399 599 371 576 c 257
 347 597 318 606 272 606 c 257
 272 483 l 257
65 0 m 257
 189 1 l 257
 187 458 l 258
 187 471 193 483 218 483 c 257
 218 606 l 257
 106 606 65 529 65 479 c 258
 65 0 l 257
EndSplineSet
PickledDataWithLists: "(dp1
S'com.fontlab.hintData'
p2
(dp3
S'vhints'
p4
(lp5
(dp6
S'position'
p7
L37L
sS'width'
p8
L129L
sa(dp9
g7
L288L
sg8
L122L
sa(dp10
g7
L564L
sg8
L122L
sa(dp11
g7
L739L
sg8
L122L
sasS'hhints'
p12
(lp13
(dp14
g7
L-257L
sg8
L94L
sa(dp15
g7
L-120L
sg8
L93L
sa(dp16
g7
L-1L
sg8
L21L
sa(dp17
g7
L494L
sg8
L117L
sass."
EndChar

StartChar: tml_RrUu
Encoding: 136 -1 136
GlifName: tml_R_rU_u
Width: 1293
VWidth: 0
GlyphClass: 2
Flags: W
HStem: -257 94 -120 93 -1 21 474 122<765 943 765 943 997 1255> 474 109 494 117
VStem: 62 129 313 122 590 122 765 179 765 122
LayerCount: 2
Fore
SplineSet
1049 -119 m 257
 1171 -119 l 257
 1171 594 l 257
 1049 594 l 257
 1049 -119 l 257
997 474 m 257
 1255 474 l 257
 1255 596 l 257
 997 596 l 257
 997 474 l 257
765 474 m 257
 943 474 l 257
 943 596 l 257
 765 596 l 257
 765 474 l 257
EndSplineSet
Refer: 135 -1 N 1 0 0 1 26 0 2
PickledDataWithLists: "(dp1
S'com.fontlab.hintData'
p2
(dp3
S'vhints'
p4
(lp5
(dp6
S'position'
p7
L62L
sS'width'
p8
L129L
sa(dp9
g7
L313L
sg8
L122L
sa(dp10
g7
L590L
sg8
L122L
sa(dp11
g7
L765L
sg8
L179L
sa(dp12
g7
L765L
sg8
L122L
sasS'hhints'
p13
(lp14
(dp15
g7
L-257L
sg8
L94L
sa(dp16
g7
L-120L
sg8
L93L
sa(dp17
g7
L-1L
sg8
L21L
sa(dp18
g7
L474L
sg8
L122L
sa(dp19
g7
L474L
sg8
L109L
sa(dp20
g7
L494L
sg8
L117L
sass."
EndChar

StartChar: tml_Rra
Encoding: 137 2993 137
GlifName: tml_R_ra
Width: 750
VWidth: 0
GlyphClass: 2
Flags: W
HStem: -155 122 0 21<70 70> 483 123<210.5 223 276 289>
VStem: 39 122<-311 -271 -311 -240> 65 129 316 122<1 2> 569 125
AnchorPoint: "tml_virama" 371 0 basechar 0
LayerCount: 2
Fore
SplineSet
39 -311 m 257
 161 -311 l 257
 161 -231 190 -210 237 -210 c 258
 498 -210 l 258
 615 -210 691 -128 691 64 c 258
 691 475 l 258
 691 530 640 606 527 606 c 257
 527 484 l 257
 549 484 569 481 569 460 c 258
 569 47 l 258
 569 -30 557 -88 472 -88 c 258
 233 -88 l 258
 91 -88 39 -169 39 -311 c 257
70 0 m 257
 194 1 l 257
 192 458 l 258
 192 471 198 483 223 483 c 257
 223 606 l 257
 111 606 70 529 70 479 c 258
 70 0 l 257
276 483 m 257
 302 483 314 472 314 458 c 258
 316 1 l 257
 438 2 l 257
 436 459 l 258
 436 481 458 484 476 484 c 257
 476 606 l 257
 437 606 404 599 376 576 c 257
 352 597 322 606 276 606 c 257
 276 483 l 257
EndSplineSet
PickledDataWithLists: "(dp1
S'com.fontlab.hintData'
p2
(dp3
S'vhints'
p4
(lp5
(dp6
S'position'
p7
L39L
sS'width'
p8
L122L
sa(dp9
g7
L65L
sg8
L129L
sa(dp10
g7
L316L
sg8
L122L
sa(dp11
g7
L569L
sg8
L125L
sasS'hhints'
p12
(lp13
(dp14
g7
L-155L
sg8
L122L
sa(dp15
g7
L0L
sg8
L21L
sa(dp16
g7
L483L
sg8
L123L
sass."
EndChar

StartChar: tml_Rupee
Encoding: 138 3065 138
GlifName: tml_R_upee
Width: 1157
VWidth: 0
GlyphClass: 2
Flags: W
LayerCount: 2
Fore
SplineSet
1132 800 m 257
 1132 903 l 256
 1067 905 1062 904 1062 945 c 258
 1062 1030 l 258
 1062 1172 994 1237 848 1237 c 256
 716 1237 660 1136 660 1026 c 256
 763 1026 l 257
 763 1092 787 1132 848 1132 c 256
 910 1132 959 1108 959 1030 c 258
 959 945 l 258
 959 835 1039 800 1132 800 c 257
935 854 m 256
 935 978 858 1008 768 1008 c 258
 544 1008 l 257
 544 888 l 257
 764 888 l 258
 807 888 832 884 832 853 c 256
 832 839 818 821 799 821 c 256
 781 821 763 834 763 854 c 256
 661 854 l 257
 661 768 736 728 795 728 c 256
 867 728 935 776 935 854 c 256
433 790 m 258
 421 840 443 888 494 888 c 256
 494 888 494 1010 494 1010 c 257
 263 1010 271 684 458 684 c 257
 433 790 l 258
39 30 m 258
 39 -109 124 -176 233 -176 c 258
 470 -177 l 257
 470 -55 l 257
 249 -55 l 258
 185 -55 162 -35 162 29 c 258
 162 599 l 258
 162 625 153 685 238 685 c 258
 451 685 l 256
 450 795 l 256
 217 795 l 258
 111 795 39 730 39 604 c 258
 39 30 l 258
524 -55 m 257
 524 -177 l 257
 713 -178 l 258
 839 -178 899 -82 899 -15 c 258
 899 221 l 258
 899 339 797 366 736 372 c 257
 736 251 l 257
 757 251 777 237 777 187 c 258
 777 38 l 258
 777 -5 781 -55 712 -55 c 258
 524 -55 l 257
558 1 m 257
 681 1 l 257
 683 591 l 257
 558 591 l 257
 558 1 l 257
524 473 m 257
 794 473 l 257
 794 595 l 257
 524 595 l 257
 524 473 l 257
278 473 m 257
 471 473 l 257
 471 595 l 257
 278 595 l 257
 278 473 l 257
276 1 m 257
 398 1 l 257
 398 595 l 257
 276 595 l 257
 276 1 l 257
EndSplineSet
EndChar

StartChar: tml_SI
Encoding: 139 -1 139
GlifName: tml_S_I_
Width: 1367
VWidth: 0
GlyphClass: 2
Flags: W
LayerCount: 2
Fore
SplineSet
707 483 m 257
 751 483 761 469 762 402 c 258
 762 168 l 258
 762 96 792 0 924 0 c 257
 924 124 l 257
 897 124 884 138 884 168 c 258
 884 402 l 257
 883 503 869 606 707 606 c 257
 707 483 l 257
978 0 m 257
 1103 0 1144 91 1144 168 c 258
 1144 426 l 258
 1144 538 1098 596 971 596 c 257
 971 473 l 257
 1009 473 1021 460 1021 424 c 257
 1021 168 l 257
 1021 141 1004 124 978 124 c 257
 978 0 l 257
41 151 m 256
 41 91 110 0 212 0 c 256
 212 122 l 257
 179 122 165 149 165 181 c 256
 165 210 183 237 212 237 c 256
 212 359 l 257
 162 359 40 324 41 220 c 256
 42 140 41 193 41 151 c 256
267 0 m 257
 376 0 437 89 436 152 c 258
 436 224 l 258
 436 276 363 359 267 359 c 256
 267 237 l 257
 309 237 312 208 313 181 c 256
 314 150 308 122 267 122 c 256
 267 0 l 257
353 484 m 257
 422 484 473 417 474 354 c 257
 475 0 l 257
 601 0 l 257
 597 355 l 257
 597 456 515 605 353 605 c 257
 353 484 l 257
980 473 m 257
 980 602 l 258
 980 667 1013 700 1061 700 c 256
 1061 700 l 256
 1061 822 l 257
 1061 822 l 257
 816 822 789 473 980 473 c 257
1115 700 m 257
 1162 700 1199 663 1199 601 c 258
 1199 0 l 257
 1321 0 l 257
 1321 604 l 258
 1321 705 1262 822 1115 822 c 257
 1115 700 l 257
41 226 m 257
 47 256 172 270 172 327 c 256
 172 427 234 484 299 484 c 257
 299 605 l 257
 120 605 41 427 41 326 c 258
 41 226 l 257
474 325 m 257
 597 326 l 257
 597 470 604 482 653 482 c 257
 653 605 l 257
 480 605 474 440 474 325 c 257
EndSplineSet
EndChar

StartChar: tml_SIi
Encoding: 140 -1 140
GlifName: tml_S_I_i
Width: 1329
VWidth: 0
GlyphClass: 2
Flags: W
LayerCount: 2
Fore
SplineSet
1052 582 m 257
 931 619 961 803 1099 795 c 257
 1156 795 1172 761 1172 746 c 256
 1172 725 1161 706 1138 706 c 256
 1113 706 1104 723 1104 739 c 256
 1028 648 l 257
 1040 625 1090 587 1135 587 c 256
 1345 587 1352 919 1092 919 c 256
 903 919 826 739 861 621 c 256
 884 543 921 502 971 475 c 256
 1007 455 1023 446 1024 423 c 258
 1024 166 l 257
 1024 139 1005 123 978 123 c 257
 978 0 l 257
 1088 0 1144 81 1144 166 c 258
 1144 424 l 258
 1144 508 1141 555 1052 582 c 257
706 483 m 257
 750 483 760 469 761 402 c 258
 761 168 l 258
 761 96 791 0 923 0 c 257
 923 124 l 257
 896 124 883 138 883 168 c 258
 883 402 l 257
 882 503 868 606 706 606 c 257
 706 483 l 257
40 151 m 256
 40 91 109 0 211 0 c 256
 211 122 l 257
 178 122 164 149 164 181 c 256
 164 210 182 237 211 237 c 256
 211 359 l 257
 161 359 39 324 40 220 c 256
 41 140 40 193 40 151 c 256
266 0 m 257
 375 0 436 89 435 152 c 258
 435 224 l 258
 435 276 362 359 266 359 c 256
 266 237 l 257
 308 237 311 208 312 181 c 256
 313 150 307 122 266 122 c 256
 266 0 l 257
352 484 m 257
 421 484 472 417 473 354 c 257
 474 0 l 257
 600 0 l 257
 596 355 l 257
 596 456 514 605 352 605 c 257
 352 484 l 257
40 226 m 257
 46 256 171 270 171 327 c 256
 171 427 233 484 298 484 c 257
 298 605 l 257
 119 605 40 427 40 326 c 258
 40 226 l 257
473 325 m 257
 596 326 l 257
 596 470 603 482 652 482 c 257
 652 605 l 257
 479 605 473 440 473 325 c 257
EndSplineSet
EndChar

StartChar: tml_SU
Encoding: 141 -1 141
GlifName: tml_S_U_
Width: 1551
VWidth: 0
GlyphClass: 2
Flags: W
LayerCount: 2
Fore
SplineSet
970 473 m 257
 1300 473 l 258
 1356 472 1389 462 1389 424 c 256
 1389 406 1378 392 1355 392 c 256
 1333 392 1321 405 1321 425 c 256
 1199 425 l 257
 1199 340 1270 270 1339 270 c 258
 1368 270 l 258
 1423 270 1511 321 1511 425 c 258
 1511 435 l 258
 1511 568 1415 596 1304 597 c 258
 970 597 l 257
 970 473 l 257
706 483 m 257
 750 483 760 469 761 402 c 258
 761 168 l 258
 761 96 791 0 923 0 c 257
 923 124 l 257
 896 124 883 138 883 168 c 258
 883 402 l 257
 882 503 868 606 706 606 c 257
 706 483 l 257
977 0 m 257
 1102 0 1143 91 1143 168 c 258
 1143 426 l 258
 1143 538 1097 596 970 596 c 257
 970 473 l 257
 1008 473 1020 460 1020 424 c 257
 1020 168 l 257
 1020 141 1003 124 977 124 c 257
 977 0 l 257
40 151 m 256
 40 91 109 0 211 0 c 256
 211 122 l 257
 178 122 164 149 164 181 c 256
 164 210 182 237 211 237 c 256
 211 359 l 257
 161 359 39 324 40 220 c 256
 41 140 40 193 40 151 c 256
266 0 m 257
 375 0 436 89 435 152 c 258
 435 224 l 258
 435 276 362 359 266 359 c 256
 266 237 l 257
 308 237 311 208 312 181 c 256
 313 150 307 122 266 122 c 256
 266 0 l 257
352 484 m 257
 421 484 472 417 473 354 c 257
 474 0 l 257
 600 0 l 257
 596 355 l 257
 596 456 514 605 352 605 c 257
 352 484 l 257
40 226 m 257
 46 256 171 270 171 327 c 256
 171 427 233 484 298 484 c 257
 298 605 l 257
 119 605 40 427 40 326 c 258
 40 226 l 257
473 325 m 257
 596 326 l 257
 596 470 603 482 652 482 c 257
 652 605 l 257
 479 605 473 440 473 325 c 257
EndSplineSet
EndChar

StartChar: tml_SUu
Encoding: 142 -1 142
GlifName: tml_S_U_u
Width: 1700
VWidth: 0
GlyphClass: 2
Flags: W
LayerCount: 2
Fore
SplineSet
971 474 m 257
 1299 474 l 258
 1355 474 1388 467 1388 429 c 256
 1388 411 1377 397 1354 397 c 256
 1332 397 1320 410 1320 430 c 256
 1198 430 l 257
 1198 345 1269 275 1338 275 c 258
 1367 275 l 258
 1422 275 1510 326 1510 430 c 258
 1510 440 l 258
 1510 573 1414 596 1303 596 c 258
 971 596 l 257
 971 474 l 257
1198 592 m 256
 1320 592 l 257
 1320 658 1389 671 1427 671 c 256
 1466 671 1537 656 1537 596 c 258
 1537 272 l 258
 1537 237 1519 214 1481 214 c 258
 1422 214 l 256
 1422 122 l 256
 1481 122 l 258
 1586 122 1660 167 1660 272 c 258
 1660 596 l 258
 1660 701 1573 793 1427 793 c 256
 1295 793 1198 702 1198 592 c 256
706 483 m 257
 750 483 760 469 761 402 c 258
 761 168 l 258
 761 96 791 0 923 0 c 257
 923 124 l 257
 896 124 883 138 883 168 c 258
 883 402 l 257
 882 503 868 606 706 606 c 257
 706 483 l 257
977 0 m 257
 1102 0 1143 91 1143 168 c 258
 1143 426 l 258
 1143 538 1097 596 970 596 c 257
 970 473 l 257
 1008 473 1020 460 1020 424 c 257
 1020 168 l 257
 1020 141 1003 124 977 124 c 257
 977 0 l 257
40 151 m 256
 40 91 109 0 211 0 c 256
 211 122 l 257
 178 122 164 149 164 181 c 256
 164 210 182 237 211 237 c 256
 211 359 l 257
 161 359 39 324 40 220 c 256
 41 140 40 193 40 151 c 256
266 0 m 257
 375 0 436 89 435 152 c 258
 435 224 l 258
 435 276 362 359 266 359 c 256
 266 237 l 257
 308 237 311 208 312 181 c 256
 313 150 307 122 266 122 c 256
 266 0 l 257
352 484 m 257
 421 484 472 417 473 354 c 257
 474 0 l 257
 600 0 l 257
 596 355 l 257
 596 456 514 605 352 605 c 257
 352 484 l 257
40 226 m 257
 46 256 171 270 171 327 c 256
 171 427 233 484 298 484 c 257
 298 605 l 257
 119 605 40 427 40 326 c 258
 40 226 l 257
473 325 m 257
 596 326 l 257
 596 470 603 482 652 482 c 257
 652 605 l 257
 479 605 473 440 473 325 c 257
EndSplineSet
EndChar

StartChar: tml_Sa
Encoding: 143 3000 143
GlifName: tml_S_a
Width: 1187
VWidth: 0
GlyphClass: 2
Flags: W
HStem: 0 122<195.5 212 195.5 212 267 287.5 195.5 321.5> 237 123 484 121<266.5 299 353 387.5>
VStem: 41 171<106 122 0 172 0 220 237 326 0 226> 41 131<106 377 151 377 298.5 326 226 377> 41 124<165 172 165 195.5 165 220 165 326 165 226> 313 123 762 122<132 402 168 402> 1021 122
AnchorPoint: "tml_virama" 531 0 basechar 0
LayerCount: 2
Fore
SplineSet
707 483 m 257
 751 483 761 469 762 402 c 258
 762 168 l 258
 762 96 792 0 924 0 c 257
 924 124 l 257
 897 124 884 138 884 168 c 258
 884 402 l 257
 883 503 869 606 707 606 c 257
 707 483 l 257
978 0 m 257
 1103 0 1144 91 1144 168 c 258
 1144 426 l 258
 1144 538 1098 596 971 596 c 257
 971 473 l 257
 1009 473 1021 460 1021 424 c 257
 1021 168 l 257
 1021 141 1004 124 978 124 c 257
 978 0 l 257
41 151 m 256
 41 61 110 0 212 0 c 256
 212 122 l 257
 179 122 165 149 165 181 c 256
 165 210 183 237 212 237 c 256
 212 359 l 257
 162 359 40 324 41 220 c 256
 42 140 41 193 41 151 c 256
267 0 m 257
 376 0 437 89 436 152 c 258
 436 224 l 258
 436 276 363 359 267 359 c 256
 267 237 l 257
 309 237 312 208 313 181 c 256
 314 150 308 122 267 122 c 256
 267 0 l 257
353 484 m 257
 422 484 473 417 474 354 c 257
 475 0 l 257
 601 0 l 257
 597 355 l 257
 597 456 515 605 353 605 c 257
 353 484 l 257
41 226 m 257
 47 256 172 270 172 327 c 256
 172 427 234 484 299 484 c 257
 299 605 l 257
 120 605 41 427 41 326 c 258
 41 226 l 257
474 325 m 257
 597 326 l 257
 597 470 604 482 653 482 c 257
 653 605 l 257
 480 605 474 440 474 325 c 257
EndSplineSet
PickledDataWithLists: "(dp1
S'com.fontlab.hintData'
p2
(dp3
S'vhints'
p4
(lp5
(dp6
S'position'
p7
L41L
sS'width'
p8
L171L
sa(dp9
g7
L41L
sg8
L131L
sa(dp10
g7
L41L
sg8
L124L
sa(dp11
g7
L313L
sg8
L123L
sa(dp12
g7
L762L
sg8
L122L
sa(dp13
g7
L1021L
sg8
L122L
sasS'hhints'
p14
(lp15
(dp16
g7
L0L
sg8
L122L
sa(dp17
g7
L237L
sg8
L123L
sa(dp18
g7
L484L
sg8
L121L
sass."
EndChar

StartChar: tml_ShI
Encoding: 145 -1 145
GlifName: tml_S_hI_
Width: 1145
VWidth: 0
GlyphClass: 2
Flags: HW
LayerCount: 2
Fore
SplineSet
40 168 m 258
 40 112 64 0 181 0 c 258
 202 0 l 257
 202 124 l 257
 175 124 162 138 162 168 c 258
 162 595 l 281
 40 595 l 257
 40 168 l 258
256 0 m 257
 282 0 l 258
 389 0 422 109 422 168 c 257
 422 582 l 257
 300 582 l 257
 300 168 l 257
 300 141 282 124 256 124 c 257
 256 0 l 257
546 168 m 258
 546 112 569 0 686 0 c 258
 708 0 l 257
 708 124 l 257
 681 124 668 138 668 168 c 258
 668 582 l 281
 546 582 l 257
 546 168 l 258
762 0 m 257
 788 0 l 258
 895 0 928 109 928 168 c 257
 928 582 l 257
 806 582 l 257
 806 168 l 257
 806 141 788 124 762 124 c 257
 762 0 l 257
664 592 m 257
 787 592 l 257
 787 653 804 690 855 690 c 265
 855 812 l 273
 706 812 664 696 664 592 c 257
909 690 m 257
 962 690 983 653 983 591 c 258
 983 -1 l 257
 1105 -1 l 257
 1105 594 l 258
 1105 697 1060 812 909 812 c 257
 909 690 l 257
300 473 m 257
 928 473 l 257
 928 595 l 257
 300 595 l 257
 300 473 l 257
EndSplineSet
EndChar

StartChar: tml_ShIi
Encoding: 146 -1 146
GlifName: tml_S_hI_i
Width: 1163
VWidth: 0
GlyphClass: 2
Flags: W
LayerCount: 2
Fore
SplineSet
933 826 m 257
 990 826 1006 792 1006 777 c 256
 1006 756 995 737 972 737 c 256
 947 737 938 754 938 770 c 256
 862 679 l 257
 874 656 924 618 969 618 c 256
 1179 618 1186 950 926 950 c 257
 665 950 613 610 806 502 c 257
 913 595 l 257
 766 629 782 826 933 826 c 257
40 168 m 258
 40 112 64 0 181 0 c 258
 202 0 l 257
 202 124 l 257
 175 124 162 138 162 168 c 258
 162 595 l 256
 40 595 l 257
 40 168 l 258
256 0 m 257
 282 0 l 258
 389 0 422 109 422 168 c 257
 422 582 l 257
 300 582 l 257
 300 168 l 257
 300 141 282 124 256 124 c 257
 256 0 l 257
546 168 m 258
 546 112 569 0 686 0 c 258
 708 0 l 257
 708 124 l 257
 681 124 668 138 668 168 c 258
 668 582 l 256
 546 582 l 257
 546 168 l 258
762 0 m 257
 788 0 l 258
 895 0 928 109 928 168 c 257
 928 582 l 257
 806 582 l 257
 806 168 l 257
 806 141 788 124 762 124 c 257
 762 0 l 257
300 473 m 257
 928 473 l 257
 928 595 l 257
 300 595 l 257
 300 473 l 257
EndSplineSet
EndChar

StartChar: tml_ShU
Encoding: 147 -1 147
GlifName: tml_S_hU_
Width: 1334
VWidth: 0
GlyphClass: 2
Flags: W
LayerCount: 2
Fore
SplineSet
745 474 m 257
 1083 474 l 258
 1139 473 1172 463 1172 425 c 256
 1172 407 1161 393 1138 393 c 256
 1116 393 1104 406 1104 426 c 256
 982 426 l 257
 982 341 1053 271 1122 271 c 258
 1151 271 l 258
 1206 271 1294 322 1294 426 c 258
 1294 436 l 258
 1294 569 1198 594 1087 595 c 258
 745 595 l 257
 745 474 l 257
40 168 m 258
 40 112 64 0 181 0 c 258
 202 0 l 257
 202 124 l 257
 175 124 162 138 162 168 c 258
 162 595 l 256
 40 595 l 257
 40 168 l 258
256 0 m 257
 282 0 l 258
 389 0 422 109 422 168 c 257
 422 582 l 257
 300 582 l 257
 300 168 l 257
 300 141 282 124 256 124 c 257
 256 0 l 257
546 168 m 258
 546 112 569 0 686 0 c 258
 708 0 l 257
 708 124 l 257
 681 124 668 138 668 168 c 258
 668 582 l 256
 546 582 l 257
 546 168 l 258
762 0 m 257
 788 0 l 258
 895 0 928 109 928 168 c 257
 928 582 l 257
 806 582 l 257
 806 168 l 257
 806 141 788 124 762 124 c 257
 762 0 l 257
300 473 m 257
 928 473 l 257
 928 595 l 257
 300 595 l 257
 300 473 l 257
EndSplineSet
EndChar

StartChar: tml_ShUu
Encoding: 148 -1 148
GlifName: tml_S_hU_u
Width: 1485
VWidth: 0
GlyphClass: 2
Flags: W
LayerCount: 2
Fore
SplineSet
804 473 m 257
 1084 473 l 258
 1140 473 1173 466 1173 428 c 256
 1173 410 1162 396 1139 396 c 256
 1117 396 1105 409 1105 429 c 256
 983 429 l 257
 983 344 1054 274 1123 274 c 258
 1152 274 l 258
 1207 274 1295 325 1295 429 c 258
 1295 439 l 258
 1295 572 1199 595 1088 595 c 258
 804 595 l 257
 804 473 l 257
983 591 m 256
 1105 591 l 257
 1105 657 1174 670 1212 670 c 256
 1251 670 1322 655 1322 595 c 258
 1322 271 l 258
 1322 236 1304 213 1266 213 c 258
 1207 213 l 256
 1207 121 l 256
 1266 121 l 258
 1371 121 1445 166 1445 271 c 258
 1445 595 l 258
 1445 700 1358 792 1212 792 c 256
 1080 792 983 701 983 591 c 256
40 168 m 258
 40 112 64 0 181 0 c 258
 202 0 l 257
 202 124 l 257
 175 124 162 138 162 168 c 258
 162 595 l 256
 40 595 l 257
 40 168 l 258
256 0 m 257
 282 0 l 258
 389 0 422 109 422 168 c 257
 422 582 l 257
 300 582 l 257
 300 168 l 257
 300 141 282 124 256 124 c 257
 256 0 l 257
546 168 m 258
 546 112 569 0 686 0 c 258
 708 0 l 257
 708 124 l 257
 681 124 668 138 668 168 c 258
 668 582 l 256
 546 582 l 257
 546 168 l 258
762 0 m 257
 788 0 l 258
 895 0 928 109 928 168 c 257
 928 582 l 257
 806 582 l 257
 806 168 l 257
 806 141 788 124 762 124 c 257
 762 0 l 257
300 473 m 257
 928 473 l 257
 928 595 l 257
 300 595 l 257
 300 473 l 257
EndSplineSet
EndChar

StartChar: tml_Sha
Encoding: 149 2998 149
GlifName: tml_S_ha
Width: 985
VWidth: 0
GlyphClass: 2
Flags: W
AnchorPoint: "tml_virama" 561 0 mark 0
LayerCount: 2
Fore
SplineSet
42 168 m 258
 42 112 66 0 183 0 c 258
 204 0 l 257
 204 124 l 257
 177 124 164 138 164 168 c 258
 164 595 l 256
 42 595 l 257
 42 168 l 258
258 0 m 257
 284 0 l 258
 391 0 424 109 424 168 c 257
 424 582 l 257
 302 582 l 257
 302 168 l 257
 302 141 284 124 258 124 c 257
 258 0 l 257
548 168 m 258
 548 112 571 0 688 0 c 258
 710 0 l 257
 710 124 l 257
 683 124 670 138 670 168 c 258
 670 582 l 256
 548 582 l 257
 548 168 l 258
764 0 m 257
 790 0 l 258
 897 0 930 109 930 168 c 257
 930 582 l 257
 808 582 l 257
 808 168 l 257
 808 141 790 124 764 124 c 257
 764 0 l 257
302 473 m 257
 930 473 l 257
 930 595 l 257
 302 595 l 257
 302 473 l 257
EndSplineSet
EndChar

StartChar: tml_Shree
Encoding: 150 -1 150
GlifName: tml_S_hree
Width: 1208
VWidth: 0
GlyphClass: 2
Flags: W
LayerCount: 2
Fore
SplineSet
40 -314 m 257
 162 -314 l 257
 162 -241 177 -213 220 -213 c 258
 858 -213 l 258
 988 -211 1051 -102 1051 12 c 258
 1051 474 l 258
 1050 529 1001 605 859 605 c 257
 820 605 763 598 735 575 c 257
 711 596 681 605 635 605 c 257
 635 482 l 257
 661 482 674 472 674 458 c 258
 674 0 l 257
 797 1 l 257
 794 446 l 258
 794 468 822 483 859 483 c 257
 901 483 929 468 929 447 c 258
 929 12 l 258
 929 -19 929 -91 831 -91 c 256
 742 -91 338 -91 246 -91 c 256
 90 -91 40 -161 40 -314 c 257
798 517 m 257
 922 517 l 257
 922 595 l 256
 847 753 917 828 988 828 c 257
 1045 828 1056 794 1056 779 c 256
 1056 758 1045 739 1022 739 c 256
 997 739 988 756 988 772 c 256
 917 689 l 257
 927 668 974 630 1019 630 c 256
 1218 630 1226 943 998 943 c 256
 795 943 724 755 798 596 c 256
 798 517 l 257
428 1 m 257
 552 1 l 257
 552 457 l 258
 552 470 556 482 581 482 c 257
 581 605 l 257
 469 605 428 528 428 478 c 258
 428 1 l 257
79 107 m 257
 201 107 l 257
 201 595 l 257
 79 595 l 257
 79 107 l 257
79 1 m 257
 281 1 l 257
 281 123 l 257
 79 123 l 257
 79 1 l 257
337 1 m 257
 538 1 l 257
 538 123 l 257
 337 123 l 257
 337 1 l 257
EndSplineSet
EndChar

StartChar: tml_Six
Encoding: 151 3052 151
GlifName: tml_S_ix
Width: 1078
VWidth: 0
GlyphClass: 2
Flags: W
LayerCount: 2
Fore
SplineSet
39 157 m 258
 39 68 112 0 269 -1 c 257
 269 122 l 257
 180 122 160 127 160 188 c 256
 160 239 174 249 238 249 c 258
 1039 249 l 257
 1039 371 l 257
 235 371 l 258
 149 371 39 326 39 218 c 258
 39 157 l 258
322 -1 m 257
 489 -1 541 95 541 191 c 258
 541 588 l 257
 419 588 l 257
 419 187 l 258
 419 141 388 122 322 122 c 257
 322 -1 l 257
164 348 m 257
 286 348 l 257
 287 586 l 257
 164 586 l 257
 164 348 l 257
164 470 m 257
 327 470 l 257
 327 595 l 257
 164 595 l 257
 164 470 l 257
381 470 m 257
 688 470 l 257
 688 595 l 257
 381 595 l 257
 381 470 l 257
655 2 m 257
 777 2 l 257
 778 257 l 257
 655 257 l 257
 655 2 l 257
860 2 m 257
 982 2 l 257
 983 257 l 257
 860 257 l 257
 860 2 l 257
EndSplineSet
EndChar

StartChar: tml_SsI
Encoding: 152 -1 152
GlifName: tml_S_sI_
Width: 1430
VWidth: 0
GlyphClass: 2
Flags: HW
LayerCount: 2
Fore
SplineSet
877 485 m 257
 933 485 962 472 962 413 c 258
 962 158 l 257
 1084 158 l 257
 1084 413 l 258
 1084 561 993 624 877 624 c 257
 765 624 669 557 669 433 c 258
 669 334 l 258
 669 191 746 158 850 158 c 257
 850 279 l 257
 806 279 792 287 792 340 c 258
 792 418 l 258
 792 472 822 485 877 485 c 257
351 483 m 257
 428 483 486 424 487 354 c 257
 487 146 l 258
 487 127 461 124 454 123 c 257
 454 0 l 257
 850 0 l 257
 850 123 l 257
 608 123 l 257
 608 355 l 257
 607 466 520 605 351 605 c 257
 351 483 l 257
40 151 m 258
 40 91 110 0 212 0 c 256
 212 122 l 257
 179 122 165 147 165 181 c 256
 165 218 183 237 212 237 c 256
 212 359 l 257
 162 359 39 324 40 220 c 258
 40 151 l 258
267 0 m 257
 376 0 437 89 436 152 c 258
 436 224 l 258
 436 276 363 359 267 359 c 256
 267 237 l 257
 298 237 314 218 314 180 c 256
 314 142 299 123 267 122 c 257
 267 0 l 257
833 606 m 257
 956 606 l 256
 956 667 980 725 1081 725 c 265
 1081 847 l 273
 885 847 833 710 833 606 c 257
1135 725 m 257
 1238 725 1268 672 1268 606 c 258
 1268 -1 l 257
 1390 -1 l 257
 1390 606 l 258
 1390 709 1342 847 1135 847 c 257
 1135 725 l 257
40 226 m 257
 176 354 l 256
 178 439 237 483 301 483 c 257
 301 605 l 257
 91 605 40 433 40 305 c 257
 40 226 l 257
962 123 m 257
 962 -178 l 257
 1084 -178 l 257
 1084 123 l 257
 962 123 l 257
903 1 m 257
 1220 0 l 257
 1220 123 l 257
 903 123 l 257
 903 1 l 257
903 158 m 257
 1220 158 l 257
 1220 280 l 256
 903 280 l 257
 903 158 l 257
1120 0 m 257
 1220 0 l 257
 1220 280 l 257
 1120 280 l 257
 1120 0 l 257
EndSplineSet
EndChar

StartChar: tml_SsIi
Encoding: 153 -1 153
GlifName: tml_S_sI_i
Width: 1260
VWidth: 0
GlyphClass: 2
Flags: W
LayerCount: 2
Fore
SplineSet
877 485 m 257
 933 485 962 472 962 413 c 258
 962 158 l 257
 1084 158 l 257
 1084 413 l 258
 1084 561 993 624 877 624 c 257
 765 624 669 557 669 433 c 258
 669 334 l 258
 669 191 746 158 850 158 c 257
 850 279 l 257
 806 279 792 287 792 340 c 258
 792 418 l 258
 792 472 822 485 877 485 c 257
812 527 m 257
 936 527 l 257
 936 605 l 256
 861 763 931 838 1002 838 c 257
 1059 838 1070 804 1070 789 c 256
 1070 768 1059 749 1036 749 c 256
 1011 749 1002 766 1002 782 c 256
 931 699 l 257
 941 678 988 640 1033 640 c 256
 1232 640 1240 953 1012 953 c 256
 809 953 738 765 812 606 c 256
 812 527 l 257
351 483 m 257
 428 483 486 424 487 354 c 257
 487 146 l 258
 487 127 461 124 454 123 c 257
 454 0 l 257
 850 0 l 257
 850 123 l 257
 608 123 l 257
 608 355 l 257
 607 466 520 605 351 605 c 257
 351 483 l 257
40 151 m 258
 40 91 110 0 212 0 c 256
 212 122 l 257
 179 122 165 147 165 181 c 256
 165 218 183 237 212 237 c 256
 212 359 l 257
 162 359 39 324 40 220 c 258
 40 151 l 258
267 0 m 257
 376 0 437 89 436 152 c 258
 436 224 l 258
 436 276 363 359 267 359 c 256
 267 237 l 257
 298 237 314 218 314 180 c 256
 314 142 299 123 267 122 c 257
 267 0 l 257
40 226 m 257
 176 354 l 256
 178 439 237 483 301 483 c 257
 301 605 l 257
 91 605 40 433 40 305 c 257
 40 226 l 257
962 123 m 257
 962 -178 l 257
 1084 -178 l 257
 1084 123 l 257
 962 123 l 257
903 1 m 257
 1220 0 l 257
 1220 123 l 257
 903 123 l 257
 903 1 l 257
903 158 m 257
 1220 158 l 257
 1220 280 l 256
 903 280 l 257
 903 158 l 257
1120 0 m 257
 1220 0 l 257
 1220 280 l 257
 1120 280 l 257
 1120 0 l 257
EndSplineSet
EndChar

StartChar: tml_SsU
Encoding: 154 -1 154
GlifName: tml_S_sU_
Width: 1516
VWidth: 0
GlyphClass: 2
Flags: W
LayerCount: 2
Fore
SplineSet
918 485 m 257
 1265 485 l 258
 1321 484 1354 474 1354 436 c 256
 1354 418 1343 404 1320 404 c 256
 1298 404 1286 417 1286 437 c 256
 1164 437 l 257
 1164 352 1235 282 1304 282 c 258
 1333 282 l 258
 1388 282 1476 333 1476 437 c 258
 1476 447 l 258
 1476 580 1380 606 1269 607 c 258
 918 607 l 257
 918 485 l 257
267 0 m 257
 376 0 437 89 436 152 c 258
 436 224 l 258
 436 276 363 359 267 359 c 256
 267 237 l 257
 298 237 314 218 314 180 c 256
 314 142 299 123 267 122 c 257
 267 0 l 257
40 151 m 258
 40 91 110 0 212 0 c 256
 212 122 l 257
 179 122 165 147 165 181 c 256
 165 218 183 237 212 237 c 256
 212 359 l 257
 162 359 39 324 40 220 c 258
 40 151 l 258
40 226 m 257
 176 354 l 256
 178 439 237 483 301 483 c 257
 301 605 l 257
 91 605 40 433 40 305 c 257
 40 226 l 257
351 483 m 257
 428 483 486 424 487 354 c 257
 487 146 l 258
 487 127 461 124 454 123 c 257
 454 0 l 257
 850 0 l 257
 850 123 l 257
 608 123 l 257
 608 355 l 257
 607 466 520 605 351 605 c 257
 351 483 l 257
903 485 m 257
 942 485 962 486 962 413 c 258
 962 158 l 257
 1084 158 l 257
 1084 413 l 258
 1084 561 1006 607 903 607 c 257
 903 485 l 257
962 123 m 257
 962 -178 l 257
 1084 -178 l 257
 1084 123 l 257
 962 123 l 257
903 158 m 257
 1220 158 l 257
 1220 280 l 256
 903 280 l 257
 903 158 l 257
669 334 m 258
 669 191 746 158 850 158 c 257
 850 279 l 257
 806 279 792 287 792 340 c 258
 792 424 l 258
 792 463 805 485 850 485 c 257
 850 607 l 257
 746 607 669 570 669 433 c 258
 669 334 l 258
1120 0 m 257
 1220 0 l 257
 1220 280 l 257
 1120 280 l 257
 1120 0 l 257
903 1 m 257
 1220 0 l 257
 1220 123 l 257
 903 123 l 257
 903 1 l 257
EndSplineSet
EndChar

StartChar: tml_SsUu
Encoding: 155 -1 155
GlifName: tml_S_sU_u
Width: 1646
VWidth: 0
GlyphClass: 2
Flags: W
LayerCount: 2
Fore
SplineSet
904 486 m 257
 1245 486 l 258
 1301 486 1334 479 1334 441 c 256
 1334 423 1323 409 1300 409 c 256
 1278 409 1266 422 1266 442 c 256
 1144 442 l 257
 1144 357 1215 287 1284 287 c 258
 1313 287 l 258
 1368 287 1456 338 1456 442 c 258
 1456 452 l 258
 1456 585 1360 608 1249 608 c 258
 904 608 l 257
 904 486 l 257
1144 604 m 256
 1266 604 l 257
 1266 670 1335 683 1373 683 c 256
 1412 683 1483 668 1483 608 c 258
 1483 284 l 258
 1483 249 1465 226 1427 226 c 258
 1368 226 l 256
 1368 134 l 256
 1427 134 l 258
 1532 134 1606 179 1606 284 c 258
 1606 608 l 258
 1606 713 1519 805 1373 805 c 256
 1241 805 1144 714 1144 604 c 256
351 483 m 257
 428 483 486 424 487 354 c 257
 487 146 l 258
 487 127 461 124 454 123 c 257
 454 0 l 257
 850 0 l 257
 850 123 l 257
 608 123 l 257
 608 355 l 257
 607 466 520 605 351 605 c 257
 351 483 l 257
669 334 m 258
 669 191 746 158 850 158 c 257
 850 279 l 257
 806 279 792 287 792 340 c 258
 792 424 l 258
 792 463 805 485 850 485 c 257
 850 607 l 257
 746 607 669 570 669 433 c 258
 669 334 l 258
40 151 m 258
 40 91 110 0 212 0 c 256
 212 122 l 257
 179 122 165 147 165 181 c 256
 165 218 183 237 212 237 c 256
 212 359 l 257
 162 359 39 324 40 220 c 258
 40 151 l 258
267 0 m 257
 376 0 437 89 436 152 c 258
 436 224 l 258
 436 276 363 359 267 359 c 256
 267 237 l 257
 298 237 314 218 314 180 c 256
 314 142 299 123 267 122 c 257
 267 0 l 257
903 485 m 257
 942 485 962 486 962 413 c 258
 962 158 l 257
 1084 158 l 257
 1084 413 l 258
 1084 561 1006 607 903 607 c 257
 903 485 l 257
40 226 m 257
 176 354 l 256
 178 439 237 483 301 483 c 257
 301 605 l 257
 91 605 40 433 40 305 c 257
 40 226 l 257
962 123 m 257
 962 -178 l 257
 1084 -178 l 257
 1084 123 l 257
 962 123 l 257
903 1 m 257
 1220 0 l 257
 1220 123 l 257
 903 123 l 257
 903 1 l 257
903 158 m 257
 1220 158 l 257
 1220 280 l 256
 903 280 l 257
 903 158 l 257
1120 0 m 257
 1220 0 l 257
 1220 280 l 257
 1120 280 l 257
 1120 0 l 257
EndSplineSet
EndChar

StartChar: tml_Ssa
Encoding: 156 2999 156
GlifName: tml_S_sa
Width: 1258
VWidth: 0
GlyphClass: 2
Flags: W
HStem: 0 123<608 850 1120 1220> 237 123 483 122<269 301 351 389.5>
VStem: 40 172<121 122 0 151 0 220 237 305 0 226> 40 125<121 199.5 164 199.5 164 220 164 305 164 226> 314 122<161 199> 487 121<136.5 146 146 354> 669 123<262.5 424 340 424 424 433> 962 122<-178 123 -178 123 158 413 -178 158>
AnchorPoint: "tml_virama" 621 0 basechar 0
LayerCount: 2
Fore
SplineSet
267 0 m 257
 376 0 437 89 436 152 c 258
 436 224 l 258
 436 276 363 359 267 359 c 256
 267 237 l 257
 298 237 314 218 314 180 c 256
 314 142 299 123 267 122 c 257
 267 0 l 257
40 151 m 258
 40 91 110 0 212 0 c 256
 212 122 l 257
 179 122 165 147 165 181 c 256
 165 218 183 237 212 237 c 256
 212 359 l 257
 162 359 39 324 40 220 c 258
 40 151 l 258
40 226 m 257
 176 354 l 256
 178 439 237 483 301 483 c 257
 301 605 l 257
 91 605 40 433 40 305 c 257
 40 226 l 257
351 483 m 257
 428 483 486 424 487 354 c 257
 487 146 l 258
 487 127 461 124 454 123 c 257
 454 0 l 257
 850 0 l 257
 850 123 l 257
 608 123 l 257
 608 355 l 257
 607 466 520 605 351 605 c 257
 351 483 l 257
903 485 m 257
 942 485 962 486 962 413 c 258
 962 158 l 257
 1084 158 l 257
 1084 413 l 258
 1084 561 1006 607 903 607 c 257
 903 485 l 257
962 123 m 257
 962 -178 l 257
 1084 -178 l 257
 1084 123 l 257
 962 123 l 257
903 158 m 257
 1220 158 l 257
 1220 280 l 256
 903 280 l 257
 903 158 l 257
669 334 m 258
 669 191 746 158 850 158 c 257
 850 279 l 257
 806 279 792 287 792 340 c 258
 792 424 l 258
 792 463 805 485 850 485 c 257
 850 607 l 257
 746 607 669 570 669 433 c 258
 669 334 l 258
1120 0 m 257
 1220 0 l 257
 1220 280 l 257
 1120 280 l 257
 1120 0 l 257
903 1 m 257
 1220 0 l 257
 1220 123 l 257
 903 123 l 257
 903 1 l 257
EndSplineSet
PickledDataWithLists: "(dp1
S'com.fontlab.hintData'
p2
(dp3
S'vhints'
p4
(lp5
(dp6
S'position'
p7
L40L
sS'width'
p8
L172L
sa(dp9
g7
L40L
sg8
L125L
sa(dp10
g7
L314L
sg8
L122L
sa(dp11
g7
L487L
sg8
L121L
sa(dp12
g7
L669L
sg8
L123L
sa(dp13
g7
L962L
sg8
L122L
sasS'hhints'
p14
(lp15
(dp16
g7
L0L
sg8
L123L
sa(dp17
g7
L237L
sg8
L123L
sa(dp18
g7
L483L
sg8
L122L
sass."
EndChar

StartChar: tml_TI
Encoding: 157 -1 157
GlifName: tml_T_I_
Width: 949
VWidth: 0
GlyphClass: 2
Flags: HW
LayerCount: 2
Fore
SplineSet
685 690 m 257
 759 690 787 650 787 591 c 258
 787 2 l 257
 909 2 l 257
 909 594 l 258
 909 697 860 812 685 812 c 257
 685 690 l 257
420 592 m 257
 543 592 l 256
 543 653 559 690 631 690 c 265
 631 812 l 273
 458 812 420 696 420 592 c 257
EndSplineSet
Refer: 163 2980 N 1 0 0 1 1 0 2
EndChar

StartChar: tml_TI.alt
Encoding: 158 -1 158
GlifName: tml_T_I_.alt
Width: 972
VWidth: 0
GlyphClass: 2
Flags: HW
LayerCount: 2
Fore
SplineSet
89 272 m 257
 188 365 l 257
 102 663 277 721 445 733 c 256
 445 855 l 257
 166 857 -65 650 89 272 c 257
499 733 m 257
 601 733 810 697 810 426 c 258
 810 0 l 257
 932 0 l 257
 932 429 l 258
 931 751 699 855 499 855 c 257
 499 733 l 257
EndSplineSet
Refer: 163 2980 N 1 0 0 1 24.329 0 2
EndChar

StartChar: tml_TIi
Encoding: 159 -1 159
GlifName: tml_T_I_i
Width: 830
VWidth: 0
GlyphClass: 2
Flags: W
LayerCount: 2
Fore
SplineSet
420 478 m 257
 545 478 l 257
 545 595 l 256
 470 753 539 828 610 828 c 257
 667 828 678 794 678 779 c 256
 678 758 667 739 644 739 c 256
 619 739 610 756 610 772 c 256
 539 689 l 257
 549 668 596 630 641 630 c 256
 840 630 848 943 620 943 c 256
 417 943 346 755 420 596 c 256
 420 478 l 257
EndSplineSet
Refer: 163 2980 N 1 0 0 1 1 0 2
EndChar

StartChar: tml_TIi.alt
Encoding: 160 -1 160
GlifName: tml_T_I_i.alt
Width: 825
VWidth: 0
GlyphClass: 2
Flags: W
LayerCount: 2
Fore
SplineSet
96 272 m 257
 195 365 l 257
 130 592 173 730 306 796 c 256
 369 827 475 864 589 833 c 256
 644 818 652 790 652 775 c 256
 652 754 641 735 618 735 c 256
 593 735 584 752 584 768 c 256
 530 670 l 257
 566 628 606 619 651 619 c 256
 736 619 787 701 785 775 c 256
 783 870 704 950 579 965 c 257
 442 981 351 962 246 905 c 256
 88 819 -37 600 96 272 c 257
EndSplineSet
Refer: 163 2980 N 1 0 0 1 30.026 0 2
EndChar

StartChar: tml_TU
Encoding: 161 -1 161
GlifName: tml_T_U_
Width: 965
VWidth: 0
GlyphClass: 2
Flags: W
HStem: -258 94 -121 277 -121 93 2 123<235 275 235 275 329 366 235 414> 252 122<248 574> 351 23<198.5 245 245 296 296 296>
VStem: 49 121<108.5 230 210 230 210 268.5> 621 122<-109 156 210 233> 783 122<-56 582 -56 -56>
LayerCount: 2
Fore
SplineSet
410 -306 m 257
 569 -306 l 258
 722 -306 743 -252 743 -109 c 258
 743 156 l 257
 621 156 l 257
 620 -109 l 258
 620 -190 602 -212 568 -212 c 258
 410 -212 l 257
 410 -306 l 257
39 -154 m 258
 39 -207 l 258
 40 -302 156 -305 189 -305 c 258
 356 -306 l 257
 356 -212 l 257
 189 -212 l 258
 151 -212 150 -149 190 -149 c 258
 905 -149 l 257
 905 582 l 256
 783 582 l 256
 783 -56 l 257
 190 -56 l 258
 102 -56 39 -86 39 -154 c 258
49 155 m 257
 49 62 108 2 275 2 c 257
 275 125 l 257
 195 125 179 118 172 155 c 257
 49 155 l 257
245 374 m 258
 152 374 49 327 49 210 c 257
 170 210 l 257
 170 250 191 252 248 252 c 258
 574 252 l 257
 616 252 621 256 621 210 c 256
 743 210 l 257
 743 346 659 374 574 374 c 257
 245 374 l 258
329 2 m 257
 499 2 551 103 551 194 c 258
 551 591 l 257
 429 591 l 257
 429 190 l 258
 429 144 403 125 329 125 c 257
 329 2 l 257
174 351 m 257
 296 351 l 257
 297 589 l 257
 174 589 l 257
 174 351 l 257
389 473 m 257
 683 473 l 257
 683 595 l 257
 389 595 l 257
 389 473 l 257
174 473 m 257
 335 473 l 257
 335 595 l 257
 174 595 l 257
 174 473 l 257
EndSplineSet
PickledDataWithLists: "(dp1
S'com.fontlab.hintData'
p2
(dp3
S'vhints'
p4
(lp5
(dp6
S'position'
p7
L49L
sS'width'
p8
L121L
sa(dp9
g7
L621L
sg8
L122L
sa(dp10
g7
L783L
sg8
L122L
sasS'hhints'
p11
(lp12
(dp13
g7
L-258L
sg8
L94L
sa(dp14
g7
L-121L
sg8
L277L
sa(dp15
g7
L-121L
sg8
L93L
sa(dp16
g7
L2L
sg8
L123L
sa(dp17
g7
L252L
sg8
L122L
sa(dp18
g7
L351L
sg8
L23L
sass."
EndChar

StartChar: tml_TUu
Encoding: 162 -1 162
GlifName: tml_T_U_u
Width: 1312
VWidth: 0
GlyphClass: 2
Flags: W
HStem: -200 122 0 21 111 122 495 122 693 123
VStem: 39 123 291 122 407 6 549 124 632 122
LayerCount: 2
Fore
SplineSet
1067 -119 m 257
 1189 -119 l 257
 1189 593 l 257
 1067 593 l 257
 1067 -119 l 257
1016 473 m 257
 1273 473 l 257
 1273 595 l 257
 1016 595 l 257
 1016 473 l 257
783 473 m 257
 962 473 l 257
 962 595 l 257
 783 595 l 257
 783 473 l 257
EndSplineSet
Refer: 161 -1 N 1 0 0 1 0 0 2
PickledDataWithLists: "(dp1
S'com.fontlab.hintData'
p2
(dp3
S'vhints'
p4
(lp5
(dp6
S'position'
p7
L39L
sS'width'
p8
L123L
sa(dp9
g7
L291L
sg8
L122L
sa(dp10
g7
L407L
sg8
L6L
sa(dp11
g7
L549L
sg8
L124L
sa(dp12
g7
L632L
sg8
L122L
sasS'hhints'
p13
(lp14
(dp15
g7
L-200L
sg8
L122L
sa(dp16
g7
L0L
sg8
L21L
sa(dp17
g7
L111L
sg8
L122L
sa(dp18
g7
L495L
sg8
L122L
sa(dp19
g7
L693L
sg8
L123L
sass."
EndChar

StartChar: tml_Ta
Encoding: 163 2980 163
GlifName: tml_T_a
Width: 790
VWidth: 0
GlyphClass: 2
Flags: W
HStem: -158 122 2 123<232.5 269 232.5 269 322 355 232.5 405.5> 251 123 351 23<186.5 235 235 286 286 286>
VStem: 39 123<110.5 157 157 272> 130 128 611 122<-26 151 -26 205>
AnchorPoint: "tml_virama" 351 0 basechar 0
LayerCount: 2
Fore
SplineSet
50 -306 m 257
 178 -306 l 257
 178 -230 191 -208 232 -208 c 258
 560 -208 l 258
 713 -208 733 -92 733 -26 c 258
 733 151 l 257
 611 151 l 257
 610 -26 l 258
 610 -56 608 -86 559 -86 c 258
 249 -86 l 258
 113 -86 50 -157 50 -306 c 257
39 157 m 257
 39 64 109 2 269 2 c 257
 269 125 l 257
 196 125 169 120 162 157 c 257
 39 157 l 257
39 212 m 257
 160 212 l 257
 160 252 181 252 238 252 c 258
 576 251 l 257
 618 251 611 205 611 205 c 256
 733 205 l 257
 733 352 655 374 564 374 c 257
 235 374 l 258
 138 374 39 332 39 212 c 257
322 2 m 257
 489 2 541 98 541 194 c 258
 541 591 l 257
 419 591 l 257
 419 190 l 258
 419 144 388 125 322 125 c 257
 322 2 l 257
164 351 m 257
 286 351 l 257
 287 589 l 257
 164 589 l 257
 164 351 l 257
380 473 m 257
 673 473 l 257
 673 595 l 257
 380 595 l 257
 380 473 l 257
164 473 m 257
 326 473 l 257
 326 595 l 257
 164 595 l 257
 164 473 l 257
EndSplineSet
PickledDataWithLists: "(dp1
S'com.fontlab.hintData'
p2
(dp3
S'vhints'
p4
(lp5
(dp6
S'position'
p7
L39L
sS'width'
p8
L123L
sa(dp9
g7
L130L
sg8
L128L
sa(dp10
g7
L611L
sg8
L122L
sasS'hhints'
p11
(lp12
(dp13
g7
L-158L
sg8
L122L
sa(dp14
g7
L2L
sg8
L123L
sa(dp15
g7
L251L
sg8
L123L
sa(dp16
g7
L351L
sg8
L23L
sass."
EndChar

StartChar: tml_Ten
Encoding: 164 3056 164
GlifName: tml_T_en
Width: 744
VWidth: 0
GlyphClass: 2
Flags: W
LayerCount: 2
Fore
SplineSet
457 729 m 257
 559 595 l 257
 681 595 l 257
 580 729 l 257
 457 729 l 257
520 0 m 257
 650 0 680 97 681 145 c 258
 681 595 l 257
 559 595 l 257
 559 145 l 258
 559 130 544 119 520 119 c 257
 520 0 l 257
52 146 m 258
 52 68 106 0 206 0 c 257
 206 119 l 257
 180 119 174 132 174 146 c 258
 174 595 l 257
 52 595 l 257
 52 146 l 258
260 0 m 257
 309 0 340 0 364 33 c 257
 385 0 411 0 466 0 c 257
 466 119 l 257
 437 119 426 132 426 145 c 258
 426 595 l 257
 305 595 l 257
 305 145 l 258
 305 126 284 119 260 119 c 257
 260 0 l 257
EndSplineSet
EndChar

StartChar: tml_Thousand
Encoding: 165 3058 165
GlifName: tml_T_housand
Width: 1095
VWidth: 0
GlyphClass: 2
Flags: W
LayerCount: 2
Fore
SplineSet
694 -61 m 256
 786 -61 830 6 830 96 c 258
 830 350 l 257
 738 350 l 257
 738 100 l 258
 738 57 724 32 693 32 c 256
 679 32 661 46 661 65 c 256
 661 83 674 101 694 101 c 256
 694 193 l 257
 608 193 568 128 568 69 c 256
 568 -3 616 -61 694 -61 c 256
630 -258 m 257
 723 -258 l 256
 725 -193 734 -178 775 -178 c 258
 860 -178 l 258
 965 -178 1057 -130 1057 16 c 256
 1057 148 966 204 856 204 c 256
 856 111 l 257
 922 111 962 77 962 16 c 256
 962 -46 920 -85 860 -85 c 258
 775 -85 l 258
 665 -85 630 -165 630 -258 c 257
39 157 m 258
 39 68 112 0 269 -1 c 257
 269 122 l 257
 180 122 160 127 160 188 c 256
 160 239 174 249 238 249 c 258
 958 249 l 257
 958 371 l 257
 235 371 l 258
 149 371 39 326 39 218 c 258
 39 157 l 258
322 -1 m 257
 489 -1 541 95 541 191 c 258
 541 588 l 257
 419 588 l 257
 419 187 l 258
 419 141 388 122 322 122 c 257
 322 -1 l 257
164 348 m 257
 286 348 l 257
 287 586 l 257
 164 586 l 257
 164 348 l 257
381 470 m 257
 688 470 l 257
 688 595 l 257
 381 595 l 257
 381 470 l 257
164 470 m 257
 327 470 l 257
 327 595 l 257
 164 595 l 257
 164 470 l 257
EndSplineSet
EndChar

StartChar: tml_Three
Encoding: 166 3049 166
GlifName: tml_T_hree
Width: 734
VWidth: 0
GlyphClass: 2
Flags: W
HStem: 0 122<39 448 161 448 255 448 448 471 366 448 448 714 432.5 448 448 518>
VStem: 503 123<135.5 145 145 211>
LayerCount: 2
Fore
SplineSet
366 0 m 257
 714 0 l 257
 714 122 l 257
 366 122 l 257
 366 0 l 257
255 0 m 257
 337 0 394 0 471 0 c 256
 565 0 626 43 626 111 c 258
 626 229 l 258
 626 322 543 354 457 354 c 257
 457 231 l 256
 507 231 503 232 503 211 c 258
 503 145 l 258
 503 126 506 122 448 122 c 256
 381 122 288 122 255 122 c 257
 255 0 l 257
281 177 m 257
 403 177 l 257
 403 589 l 257
 281 589 l 257
 281 177 l 257
39 0 m 257
 161 0 l 257
 161 591 l 257
 39 591 l 257
 39 0 l 257
39 595 m 257
 40 473 l 257
 512 473 l 257
 512 595 l 257
 39 595 l 257
EndSplineSet
PickledDataWithLists: "(dp1
S'com.fontlab.hintData'
p2
(dp3
S'vhints'
p4
(lp5
(dp6
S'position'
p7
L503L
sS'width'
p8
L123L
sasS'hhints'
p9
(lp10
(dp11
g7
L0L
sg8
L122L
sass."
EndChar

StartChar: tml_TtI
Encoding: 167 -1 167
GlifName: tml_T_tI_
Width: 782
VWidth: 0
GlyphClass: 2
Flags: HW
LayerCount: 2
Fore
SplineSet
347 99 m 257
 500 111 l 257
 411.288496408 176.869619434 362.646618241 274.907811391 356.472703507 353.999997082 c 4
 351.02418238 423.79938098 378.650478909 478.843272692 441 484 c 257
 441 606 l 257
 304.191132003 606 231.098575028 486.362458561 230.995686929 356.000004108 c 0
 230.921841578 262.435623664 268.447094397 163.346529058 347 99 c 257
494 484 m 257
 537 484 542 453 542 430 c 258
 543 -199 l 257
 666 -199 l 257
 666 446 l 258
 666 540 589 606 494 606 c 257
 494 484 l 257
40 0 m 257
 742 0 l 257
 742 122 l 257
 40 122 l 257
 40 0 l 257
40 176 m 257
 162 176 l 257
 162 596 l 257
 40 596 l 257
 40 176 l 257
EndSplineSet
EndChar

StartChar: tml_TtIi
Encoding: 168 -1 168
GlifName: tml_T_tI_i
Width: 0
VWidth: 0
GlyphClass: 2
Flags: W
LayerCount: 2
Fore
SplineSet
347 99 m 257
 500 111 l 257
 333 235 308 473 441 484 c 257
 464 484 497 481 497 443 c 256
 497 429 486 411 463 411 c 256
 438 411 429 428 429 444 c 256
 358 361 l 257
 362 340 412 289 475 289 c 256
 541 289 619 350 619 444 c 256
 619 573 516 605 441 606 c 256
 206 606 159 253 347 99 c 257
40 0 m 257
 742 0 l 257
 742 122 l 257
 40 122 l 257
 40 0 l 257
40 176 m 257
 162 176 l 257
 162 596 l 257
 40 596 l 257
 40 176 l 257
EndSplineSet
EndChar

StartChar: tml_TtU
Encoding: 169 -1 169
GlifName: tml_T_tU_
Width: 750
VWidth: 0
GlyphClass: 2
Flags: W
LayerCount: 2
Fore
SplineSet
181 328 m 257
 58 328 l 257
 58 6 l 258
 58 -133 143 -200 252 -200 c 258
 350 -200 l 257
 350 -78 l 257
 268 -78 l 258
 204 -78 181 -59 181 5 c 258
 181 328 l 257
58 391 m 257
 181 391 l 256
 181 456 181 602 181 602 c 258
 181 638 184 694 258 694 c 257
 457 694 l 258
 521 694 565 675 565 611 c 258
 565 551 l 257
 688 551 l 256
 688 610 l 258
 688 749 607 816 473 816 c 258
 257 816 l 257
 172 816 58 769 58 606 c 258
 58 391 l 257
404 -78 m 256
 404 -200 l 257
 488 -200 l 258
 613 -200 692 -105 692 0 c 258
 692 139 l 258
 692 227 634 304 527 304 c 258
 486 304 l 257
 486 182 l 256
 528 182 l 258
 557 182 568 168 568 139 c 258
 568 1 l 258
 568 -51 530 -78 485 -78 c 258
 404 -78 l 256
310 0 m 257
 432 0 l 257
 432 593 l 257
 310 592 l 257
 310 0 l 257
EndSplineSet
EndChar

StartChar: tml_TtUu
Encoding: 170 -1 170
GlifName: tml_T_tU_u
Width: 800
VWidth: 0
GlyphClass: 2
Flags: W
HStem: -258 94 -121 277 -121 93 2 123 252 122 351 23 473 109 473 122
VStem: 49 121 621 122 783 179 783 122
LayerCount: 2
Fore
SplineSet
39 283 m 257
 39 6 l 258
 39 -133 124 -200 233 -200 c 258
 331 -200 l 257
 331 -78 l 257
 249 -78 l 258
 185 -78 161 -59 161 5 c 258
 161 283 l 257
 39 283 l 257
161 379 m 257
 161 487 l 258
 161 566 159 693 333 693 c 258
 473 693 l 258
 614 693 632 687 632 649 c 256
 632 631 621 617 598 617 c 256
 576 617 563 630 563 650 c 256
 441 650 l 257
 441 565 513 495 582 495 c 258
 610 495 l 258
 665 495 754 546 754 650 c 258
 754 660 l 258
 754 793 634 816 477 816 c 258
 332 816 l 258
 138 816 39 743 39 492 c 258
 39 379 l 257
 161 379 l 257
385 -78 m 256
 385 -200 l 257
 469 -200 l 258
 594 -200 671 -105 671 0 c 258
 671 218 l 258
 671 306 615 383 508 383 c 258
 407 383 l 257
 407 261 l 256
 509 261 l 258
 538 261 549 247 549 218 c 258
 549 1 l 258
 549 -51 511 -78 466 -78 c 258
 385 -78 l 256
291 0 m 257
 413 0 l 257
 413 593 l 257
 291 592 l 257
 291 0 l 257
EndSplineSet
PickledDataWithLists: "(dp1
S'com.fontlab.hintData'
p2
(dp3
S'vhints'
p4
(lp5
(dp6
S'position'
p7
L49L
sS'width'
p8
L121L
sa(dp9
g7
L621L
sg8
L122L
sa(dp10
g7
L783L
sg8
L179L
sa(dp11
g7
L783L
sg8
L122L
sasS'hhints'
p12
(lp13
(dp14
g7
L-258L
sg8
L94L
sa(dp15
g7
L-121L
sg8
L277L
sa(dp16
g7
L-121L
sg8
L93L
sa(dp17
g7
L2L
sg8
L123L
sa(dp18
g7
L252L
sg8
L122L
sa(dp19
g7
L351L
sg8
L23L
sa(dp20
g7
L473L
sg8
L109L
sa(dp21
g7
L473L
sg8
L122L
sass."
EndChar

StartChar: tml_Tta
Encoding: 171 2975 171
GlifName: tml_T_ta
Width: 625
VWidth: 0
GlyphClass: 2
Flags: W
HStem: 0 122<27 587 27 587>
VStem: 27 122<0 596 176 596 176 596>
AnchorPoint: "tml_virama" 331 0 basechar 0
LayerCount: 2
Fore
SplineSet
27 0 m 257
 587 0 l 257
 587 122 l 257
 27 122 l 257
 27 0 l 257
27 176 m 257
 149 176 l 257
 149 596 l 257
 27 596 l 257
 27 176 l 257
EndSplineSet
PickledDataWithLists: "(dp1
S'com.fontlab.hintData'
p2
(dp3
S'vhints'
p4
(lp5
(dp6
S'position'
p7
L27L
sS'width'
p8
L122L
sasS'hhints'
p9
(lp10
(dp11
g7
L0L
sg8
L122L
sass."
EndChar

StartChar: tml_Two
Encoding: 172 3048 172
GlifName: tml_T_wo
Width: 1017
VWidth: 0
GlyphClass: 2
Flags: W
LayerCount: 2
Fore
SplineSet
39 472 m 256
 39 345 135 285 227 285 c 256
 338 285 434 388 409 504 c 257
 287 504 l 257
 302 459 275 407 226 407 c 256
 200 407 162 424 161 469 c 256
 160 521 210 574 302 574 c 256
 402 574 471 538 471 430 c 257
 594 430 l 257
 594 593 485 696 302 696 c 256
 137 696 39 593 39 472 c 256
185 0 m 257
 979 0 l 257
 979 122 l 257
 185 122 l 257
 185 0 l 257
102 0 m 257
 231 0 l 257
 324 0 594 161 594 376 c 257
 471 376 l 257
 471 256 354 121 102 122 c 257
 102 0 l 257
EndSplineSet
EndChar

StartChar: tml_U
Encoding: 173 2953 173
GlifName: tml_U_
Width: 1059
VWidth: 0
GlyphClass: 2
Flags: W
HStem: 0 122 110 12 141 123 308 122<221 259.5 221 282> 622 122
VStem: 47 125<459.5 477 459.5 477> 57 148<86.5 112 110 112 0 164 110 110> 478 116<334 339 339 386>
LayerCount: 2
Fore
SplineSet
174 534 m 256
 174 570 197 625 303 625 c 256
 474 625 476 434 476 434 c 257
 593 434 l 257
 593 626 483 744 303 744 c 256
 160 744 48 636 48 534 c 256
 174 534 l 256
259 0 m 257
 1033 0 l 257
 1033 112 l 257
 259 112 l 257
 259 0 l 257
57 112 m 257
 57 61 48 0 116 0 c 258
 205 0 l 257
 205 112 l 257
 57 112 l 257
57 110 m 256
 179 110 l 256
 179 110 179 148 179 161 c 257
 189 161 370 162 370 162 c 258
 564 162 594 251 594 334 c 258
 594 386 l 257
 478 386 l 257
 478 339 l 258
 478 268 455 265 338 264 c 258
 138 264 l 258
 75 264 58 226 57 164 c 258
 57 110 l 256
172 477 m 256
 172 477 47 477 47 477 c 256
 47 398 61 308 237 308 c 256
 327 308 401 365 406 428 c 256
 322 517 l 256
 322 452 282 430 237 430 c 256
 205 430 172 442 172 477 c 256
EndSplineSet
PickledDataWithLists: "(dp1
S'com.fontlab.hintData'
p2
(dp3
S'vhints'
p4
(lp5
(dp6
S'position'
p7
L47L
sS'width'
p8
L125L
sa(dp9
g7
L57L
sg8
L148L
sa(dp10
g7
L478L
sg8
L116L
sasS'hhints'
p11
(lp12
(dp13
g7
L0L
sg8
L122L
sa(dp14
g7
L110L
sg8
L12L
sa(dp15
g7
L141L
sg8
L123L
sa(dp16
g7
L308L
sg8
L122L
sa(dp17
g7
L622L
sg8
L122L
sass."
EndChar

StartChar: tml_Uu
Encoding: 174 2954 174
GlifName: tml_U_u
Width: 1435
VWidth: 0
GlyphClass: 2
Flags: W
HStem: 0 122 141 122 149 101 343 101<779 799 779 847> 537 101<867 918 870 918 1145 1148 1148 1167 1215 1396> 545 159 583 84
VStem: 39 122 57 148 301 122 471 123 659 103 659 140<149 330 343 415 149 334> 883 101
LayerCount: 2
Fore
SplineSet
846 149 m 257
 926 150 985 209 984 261 c 256
 983 326 983 298 983 333 c 256
 983 382 933 444 847 444 c 256
 847 343 l 257
 869 342 882 319 883 297 c 256
 884 272 872 249 846 249 c 256
 846 149 l 257
659 330 m 256
 659 264 660 294 660 259 c 256
 660 210 712 149 799 149 c 256
 799 249 l 257
 773 249 761 271 761 297 c 256
 761 321 776 342 799 343 c 256
 799 444 l 257
 759 444 658 415 659 330 c 256
659 334 m 257
 664 359 767 371 767 418 c 256
 767 498 817 537 867 537 c 258
 870 537 l 256
 871 637 l 257
 869 637 l 258
 724 637 659 498 659 415 c 257
 659 334 l 257
917 538 m 257
 919 538 l 258
 963 538 1014 491 1015 440 c 257
 1016 149 l 257
 1120 149 l 257
 1116 441 l 257
 1115 522 1055 638 918 638 c 258
 917 638 l 257
 917 538 l 257
1015 429 m 257
 1116 429 l 257
 1116 482 1123 537 1167 537 c 257
 1167 638 l 257
 1148 638 l 258
 1026 638 1015 498 1015 429 c 257
1215 537 m 257
 1396 537 l 257
 1396 638 l 257
 1215 638 l 257
 1215 537 l 257
1236 149 m 257
 1336 149 l 257
 1336 621 l 257
 1236 621 l 257
 1236 149 l 257
259 0 m 257
 1381 0 l 257
 1381 112 l 257
 259 112 l 257
 259 0 l 257
EndSplineSet
Refer: 173 2953 N 1 0 0 1 0 0 2
PickledDataWithLists: "(dp1
S'com.fontlab.hintData'
p2
(dp3
S'vhints'
p4
(lp5
(dp6
S'position'
p7
L39L
sS'width'
p8
L122L
sa(dp9
g7
L57L
sg8
L148L
sa(dp10
g7
L301L
sg8
L122L
sa(dp11
g7
L471L
sg8
L123L
sa(dp12
g7
L659L
sg8
L103L
sa(dp13
g7
L659L
sg8
L140L
sa(dp14
g7
L883L
sg8
L101L
sasS'hhints'
p15
(lp16
(dp17
g7
L0L
sg8
L122L
sa(dp18
g7
L141L
sg8
L122L
sa(dp19
g7
L149L
sg8
L101L
sa(dp20
g7
L343L
sg8
L101L
sa(dp21
g7
L537L
sg8
L101L
sa(dp22
g7
L545L
sg8
L159L
sa(dp23
g7
L583L
sg8
L84L
sass."
EndChar

StartChar: tml_VI
Encoding: 175 -1 175
GlifName: tml_V_I_
Width: 1058
VWidth: 0
GlyphClass: 2
Flags: W
LayerCount: 2
Fore
SplineSet
830 692 m 257
 877 692 891 655 891 593 c 258
 891 1 l 257
 1013 1 l 257
 1013 596 l 258
 1013 697 977 814 830 814 c 257
 830 692 l 257
714 594 m 257
 714 659 731 692 776 692 c 256
 776 692 l 256
 776 814 l 257
 776 814 l 257
 539 814 528 465 714 465 c 256
 714 594 l 257
EndSplineSet
Refer: 179 2997 N 1 0 0 1 0 0 2
EndChar

StartChar: tml_VIi
Encoding: 176 -1 176
GlifName: tml_V_I_i
Width: 1068
VWidth: 0
GlyphClass: 2
Flags: W
LayerCount: 2
Fore
SplineSet
838 826 m 257
 895 826 911 792 911 777 c 256
 911 756 900 737 877 737 c 256
 852 737 843 754 843 770 c 256
 767 679 l 257
 779 656 829 618 874 618 c 256
 1084 618 1091 950 831 950 c 257
 570 950 518 610 711 502 c 257
 818 595 l 257
 671 629 687 826 838 826 c 257
EndSplineSet
Refer: 179 2997 N 1 0 0 1 0 0 2
EndChar

StartChar: tml_VU
Encoding: 177 -1 177
GlifName: tml_V_U_
Width: 874
VWidth: 0
GlyphClass: 2
Flags: W
LayerCount: 2
Fore
SplineSet
710 -255 m 257
 834 -255 l 257
 834 596 l 257
 710 596 l 257
 710 -255 l 257
EndSplineSet
Refer: 179 2997 N 1 0 0 1 0 0 2
EndChar

StartChar: tml_VUu
Encoding: 178 -1 178
GlifName: tml_V_U_u
Width: 1047
VWidth: 0
GlyphClass: 2
Flags: W
LayerCount: 2
Fore
SplineSet
487 -331 m 257
 487 -208 l 257
 157 -208 l 258
 139 -208 119 -188 119 -154 c 256
 119 -122 139 -106 161 -106 c 257
 183 -107 195 -120 195 -142 c 256
 283 -142 l 256
 283 -134 l 258
 283 -61 236 -14 161 -14 c 257
 90 -14 15 -54 15 -128 c 258
 15 -204 l 258
 15 -288 65 -331 159 -331 c 258
 487 -331 l 257
541 -208 m 256
 541 -331 l 257
 906 -331 l 258
 969 -331 1025 -279 1025 -227 c 258
 1025 40 l 258
 1025 90 976 120 912 120 c 258
 840 120 l 257
 840 -2 l 256
 906 -2 l 256
 906 -208 l 256
 541 -208 l 256
720 -143 m 257
 844 -143 l 257
 844 596 l 257
 720 596 l 257
 720 -143 l 257
EndSplineSet
Refer: 179 2997 N 1 0 0 1 9 0 2
EndChar

